<!DOCTYPE svg PUBLIC "-//W3C//DTD SVG 20010904//EN" "http://www.w3.org/TR/2001/REC-SVG-20010904/DTD/svg10.dtd">
<svg version="1.0" xmlns="http://www.w3.org/2000/svg" width="512px" height="512px" viewBox="0 0 5120 5120" preserveAspectRatio="xMidYMid meet">
<g id="layer1" fill="#000000" stroke="none">
 <path d="M1045 4923 c-177 -24 -348 -168 -419 -352 l-21 -56 -3 -1860 c-2 -1183 1 -1883 7 -1924 16 -100 69 -202 149 -281 68 -68 124 -102 222 -136 53 -18 111 -19 1580 -19 1469 0 1527 1 1580 19 98 34 154 68 222 136 80 79 133 181 149 281 6 41 9 741 7 1924 l-3 1860 -22 57 c-58 152 -180 273 -332 332 l-56 21 -1515 1 c-833 1 -1528 -1 -1545 -3z m2984 -233 c78 -13 125 -37 172 -87 84 -88 89 -123 89 -665 l0 -438 -1730 0 -1730 0 0 438 c0 542 5 577 89 665 45 48 95 75 163 86 78 13 2867 13 2947 1z m261 -2080 l0 -650 -1730 0 -1730 0 0 650 0 650 1730 0 1730 0 0 -650z m-2 -1362 c-3 -434 -6 -488 -22 -530 -23 -62 -82 -127 -142 -158 l-49 -25 -1515 0 -1515 0 -49 25 c-60 31 -119 96 -142 158 -16 42 -19 96 -22 530 l-3 482 1731 0 1731 0 -3 -482z"/>
 <path d="M2173 4410 c-139 -29 -237 -149 -238 -292 0 -62 2 -70 31 -99 81 -80 200 -20 203 103 2 56 12 58 391 58 381 0 390 -1 390 -59 0 -120 124 -181 204 -102 29 29 31 37 31 99 -1 120 -69 223 -180 274 -49 23 -57 23 -420 25 -203 1 -389 -2 -412 -7z"/>
 <path d="M2135 2967 c-129 -51 -198 -149 -199 -280 -1 -67 0 -69 36 -103 30 -27 46 -34 77 -34 69 0 103 41 126 153 3 17 15 31 31 37 33 13 675 13 708 0 16 -6 28 -20 31 -37 15 -74 27 -101 54 -127 27 -26 35 -28 81 -24 42 4 57 11 76 34 29 37 38 74 29 132 -15 102 -75 188 -162 232 l-48 25 -405 2 c-295 1 -413 -1 -435 -10z"/>
 <path d="M2187 1340 c-149 -26 -251 -144 -252 -293 0 -67 1 -69 39 -104 35 -32 43 -35 83 -30 24 2 53 13 65 23 25 23 48 74 48 109 0 14 9 34 20 45 19 19 33 20 370 20 337 0 351 -1 370 -20 11 -11 20 -31 20 -45 0 -72 57 -135 121 -135 31 0 48 8 77 34 36 34 37 36 36 104 0 87 -35 164 -100 221 -83 73 -94 74 -494 77 -195 1 -376 -1 -403 -6z"/>
 </g>

</svg>