<!DOCTYPE svg PUBLIC "-//W3C//DTD SVG 20010904//EN" "http://www.w3.org/TR/2001/REC-SVG-20010904/DTD/svg10.dtd">
<svg version="1.0" xmlns="http://www.w3.org/2000/svg" width="860px" height="666px" viewBox="0 0 8600 6660" preserveAspectRatio="xMidYMid meet">
<g id="layer1" fill="#000000" stroke="none">
 <path d="M817 6100 c-289 -49 -566 -250 -706 -512 -58 -107 -78 -166 -96 -272 -13 -84 -15 -334 -15 -1986 0 -2037 -1 -2000 51 -2133 97 -248 281 -444 522 -557 45 -21 120 -49 167 -62 l85 -23 3475 0 3475 0 85 23 c276 75 503 256 635 505 25 46 52 103 60 127 45 123 45 122 45 2120 0 1998 0 1997 -45 2120 -8 24 -35 81 -60 127 -128 241 -341 416 -612 500 l-88 28 -3465 1 c-1906 1 -3487 -2 -3513 -6z m6978 -247 c282 -80 484 -283 558 -563 l22 -85 0 -1875 0 -1875 -22 -85 c-43 -161 -129 -299 -251 -403 -123 -104 -261 -160 -443 -177 -80 -8 -1102 -10 -3439 -8 -3033 3 -3331 5 -3391 20 -297 74 -514 291 -587 587 -15 59 -17 249 -20 1861 -2 1245 0 1830 8 1909 17 181 73 320 177 442 130 153 309 248 506 269 39 4 1586 7 3437 6 l3365 -1 80 -22z"/>
 <path d="M2072 4457 c-611 -611 -1112 -1119 -1112 -1127 0 -16 2226 -2247 2234 -2240 32 29 478 475 505 503 l35 38 -655 655 -654 654 2605 2 2605 3 0 385 0 385 -2605 3 -2605 2 654 654 655 655 -35 38 c-55 59 -498 498 -507 501 -4 1 -508 -499 -1120 -1111z"/>
 </g>

</svg>