<!DOCTYPE svg PUBLIC "-//W3C//DTD SVG 20010904//EN" "http://www.w3.org/TR/2001/REC-SVG-20010904/DTD/svg10.dtd">
<svg version="1.0" xmlns="http://www.w3.org/2000/svg" width="481px" height="481px" viewBox="0 0 4810 4810" preserveAspectRatio="xMidYMid meet">
<g id="layer1" fill="#a2a1a1" stroke="none">
 <path d="M2206 4469 c-706 -67 -1339 -507 -1664 -1155 -132 -264 -197 -528 -209 -844 -12 -353 54 -665 206 -977 447 -909 1451 -1363 2430 -1097 602 163 1128 636 1369 1231 103 255 145 478 145 773 0 216 -15 339 -63 527 -181 702 -762 1289 -1460 1478 -222 60 -528 86 -754 64z m249 -710 c31 -9 70 -41 177 -147 76 -74 144 -150 153 -168 21 -44 19 -107 -4 -152 -11 -20 -135 -152 -275 -292 -141 -140 -256 -258 -256 -262 0 -4 316 -9 703 -10 685 -3 703 -3 737 -23 19 -12 43 -36 55 -55 18 -32 20 -52 20 -250 0 -248 -5 -267 -85 -307 l-44 -23 -688 0 c-494 0 -689 -3 -694 -11 -4 -7 106 -124 266 -284 l273 -273 5 -50 c2 -28 1 -64 -3 -79 -9 -38 -268 -300 -320 -324 -51 -24 -89 -23 -140 0 -50 24 -1269 1242 -1285 1284 -15 40 -12 104 5 141 8 17 295 311 638 653 688 687 656 661 762 632z"/>
 </g>

</svg>