<svg id="svg" version="1.1" width="400" height="310.2325581395349" xmlns="http://www.w3.org/2000/svg" xmlns:xlink="http://www.w3.org/1999/xlink" style="display: block;"><g id="svgg"><path id="path0" d="" stroke="none" fill="#000000" fill-rule="evenodd"></path><path id="path1" d="M355.459 155.159 C 355.459 164.290,355.498 168.026,355.547 163.460 C 355.595 158.894,355.595 151.424,355.547 146.858 C 355.498 142.292,355.459 146.028,355.459 155.159 " stroke="none" fill="#333333" fill-rule="evenodd"></path><path id="path2" d="M355.004 155.159 C 355.004 164.375,355.109 171.916,355.237 171.916 C 355.365 171.916,355.469 164.375,355.469 155.159 C 355.469 145.943,355.365 138.402,355.237 138.402 C 355.109 138.402,355.004 145.943,355.004 155.159 " stroke="none" fill="#7a7a7a" fill-rule="evenodd"></path><path id="path3" d="M140.886 202.172 C 141.312 202.684,141.695 203.161,141.738 203.232 C 141.780 203.304,141.884 203.293,141.967 203.210 C 142.051 203.126,141.667 202.649,141.115 202.150 L 140.111 201.241 140.886 202.172 M156.400 217.634 C 156.400 217.935,157.669 219.161,157.821 219.008 C 157.892 218.938,157.601 218.553,157.175 218.152 C 156.749 217.752,156.400 217.519,156.400 217.634 " stroke="none" fill="#c3c3c3" fill-rule="evenodd"></path><path id="path4" d="M40.525 26.021 C 40.435 26.167,39.354 26.380,38.124 26.494 C 36.894 26.608,35.734 26.829,35.547 26.985 C 35.359 27.141,34.476 27.365,33.584 27.483 C 32.692 27.601,31.963 27.802,31.963 27.929 C 31.963 28.056,31.404 28.249,30.721 28.358 C 30.039 28.467,29.480 28.679,29.480 28.829 C 29.480 28.978,28.991 29.193,28.394 29.305 C 27.797 29.417,27.308 29.642,27.308 29.805 C 27.308 29.968,27.170 30.101,27.001 30.101 C 26.480 30.101,23.584 31.444,23.584 31.686 C 23.584 31.811,23.165 32.005,22.653 32.118 C 22.141 32.230,21.722 32.448,21.722 32.602 C 21.722 32.756,21.383 32.967,20.969 33.071 C 20.555 33.175,20.140 33.457,20.048 33.698 C 19.955 33.938,19.717 34.135,19.518 34.135 C 19.319 34.135,18.832 34.484,18.437 34.911 C 18.041 35.337,17.577 35.687,17.405 35.687 C 16.997 35.687,9.620 43.064,9.620 43.472 C 9.620 43.644,9.271 44.108,8.844 44.503 C 8.417 44.899,8.068 45.374,8.068 45.559 C 8.068 45.745,7.894 46.008,7.680 46.144 C 7.467 46.281,6.943 47.091,6.517 47.944 C 6.090 48.798,5.627 49.579,5.488 49.682 C 5.086 49.977,4.422 51.385,4.194 52.423 C 4.079 52.946,3.859 53.375,3.705 53.375 C 3.551 53.375,3.331 53.749,3.216 54.207 C 3.101 54.665,2.820 55.399,2.592 55.837 C 2.363 56.275,2.175 56.947,2.174 57.331 C 2.173 57.715,2.048 58.029,1.897 58.029 C 1.746 58.029,1.523 58.693,1.403 59.503 C 1.282 60.314,1.068 61.118,0.927 61.289 C -0.527 63.060,-0.494 248.597,0.961 249.134 C 1.115 249.191,1.239 249.540,1.237 249.909 C 1.231 250.754,2.548 254.890,2.867 255.030 C 2.997 255.087,3.103 255.401,3.103 255.729 C 3.103 256.057,3.382 256.846,3.724 257.483 C 4.065 258.120,4.344 258.818,4.344 259.033 C 4.344 259.249,4.453 259.426,4.587 259.426 C 4.720 259.426,4.994 259.810,5.196 260.279 C 5.590 261.195,6.242 262.277,6.552 262.529 C 6.657 262.614,6.841 262.998,6.961 263.382 C 7.081 263.766,7.309 264.081,7.469 264.081 C 7.628 264.081,7.758 264.283,7.758 264.531 C 7.758 264.778,7.945 265.092,8.173 265.229 C 8.402 265.365,8.716 265.705,8.872 265.983 C 10.007 268.016,16.999 275.058,18.337 275.517 C 18.512 275.577,19.021 275.965,19.467 276.378 C 19.913 276.791,20.592 277.208,20.977 277.305 C 21.362 277.401,21.753 277.677,21.845 277.918 C 21.938 278.158,22.227 278.355,22.488 278.355 C 22.750 278.355,22.964 278.484,22.964 278.641 C 22.964 278.798,23.382 279.019,23.894 279.131 C 24.407 279.244,24.825 279.453,24.825 279.597 C 24.825 279.740,25.244 279.950,25.756 280.062 C 26.268 280.175,26.687 280.393,26.687 280.549 C 26.687 280.704,27.246 280.920,27.929 281.029 C 28.611 281.138,29.170 281.343,29.170 281.484 C 29.170 281.625,29.659 281.832,30.256 281.944 C 30.853 282.057,31.342 282.262,31.342 282.402 C 31.342 282.541,32.110 282.751,33.049 282.868 C 33.988 282.986,34.756 283.194,34.756 283.331 C 34.756 283.469,35.698 283.669,36.850 283.776 C 38.002 283.883,39.187 284.103,39.484 284.266 C 40.169 284.642,360.590 284.672,360.590 284.296 C 360.590 284.150,361.596 283.937,362.826 283.822 C 364.056 283.708,365.138 283.495,365.231 283.350 C 365.324 283.204,366.133 282.985,367.029 282.863 C 367.925 282.741,368.658 282.531,368.658 282.395 C 368.658 282.259,369.141 282.058,369.731 281.947 C 370.321 281.836,371.194 281.542,371.670 281.294 C 372.147 281.045,372.711 280.841,372.925 280.840 C 373.138 280.839,373.313 280.698,373.313 280.528 C 373.313 280.357,373.460 280.217,373.640 280.217 C 374.042 280.217,376.822 278.973,377.036 278.697 C 377.122 278.588,377.541 278.327,377.967 278.119 C 378.809 277.707,379.892 277.052,380.140 276.804 C 380.225 276.718,380.784 276.306,381.381 275.887 C 383.038 274.724,383.058 274.706,386.778 271.063 C 389.977 267.929,393.067 264.200,394.138 262.180 C 396.053 258.566,397.828 254.847,397.828 254.447 C 397.828 254.182,397.959 253.832,398.120 253.670 C 398.281 253.507,398.554 252.816,398.727 252.133 C 398.900 251.451,399.255 250.054,399.516 249.030 C 400.245 246.167,400.239 64.020,399.509 61.443 C 399.243 60.504,398.888 59.178,398.719 58.495 C 398.551 57.812,398.281 57.121,398.120 56.959 C 397.959 56.797,397.828 56.469,397.828 56.230 C 397.828 55.991,397.632 55.356,397.393 54.818 C 395.698 51.009,394.260 48.277,393.561 47.535 C 393.348 47.309,393.173 47.016,393.173 46.883 C 393.173 46.751,392.878 46.307,392.517 45.897 C 392.156 45.487,391.632 44.802,391.353 44.375 C 390.409 42.932,384.414 36.618,383.988 36.618 C 383.873 36.618,383.471 36.285,383.094 35.878 C 382.717 35.471,382.121 35.047,381.768 34.935 C 381.416 34.823,381.050 34.528,380.954 34.278 C 380.858 34.029,380.566 33.825,380.305 33.825 C 380.043 33.825,379.829 33.694,379.829 33.535 C 379.829 33.376,379.515 33.148,379.131 33.028 C 378.747 32.908,378.363 32.724,378.278 32.619 C 377.804 32.036,372.951 29.586,371.745 29.322 C 371.242 29.211,370.830 29.001,370.830 28.854 C 370.830 28.707,370.202 28.493,369.434 28.378 C 368.666 28.263,368.037 28.049,368.037 27.904 C 368.037 27.759,367.339 27.547,366.486 27.434 C 365.632 27.321,364.934 27.119,364.934 26.986 C 364.934 26.852,363.747 26.644,362.296 26.523 C 360.846 26.403,359.659 26.181,359.659 26.030 C 359.659 25.675,40.744 25.667,40.525 26.021 M356.090 36.927 C 359.618 37.193,362.767 37.697,363.848 38.169 C 364.189 38.318,364.818 38.530,365.244 38.640 C 367.329 39.175,373.543 42.301,374.026 43.057 C 374.163 43.270,374.464 43.445,374.695 43.445 C 375.202 43.445,381.229 49.297,382.525 51.047 C 383.575 52.466,386.341 57.009,386.357 57.342 C 386.362 57.464,386.637 58.123,386.967 58.805 C 387.296 59.488,387.571 60.283,387.577 60.571 C 387.583 60.860,387.715 61.175,387.871 61.271 C 388.026 61.367,388.252 62.039,388.371 62.763 C 388.491 63.488,388.705 64.226,388.848 64.403 C 388.990 64.581,389.194 66.047,389.301 67.662 C 389.409 69.276,389.628 70.877,389.788 71.218 C 390.736 73.231,389.817 245.439,388.855 246.077 C 388.722 246.165,388.523 246.812,388.413 247.515 C 388.303 248.218,388.004 249.195,387.747 249.687 C 387.491 250.179,387.280 250.818,387.279 251.107 C 387.278 251.395,387.148 251.711,386.991 251.808 C 386.833 251.906,386.612 252.403,386.500 252.913 C 386.388 253.423,386.168 253.840,386.011 253.840 C 385.854 253.840,385.725 253.996,385.725 254.187 C 385.725 254.528,383.618 258.190,383.247 258.495 C 383.143 258.580,382.720 259.139,382.307 259.736 C 379.248 264.162,370.919 270.260,366.212 271.521 C 365.464 271.721,364.626 272.001,364.350 272.144 C 364.074 272.287,362.661 272.661,361.210 272.975 C 357.042 273.877,42.792 273.865,38.945 272.963 C 35.022 272.043,29.196 269.867,28.549 269.080 C 28.464 268.976,27.905 268.624,27.308 268.298 C 23.568 266.258,18.357 261.035,15.824 256.788 C 15.416 256.106,14.982 255.476,14.859 255.389 C 14.735 255.302,14.538 254.848,14.421 254.380 C 14.303 253.912,14.094 253.530,13.955 253.530 C 13.817 253.530,13.612 253.113,13.500 252.602 C 13.388 252.092,13.167 251.595,13.009 251.498 C 12.852 251.401,12.722 251.085,12.721 250.796 C 12.720 250.508,12.525 249.899,12.287 249.444 C 12.050 248.988,11.755 248.011,11.633 247.271 C 11.511 246.532,11.273 245.756,11.104 245.546 C 10.935 245.336,10.720 243.412,10.628 241.269 C 10.535 239.127,10.341 237.300,10.195 237.210 C 9.850 236.997,9.848 73.322,10.193 73.109 C 10.337 73.020,10.539 71.174,10.642 69.008 C 10.744 66.842,10.958 64.986,11.117 64.885 C 11.276 64.784,11.506 63.968,11.628 63.072 C 11.750 62.176,11.977 61.443,12.132 61.443 C 12.286 61.443,12.413 61.226,12.413 60.960 C 12.413 60.190,14.447 55.715,15.128 54.986 C 15.341 54.758,15.516 54.372,15.516 54.128 C 15.516 53.885,15.656 53.685,15.826 53.685 C 15.997 53.685,16.137 53.497,16.137 53.268 C 16.137 53.038,16.416 52.598,16.757 52.289 C 17.099 51.980,17.378 51.551,17.378 51.335 C 17.378 51.120,17.483 50.897,17.613 50.840 C 17.742 50.784,18.615 49.848,19.552 48.761 C 22.361 45.505,26.382 42.459,30.559 40.424 C 31.758 39.840,32.981 39.234,33.277 39.076 C 33.574 38.919,34.041 38.790,34.317 38.790 C 34.592 38.790,35.257 38.592,35.795 38.350 C 37.175 37.730,40.311 37.172,43.755 36.933 C 48.106 36.631,352.088 36.625,356.090 36.927 M96.600 102.411 C 48.150 150.926,45.146 153.996,45.063 155.087 C 44.976 156.242,45.095 156.365,96.509 207.836 C 124.852 236.210,148.171 259.426,148.328 259.426 C 148.861 259.426,153.607 254.567,153.607 254.021 C 153.607 253.722,153.781 253.536,153.993 253.607 C 154.490 253.772,157.910 250.388,157.730 249.908 C 157.655 249.709,157.913 249.499,158.303 249.443 C 158.760 249.377,159.077 249.065,159.194 248.566 C 159.296 248.133,159.643 247.741,159.983 247.676 C 160.780 247.523,163.467 244.784,163.303 244.292 C 163.233 244.081,163.434 243.910,163.753 243.910 C 164.435 243.910,165.340 242.954,165.162 242.421 C 165.093 242.216,165.277 242.048,165.570 242.048 C 166.249 242.048,173.157 235.092,173.157 234.408 C 173.157 233.806,171.897 232.562,170.995 232.276 C 170.648 232.166,170.365 231.893,170.365 231.669 C 170.365 231.189,168.024 228.704,167.572 228.704 C 167.401 228.704,167.261 228.569,167.261 228.404 C 167.261 228.014,165.159 225.912,164.769 225.912 C 164.604 225.912,164.469 225.779,164.469 225.616 C 164.469 225.233,161.448 222.208,161.257 222.400 C 161.177 222.479,161.020 222.255,160.907 221.901 C 160.795 221.547,160.503 221.257,160.258 221.257 C 160.014 221.257,159.814 221.047,159.814 220.791 C 159.814 220.535,159.604 220.326,159.348 220.326 C 159.092 220.326,158.883 220.126,158.883 219.881 C 158.883 219.637,158.590 219.344,158.232 219.230 C 157.507 219.000,156.400 217.995,156.400 217.567 C 156.400 217.191,153.069 213.830,152.882 214.017 C 152.800 214.099,152.648 213.898,152.544 213.569 C 152.440 213.241,152.008 212.815,151.584 212.622 C 151.161 212.429,150.815 212.144,150.815 211.988 C 150.815 211.529,147.499 208.296,146.801 208.075 C 146.448 207.963,146.160 207.688,146.160 207.464 C 146.160 206.984,143.819 204.500,143.367 204.500 C 143.196 204.500,143.057 204.300,143.057 204.055 C 143.057 203.811,142.743 203.511,142.360 203.389 C 141.549 203.132,140.861 202.306,141.115 201.895 C 141.212 201.739,141.128 201.711,140.930 201.834 C 140.724 201.961,140.482 201.827,140.364 201.519 C 140.250 201.224,139.588 200.455,138.892 199.811 C 137.386 198.418,136.974 198.008,135.822 196.758 C 135.342 196.237,134.749 195.811,134.503 195.811 C 134.258 195.811,134.057 195.612,134.057 195.370 C 134.057 194.815,131.357 192.087,130.808 192.087 C 130.584 192.087,130.319 191.762,130.220 191.364 C 130.120 190.967,129.686 190.481,129.255 190.285 C 128.824 190.089,128.472 189.806,128.472 189.656 C 128.472 189.261,127.006 187.742,126.625 187.742 C 126.446 187.742,126.299 187.533,126.299 187.277 C 126.299 187.021,126.093 186.811,125.841 186.811 C 125.589 186.811,125.135 186.432,124.833 185.968 C 124.039 184.751,121.026 181.846,120.558 181.846 C 120.339 181.846,120.073 181.499,119.967 181.075 C 119.847 180.600,119.478 180.230,119.002 180.111 C 118.578 180.004,118.231 179.723,118.231 179.485 C 118.231 179.248,118.022 179.054,117.766 179.054 C 117.510 179.054,117.300 178.878,117.300 178.663 C 117.300 178.448,117.021 178.097,116.680 177.884 C 116.338 177.671,116.059 177.363,116.059 177.199 C 116.059 176.812,113.956 174.709,113.569 174.709 C 113.405 174.709,113.097 174.430,112.884 174.088 C 112.671 173.747,112.320 173.468,112.105 173.468 C 111.890 173.468,111.715 173.363,111.715 173.235 C 111.715 173.107,166.405 173.038,233.249 173.081 C 322.919 173.139,354.894 173.068,355.204 172.810 C 355.687 172.409,355.781 171.783,355.314 172.071 C 355.109 172.198,355.004 166.483,355.004 155.159 C 355.004 143.835,355.109 138.120,355.314 138.247 C 355.776 138.532,355.689 138.112,355.181 137.604 C 354.799 137.221,338.185 137.161,233.692 137.161 C 162.869 137.161,112.645 137.046,112.645 136.883 C 112.645 136.731,112.864 136.523,113.131 136.420 C 113.397 136.318,113.529 136.093,113.423 135.922 C 113.316 135.750,113.398 135.609,113.604 135.609 C 114.057 135.609,116.246 133.405,116.137 133.060 C 116.094 132.926,116.264 132.816,116.514 132.816 C 117.034 132.816,117.696 131.764,117.376 131.444 C 117.260 131.327,117.404 131.324,117.698 131.437 C 118.066 131.578,118.231 131.487,118.231 131.143 C 118.231 130.868,118.336 130.676,118.464 130.716 C 118.821 130.827,120.093 129.626,120.093 129.179 C 120.093 128.960,120.214 128.817,120.362 128.860 C 120.687 128.954,125.369 124.228,125.369 123.805 C 125.369 123.641,125.578 123.507,125.834 123.507 C 126.090 123.507,126.299 123.297,126.299 123.041 C 126.299 122.785,126.451 122.576,126.637 122.576 C 127.048 122.576,130.334 119.253,130.334 118.838 C 130.334 118.675,130.456 118.542,130.606 118.542 C 131.104 118.542,134.057 115.519,134.057 115.009 C 134.057 114.733,134.247 114.507,134.480 114.507 C 134.945 114.507,140.264 109.363,140.264 108.913 C 140.264 108.759,140.543 108.484,140.884 108.301 C 141.226 108.118,141.505 107.764,141.505 107.514 C 141.505 107.264,141.703 107.060,141.946 107.060 C 142.520 107.060,146.160 103.420,146.160 102.846 C 146.160 102.603,146.358 102.405,146.600 102.405 C 147.113 102.405,150.815 98.794,150.815 98.294 C 150.815 98.109,150.899 98.042,151.002 98.145 C 151.211 98.353,152.676 96.882,152.676 96.464 C 152.676 96.318,152.787 96.234,152.923 96.276 C 153.343 96.408,156.400 93.210,156.400 92.638 C 156.400 92.278,156.560 92.159,156.882 92.283 C 157.160 92.390,157.283 92.337,157.173 92.159 C 157.068 91.989,157.235 91.753,157.544 91.635 C 158.258 91.362,159.407 90.309,159.019 90.283 C 158.859 90.272,159.051 90.134,159.446 89.975 C 159.841 89.817,160.077 89.546,159.971 89.374 C 159.864 89.202,159.998 89.061,160.269 89.061 C 160.539 89.061,160.893 88.712,161.055 88.285 C 161.217 87.859,161.432 87.510,161.531 87.510 C 161.631 87.510,161.610 87.684,161.486 87.898 C 161.361 88.111,162.016 87.524,162.941 86.592 C 163.867 85.661,164.589 84.788,164.546 84.653 C 164.503 84.517,164.629 84.407,164.825 84.407 C 165.264 84.407,167.446 82.194,167.339 81.857 C 167.296 81.723,167.418 81.614,167.608 81.614 C 168.133 81.614,170.365 79.273,170.365 78.723 C 170.365 78.458,170.679 78.143,171.063 78.022 C 172.027 77.717,173.146 76.606,173.152 75.945 C 173.159 75.245,166.276 68.270,165.577 68.270 C 165.289 68.270,165.140 68.129,165.246 67.957 C 165.492 67.559,164.509 66.563,163.869 66.563 C 163.601 66.563,163.382 66.353,163.382 66.097 C 163.382 65.484,160.547 62.578,160.174 62.809 C 159.815 63.031,159.298 62.424,159.144 61.598 C 159.074 61.225,158.782 60.977,158.412 60.977 C 158.072 60.977,157.797 60.768,157.797 60.512 C 157.797 59.861,154.468 56.532,153.995 56.709 C 153.776 56.791,153.607 56.615,153.607 56.304 C 153.607 55.756,148.866 50.892,148.331 50.892 C 148.176 50.892,124.897 74.075,96.600 102.411 " stroke="none" fill="#ffffff" fill-rule="evenodd"></path></g></svg>