<!DOCTYPE svg PUBLIC "-//W3C//DTD SVG 20010904//EN" "http://www.w3.org/TR/2001/REC-SVG-20010904/DTD/svg10.dtd">
<svg version="1.0" xmlns="http://www.w3.org/2000/svg" width="512px" height="512px" viewBox="0 0 5120 5120" preserveAspectRatio="xMidYMid meet">
<g id="layer1" fill="#db3236" stroke="none">
 <path d="M400 4898 c-38 -15 -74 -40 -116 -82 -78 -78 -104 -143 -104 -256 0 -107 25 -172 96 -247 l54 -58 0 -1750 0 -1750 -54 -58 c-70 -74 -97 -142 -97 -247 0 -110 28 -178 105 -256 78 -78 143 -104 256 -104 113 0 178 26 256 104 78 78 104 143 104 256 0 107 -25 172 -96 247 l-54 58 0 1750 0 1750 54 58 c71 75 96 140 96 247 0 113 -26 178 -104 256 -79 79 -143 104 -259 103 -58 0 -98 -6 -137 -21z"/>
 <path d="M3565 3633 c-193 -24 -370 -97 -695 -288 -393 -230 -594 -299 -865 -298 -271 0 -543 92 -884 297 -61 37 -115 64 -121 61 -7 -4 -10 -448 -10 -1311 l0 -1304 88 -58 c127 -83 370 -203 497 -244 152 -50 249 -69 390 -75 288 -12 488 54 925 306 394 227 551 283 795 284 138 1 208 -11 357 -59 202 -65 443 -204 693 -399 60 -46 113 -81 117 -77 4 4 7 597 6 1317 l-3 1310 -150 113 c-320 241 -583 372 -839 417 -81 14 -225 18 -301 8z"/>
 </g>

</svg>