<!DOCTYPE svg PUBLIC "-//W3C//DTD SVG 20010904//EN" "http://www.w3.org/TR/2001/REC-SVG-20010904/DTD/svg10.dtd">
<svg version="1.0" xmlns="http://www.w3.org/2000/svg" width="510px" height="510px" viewBox="0 0 5100 5100" preserveAspectRatio="xMidYMid meet">
<g id="layer1" fill="#a2a1a1" stroke="none">
 <path d="M2260 5094 c-371 -44 -707 -158 -1023 -348 -331 -199 -659 -522 -866 -854 -126 -203 -236 -457 -296 -686 -64 -244 -70 -296 -70 -656 0 -360 6 -412 70 -656 113 -433 337 -817 669 -1150 389 -388 846 -627 1381 -721 146 -26 704 -26 850 0 317 56 616 167 888 331 331 199 659 522 866 854 167 268 292 596 348 917 26 145 26 705 0 850 -93 532 -334 993 -721 1381 -388 387 -848 628 -1376 720 -71 12 -170 17 -390 19 -162 2 -311 1 -330 -1z m530 -1014 l0 -250 -240 0 -240 0 0 250 0 250 240 0 240 0 0 -250z m5 -857 c16 -187 45 -296 107 -401 21 -36 114 -139 249 -277 232 -236 283 -302 342 -446 65 -155 81 -312 52 -482 -68 -384 -347 -693 -730 -806 -495 -145 -1037 142 -1218 646 -28 76 -57 223 -57 286 l0 37 245 0 245 0 4 -22 c2 -13 9 -50 15 -83 27 -147 139 -286 289 -358 l87 -42 125 0 125 0 87 42 c191 92 302 265 301 474 -1 164 -37 244 -177 389 -336 349 -416 444 -473 555 -66 128 -103 295 -103 461 l0 104 239 0 239 0 7 -77z"/>
 </g>

</svg>