<!DOCTYPE svg PUBLIC "-//W3C//DTD SVG 20010904//EN" "http://www.w3.org/TR/2001/REC-SVG-20010904/DTD/svg10.dtd">
<svg version="1.0" xmlns="http://www.w3.org/2000/svg" width="624px" height="317px" viewBox="0 0 6240 3170" preserveAspectRatio="xMidYMid meet">
<g id="layer1" fill="#404040" stroke="none">
 <path d="M697 2225 c-88 -32 -173 -122 -196 -207 -9 -31 -11 -211 -9 -663 l3 -620 23 -47 c30 -60 90 -120 150 -150 l47 -23 2405 0 2405 0 47 23 c60 30 120 90 150 150 l23 47 3 627 c2 610 2 627 -18 681 -27 73 -104 149 -177 177 -53 20 -66 20 -2436 19 -2022 0 -2388 -3 -2420 -14z m3973 -86 c9 -16 18 -19 36 -15 45 12 102 -11 129 -52 27 -41 75 -157 75 -181 0 -9 -68 -189 -150 -400 -88 -225 -147 -388 -142 -393 5 -5 33 -8 62 -6 l53 3 114 305 c63 168 117 311 119 319 2 8 6 12 8 10 2 -2 52 -141 111 -309 59 -168 112 -311 118 -317 14 -18 106 -17 113 1 7 18 -337 933 -377 1004 l-30 54 288 -4 c267 -3 291 -5 333 -24 53 -25 103 -78 121 -131 11 -30 14 -157 14 -628 0 -664 1 -650 -74 -718 -74 -67 115 -62 -2471 -62 -2586 0 -2397 -5 -2471 62 -75 68 -74 54 -74 718 0 643 -1 635 58 701 35 41 73 62 130 74 23 4 909 8 1969 9 l1927 1 11 -21z"/>
 <path d="M2575 1917 c-123 -41 -217 -142 -251 -269 -21 -79 -18 -223 6 -299 63 -205 246 -311 437 -254 66 20 144 89 178 159 26 54 54 218 42 250 -6 14 -38 16 -282 16 l-275 0 0 38 c0 56 25 133 59 179 40 56 103 84 185 84 81 0 129 -13 189 -51 26 -16 49 -30 51 -30 2 0 14 17 26 37 l22 38 -38 32 c-22 18 -64 42 -94 54 -69 26 -200 34 -255 16z m290 -544 c-15 -99 -68 -162 -154 -183 -65 -15 -134 0 -184 41 -40 33 -87 119 -87 161 l0 28 216 0 216 0 -7 -47z"/>
 <path d="M3262 1921 c-89 -23 -159 -107 -169 -204 -7 -72 10 -120 64 -178 73 -78 176 -108 372 -109 l94 0 -7 -71 c-8 -84 -28 -124 -76 -149 -118 -60 -288 -11 -309 90 -6 34 -9 35 -55 38 -27 2 -53 -1 -58 -6 -5 -5 -4 -27 3 -55 15 -62 75 -129 147 -164 52 -25 67 -28 162 -28 90 0 111 4 150 24 58 30 97 66 123 116 21 37 22 60 29 330 4 160 9 306 10 325 3 35 3 35 -43 38 -54 4 -68 -9 -76 -67 l-6 -40 -42 34 c-63 52 -129 78 -210 81 -38 2 -85 -1 -103 -5z m248 -137 c29 -16 66 -47 82 -68 25 -35 28 -48 28 -114 l0 -74 -132 4 c-107 3 -142 8 -178 25 -65 29 -92 63 -98 121 -9 101 44 145 168 139 60 -3 87 -9 130 -33z"/>
 <path d="M4117 1920 c-96 -24 -186 -104 -207 -181 -15 -55 -5 -73 44 -77 42 -4 66 11 66 40 0 38 33 77 84 99 66 28 178 29 233 0 50 -25 63 -41 70 -85 12 -78 -41 -129 -167 -161 -165 -41 -248 -81 -286 -140 -27 -41 -36 -100 -22 -153 16 -65 93 -141 167 -165 68 -22 174 -22 241 0 97 31 189 142 178 214 -3 22 -8 24 -52 24 -52 0 -50 1 -79 -67 -24 -55 -82 -83 -172 -82 -109 0 -175 45 -175 118 0 71 38 99 195 140 126 33 194 66 238 116 76 83 74 190 -4 275 -55 60 -123 87 -229 91 -47 2 -102 -1 -123 -6z"/>
 <path d="M1855 1908 c-3 -7 -4 -193 -3 -413 l3 -400 43 -3 c38 -3 43 0 52 23 6 14 10 38 10 52 0 24 2 23 51 -21 56 -50 98 -66 177 -66 61 0 69 10 56 73 l-9 42 -68 2 c-88 2 -133 25 -172 88 l-30 48 -5 291 -5 291 -48 3 c-32 2 -49 -1 -52 -10z"/>
 <path d="M1015 1898 c-3 -7 -4 -269 -3 -583 l3 -570 55 0 55 0 3 223 2 223 46 -40 c102 -89 263 -96 369 -15 85 65 107 178 103 534 l-3 235 -55 0 -55 0 -5 -295 c-5 -279 -6 -297 -27 -340 -26 -52 -59 -75 -124 -85 -84 -12 -169 25 -221 97 -22 32 -23 39 -28 328 l-5 295 -53 3 c-36 2 -54 -1 -57 -10z"/>
 </g>

</svg>