<!DOCTYPE svg PUBLIC "-//W3C//DTD SVG 20010904//EN" "http://www.w3.org/TR/2001/REC-SVG-20010904/DTD/svg10.dtd">
<svg version="1.0" xmlns="http://www.w3.org/2000/svg" width="548px" height="190px" viewBox="0 0 5480 1900" preserveAspectRatio="xMidYMid meet">
<g id="layer1" fill="#404040" stroke="none">
 <path d="M312 1803 c-64 -22 -154 -110 -186 -182 l-26 -59 2 -629 3 -628 25 -49 c32 -63 93 -124 156 -156 l49 -25 2405 0 2405 0 49 25 c63 32 128 97 158 157 l23 48 3 628 2 629 -26 59 c-34 75 -122 160 -190 183 -43 15 -260 16 -2428 15 -2105 0 -2386 -2 -2424 -16z m3980 -90 c3 -14 14 -18 54 -18 31 0 60 -7 77 -17 29 -20 95 -147 103 -200 4 -26 -26 -114 -145 -418 -83 -211 -149 -390 -147 -397 7 -17 110 -17 124 0 5 6 61 151 125 321 l115 309 19 -52 c10 -29 61 -172 113 -319 l95 -267 58 -3 c45 -2 59 0 63 13 4 8 -68 215 -161 463 -179 479 -210 555 -231 573 -8 6 -14 16 -14 21 0 6 106 9 288 6 l287 -3 54 -31 c42 -23 62 -43 85 -85 l31 -54 3 -573 c3 -587 -1 -675 -35 -700 -9 -6 -18 -19 -19 -28 -3 -21 -17 -35 -36 -38 -8 -1 -23 -9 -32 -19 -10 -9 -29 -20 -44 -24 -35 -10 -4729 -10 -4764 0 -15 4 -34 15 -44 24 -9 10 -24 18 -32 19 -19 3 -33 17 -36 36 -1 8 -9 23 -19 32 -9 10 -20 29 -24 44 -5 15 -8 293 -8 617 0 643 -1 635 58 701 35 41 73 62 130 74 23 4 911 8 1974 9 1832 1 1932 0 1935 -16z"/>
 <path d="M2200 1496 c-64 -17 -110 -48 -173 -116 -72 -78 -98 -144 -105 -271 -8 -160 30 -271 126 -364 68 -67 124 -95 201 -102 142 -13 267 58 323 184 20 46 45 221 35 247 -6 14 -41 16 -282 16 l-275 0 0 38 c0 100 58 205 135 242 83 40 216 27 291 -30 21 -16 44 -30 51 -30 6 0 21 16 32 36 l22 37 -23 25 c-40 42 -97 73 -166 88 -81 17 -132 17 -192 0z m280 -533 c0 -49 -35 -135 -66 -162 -72 -64 -198 -62 -272 3 -37 33 -82 116 -82 154 l0 22 210 0 c190 0 210 -2 210 -17z"/>
 <path d="M2868 1494 c-95 -33 -158 -126 -158 -232 1 -75 25 -128 85 -180 68 -59 145 -81 314 -89 l133 -6 -6 -65 c-9 -83 -27 -117 -77 -142 -120 -62 -287 -12 -308 92 -6 31 -9 33 -55 36 -27 2 -53 -1 -58 -6 -5 -5 -4 -30 2 -60 15 -66 72 -131 148 -169 51 -25 68 -28 157 -28 112 0 161 16 229 75 77 68 80 79 88 405 4 160 9 306 10 325 l3 35 -60 0 -60 0 -8 -47 -9 -46 -46 35 c-26 20 -66 45 -90 55 -61 27 -174 33 -234 12z m262 -140 c29 -16 66 -47 82 -68 25 -35 28 -48 28 -114 l0 -74 -132 4 c-144 5 -190 17 -240 65 -56 53 -43 169 23 205 53 30 167 21 239 -18z"/>
 <path d="M3714 1490 c-112 -36 -217 -177 -185 -247 10 -21 17 -24 53 -21 45 3 45 4 81 89 40 95 273 113 346 26 19 -24 25 -84 11 -117 -17 -42 -75 -73 -193 -104 -122 -32 -201 -70 -238 -115 -97 -119 -22 -301 144 -346 84 -23 193 -16 260 15 83 39 157 138 157 212 0 23 -7 26 -69 29 l-54 3 -3 -33 c-8 -71 -70 -118 -167 -127 -105 -10 -187 42 -187 117 0 71 30 92 185 133 50 14 111 33 137 45 53 22 123 82 142 120 56 111 1 241 -130 305 -79 39 -200 46 -290 16z"/>
 <path d="M625 1478 c-3 -7 -4 -274 -3 -593 l3 -580 48 -3 c78 -5 77 -9 77 235 l0 215 46 -41 c119 -105 312 -92 401 27 59 78 65 116 70 437 6 331 9 318 -74 313 l-48 -3 -5 -305 c-5 -293 -6 -307 -28 -347 -12 -24 -33 -49 -45 -58 -65 -42 -198 -23 -253 37 -62 68 -59 47 -64 372 l-5 301 -58 3 c-40 2 -59 -1 -62 -10z"/>
 <path d="M1465 1478 c-3 -7 -4 -195 -3 -418 l3 -405 50 0 50 0 10 46 10 47 46 -42 c51 -46 102 -66 171 -66 61 0 74 16 62 78 l-9 47 -73 1 c-88 2 -139 30 -174 97 -22 40 -23 55 -28 332 l-5 290 -53 3 c-36 2 -54 -1 -57 -10z"/>
 </g>

</svg>