<!DOCTYPE svg PUBLIC "-//W3C//DTD SVG 20010904//EN" "http://www.w3.org/TR/2001/REC-SVG-20010904/DTD/svg10.dtd">
<svg version="1.0" xmlns="http://www.w3.org/2000/svg" width="512px" height="512px" viewBox="0 0 5120 5120" preserveAspectRatio="xMidYMid meet">
<g id="layer1" fill="#000000" stroke="none">
 <path d="M512 4149 c-61 -24 -139 -96 -173 -160 -21 -38 -24 -58 -24 -149 0 -91 3 -111 23 -148 30 -56 98 -124 154 -154 l43 -23 2025 0 2025 0 44 24 c67 35 136 112 160 176 28 75 28 175 0 250 -28 76 -108 156 -184 184 l-56 21 -1992 -1 c-1974 0 -1992 0 -2045 -20z"/>
 <path d="M512 2869 c-62 -24 -140 -96 -173 -160 -34 -66 -38 -194 -9 -272 30 -79 108 -157 185 -186 l56 -21 2007 2 2007 3 44 24 c67 35 136 112 160 176 28 75 28 175 0 250 -28 76 -108 156 -184 184 l-56 21 -1992 -1 c-1974 0 -1992 0 -2045 -20z"/>
 <path d="M528 1595 c-176 -65 -264 -261 -197 -440 28 -77 108 -156 184 -184 l56 -21 2007 2 2007 3 44 24 c67 35 136 112 160 176 28 75 28 175 0 250 -28 76 -108 156 -184 184 l-56 21 -1992 -1 c-1663 0 -1998 -3 -2029 -14z"/>
 </g>

</svg>