<!DOCTYPE svg PUBLIC "-//W3C//DTD SVG 20010904//EN" "http://www.w3.org/TR/2001/REC-SVG-20010904/DTD/svg10.dtd">
<svg version="1.0" xmlns="http://www.w3.org/2000/svg" width="512px" height="512px" viewBox="0 0 5120 5120" preserveAspectRatio="xMidYMid meet">
<g id="layer1" fill="#000000" stroke="none">
 <path d="M2325 5115 c-5 -2 -66 -9 -135 -14 -406 -34 -903 -253 -1270 -559 -521 -435 -856 -1057 -909 -1687 -14 -166 -14 -424 0 -590 37 -439 208 -870 500 -1261 95 -127 366 -398 493 -493 319 -239 667 -397 1031 -469 279 -56 771 -56 1050 0 468 93 899 321 1253 662 368 356 604 761 722 1241 39 158 50 261 57 545 4 167 1 269 -11 395 -43 456 -232 904 -543 1290 -97 121 -306 326 -423 417 -377 292 -813 472 -1243 513 -133 13 -545 20 -572 10z m505 -86 c832 -85 1587 -613 1955 -1364 178 -364 256 -700 256 -1105 0 -281 -33 -499 -113 -749 -126 -394 -318 -711 -608 -1002 -276 -277 -576 -467 -942 -594 -1046 -366 -2220 13 -2853 920 -591 848 -598 1976 -17 2825 103 150 166 226 301 360 291 290 608 482 1003 608 325 104 662 137 1018 101z"/>
 <path d="M2307 4294 c-4 -4 -7 -335 -7 -736 l0 -728 -732 -2 -733 -3 0 -260 0 -260 732 -3 733 -2 2 -733 3 -732 255 0 255 0 3 732 2 733 733 2 732 3 0 260 0 260 -732 3 -733 2 -2 733 -3 732 -251 3 c-138 1 -253 -1 -257 -4z"/>
 </g>

</svg>