<!DOCTYPE svg PUBLIC "-//W3C//DTD SVG 20010904//EN" "http://www.w3.org/TR/2001/REC-SVG-20010904/DTD/svg10.dtd">
<svg version="1.0" xmlns="http://www.w3.org/2000/svg" width="512px" height="512px" viewBox="0 0 5120 5120" preserveAspectRatio="xMidYMid meet">
<g id="layer1" fill="#737373" stroke="none">
 <path d="M2325 5115 c-5 -2 -66 -9 -135 -14 -406 -34 -903 -253 -1270 -559 -521 -435 -856 -1057 -909 -1687 -14 -166 -14 -424 0 -590 37 -439 208 -870 500 -1261 95 -127 366 -398 493 -493 319 -239 667 -397 1031 -469 279 -56 771 -56 1050 0 468 93 899 321 1253 662 368 356 604 761 722 1241 39 158 50 261 57 545 4 167 1 269 -11 395 -43 456 -232 904 -543 1290 -97 121 -306 326 -423 417 -377 292 -813 472 -1243 513 -133 13 -545 20 -572 10z m595 -90 c262 -40 506 -117 745 -235 500 -247 878 -625 1125 -1125 163 -329 243 -646 257 -1015 22 -598 -169 -1178 -547 -1655 -81 -103 -272 -293 -375 -375 -861 -683 -2046 -733 -2955 -125 -221 148 -393 306 -557 511 -669 842 -724 2022 -135 2920 110 168 186 260 331 404 198 196 400 340 656 465 269 132 555 214 855 245 123 13 477 4 600 -15z"/>
 <path d="M2153 4350 c-39 -24 -42 -32 -84 -311 l-32 -215 -91 -48 c-50 -27 -117 -67 -150 -88 l-59 -40 -231 91 c-240 94 -287 105 -324 74 -28 -25 -392 -663 -392 -688 0 -39 37 -76 222 -225 185 -149 187 -151 181 -183 -9 -46 -9 -170 0 -254 l8 -71 -168 -128 c-92 -70 -185 -143 -205 -163 -71 -66 -72 -62 122 -403 184 -322 209 -361 242 -379 41 -22 88 -10 305 81 l220 91 99 -64 c76 -50 183 -110 201 -112 0 0 18 -112 38 -250 26 -173 43 -256 54 -269 39 -45 49 -46 450 -46 l379 0 31 26 c21 18 31 35 31 54 0 27 68 483 73 485 1 1 43 23 92 50 50 27 116 66 148 87 l58 40 227 -90 c275 -110 263 -106 304 -89 29 12 56 53 222 343 199 346 210 371 171 415 -11 11 -100 86 -198 165 l-178 144 -2 186 -2 186 195 136 c107 74 205 144 218 155 45 42 36 65 -169 423 -105 184 -200 341 -212 349 -12 8 -35 15 -52 15 -17 0 -132 -40 -255 -90 -123 -49 -228 -90 -232 -90 -4 0 -29 15 -56 34 -26 19 -92 59 -147 88 l-99 53 -36 235 c-20 129 -41 245 -48 257 -28 51 -42 53 -454 53 -362 0 -385 -1 -415 -20z m590 -1189 c101 -35 180 -84 247 -151 76 -77 121 -149 157 -252 36 -101 38 -271 4 -368 -52 -148 -129 -252 -248 -334 -191 -130 -449 -142 -653 -29 -94 52 -206 169 -253 264 -179 363 25 793 418 885 84 19 252 12 328 -15z"/>
 </g>
<g id="layer2" fill="#ffffff" stroke="none">
 <path d="M2320 5060 c-300 -31 -586 -113 -855 -245 -261 -127 -459 -269 -666 -475 -155 -154 -229 -244 -341 -414 -541 -825 -543 -1893 -5 -2725 275 -426 695 -774 1162 -965 760 -310 1627 -226 2311 222 166 109 259 185 405 331 210 210 358 417 485 676 341 699 339 1502 -6 2200 -249 503 -642 896 -1145 1145 -239 118 -483 195 -745 235 -123 19 -477 28 -600 15z m654 -721 c13 -7 29 -23 35 -38 5 -14 24 -120 41 -236 17 -115 33 -220 35 -232 4 -17 29 -35 93 -67 48 -24 118 -64 156 -90 38 -25 72 -46 75 -46 4 0 108 41 231 90 212 85 257 98 294 84 9 -3 101 -156 206 -339 149 -261 190 -340 190 -368 0 -35 -3 -38 -218 -187 l-218 -152 2 -191 3 -191 191 -155 c109 -87 196 -165 201 -179 5 -14 6 -35 2 -48 -4 -12 -89 -165 -188 -338 -156 -273 -184 -317 -210 -326 -38 -13 -43 -11 -307 95 l-217 87 -58 -40 c-32 -21 -102 -63 -155 -91 -54 -29 -100 -56 -103 -61 -7 -11 -75 -456 -75 -490 0 -59 -5 -60 -425 -60 -352 0 -382 1 -410 19 l-31 18 -38 254 c-21 140 -40 257 -42 261 -2 4 -29 18 -60 32 -31 14 -101 55 -156 92 l-101 65 -220 -91 c-224 -94 -268 -105 -310 -77 -12 8 -105 159 -206 336 -163 286 -182 326 -177 355 8 40 21 53 231 211 94 70 174 131 178 136 5 4 4 56 -3 115 -8 76 -9 130 -2 179 9 62 8 72 -9 90 -10 11 -97 83 -193 160 -167 134 -196 164 -196 203 0 20 366 663 384 674 30 20 94 3 313 -83 l231 -91 33 23 c18 13 89 56 158 94 l126 70 36 230 c43 279 43 279 71 293 33 15 778 16 812 1z"/>
 <path d="M2415 3196 c-287 -67 -506 -340 -505 -630 1 -166 62 -308 190 -437 146 -148 286 -205 480 -197 129 6 224 36 323 104 127 87 216 205 268 354 34 97 32 267 -4 368 -70 200 -223 352 -424 423 -76 27 -244 34 -328 15z"/>
 </g>

</svg>