<!DOCTYPE svg PUBLIC "-//W3C//DTD SVG 20010904//EN" "http://www.w3.org/TR/2001/REC-SVG-20010904/DTD/svg10.dtd">
<svg version="1.0" xmlns="http://www.w3.org/2000/svg" width="512px" height="512px" viewBox="0 0 5120 5120" preserveAspectRatio="xMidYMid meet">
<g id="layer1" fill="#7f7f7f" stroke="none">
 <path d="M2325 5115 c-5 -2 -66 -9 -135 -14 -406 -34 -903 -253 -1270 -559 -521 -435 -856 -1057 -909 -1687 -14 -166 -14 -424 0 -590 37 -439 208 -870 500 -1261 95 -127 366 -398 493 -493 319 -239 667 -397 1031 -469 279 -56 771 -56 1050 0 468 93 899 321 1253 662 368 356 604 761 722 1241 39 158 50 261 57 545 4 167 1 269 -11 395 -43 456 -232 904 -543 1290 -97 121 -306 326 -423 417 -377 292 -813 472 -1243 513 -133 13 -545 20 -572 10z m588 -90 c348 -55 706 -185 967 -351 316 -201 593 -478 794 -794 172 -270 303 -638 357 -1005 18 -116 18 -521 1 -630 -68 -429 -187 -745 -403 -1068 -315 -472 -768 -815 -1306 -987 -256 -82 -469 -114 -763 -114 -372 0 -660 58 -986 199 -589 254 -1045 710 -1299 1299 -141 326 -199 614 -199 986 0 239 12 350 59 560 120 535 438 1043 865 1383 387 308 841 488 1365 541 86 9 454 -4 548 -19z"/>
 </g>
<g id="layer2" fill="#c8a3d7" stroke="none">
 <path d="M1230 4031 c-84 -26 -168 -98 -211 -181 l-24 -45 0 -935 0 -935 27 -50 c35 -66 100 -128 168 -159 l55 -26 343 0 342 0 0 -153 0 -152 158 -158 157 -157 315 0 315 0 158 158 157 157 0 153 0 152 343 0 342 0 55 26 c68 31 133 93 168 159 l27 50 0 935 0 935 -27 50 c-32 60 -97 124 -158 156 l-45 24 -1320 2 c-726 1 -1331 -2 -1345 -6z m2110 -1561 c0 -3 -46 -51 -103 -108 l-102 -102 -400 400 c-220 220 -404 400 -410 400 -6 0 -82 -72 -170 -160 l-160 -160 -102 102 -103 103 267 267 266 266 509 -501 c279 -276 508 -504 508 -507z m-480 -915 l0 -145 -300 0 -300 0 0 145 0 145 300 0 300 0 0 -145z"/>
 </g>
<g id="layer3" fill="#ffffff" stroke="none">
 <path d="M2365 5064 c-276 -28 -520 -86 -750 -181 -754 -308 -1324 -978 -1500 -1763 -47 -210 -59 -321 -59 -560 0 -372 58 -660 199 -986 130 -303 296 -546 535 -784 396 -397 859 -629 1430 -716 84 -13 175 -18 340 -18 239 0 350 12 560 59 785 176 1455 746 1763 1500 79 192 130 381 169 630 17 109 17 514 -1 630 -54 367 -185 735 -357 1005 -203 319 -495 611 -814 814 -261 166 -619 296 -967 351 -94 15 -462 28 -548 19z m1575 -1073 c61 -32 107 -76 138 -136 l27 -50 0 -935 0 -935 -27 -50 c-34 -65 -80 -108 -148 -139 l-55 -26 -340 0 c-252 0 -344 -3 -353 -12 -8 -8 -12 -59 -12 -162 l0 -151 -147 -147 -148 -148 -315 0 -315 0 -148 148 -147 147 0 151 c0 103 -4 154 -12 162 -9 9 -101 12 -353 12 l-340 0 -55 26 c-68 31 -114 74 -148 139 l-27 50 0 935 0 935 24 45 c41 79 108 135 191 161 14 4 619 7 1345 6 l1320 -2 45 -24z"/>
 <path d="M2047 3222 l-277 -277 113 -113 112 -112 160 160 c88 88 164 160 170 160 6 0 190 -180 410 -400 l400 -400 112 112 c62 62 113 115 113 118 0 4 -233 236 -518 517 l-519 511 -276 -276z"/>
 <path d="M2244 1707 c-2 -7 -3 -80 -2 -162 l3 -150 315 0 315 0 0 160 0 160 -313 3 c-250 2 -314 0 -318 -11z"/>
 </g>

</svg>