<!DOCTYPE svg PUBLIC "-//W3C//DTD SVG 20010904//EN" "http://www.w3.org/TR/2001/REC-SVG-20010904/DTD/svg10.dtd">
<svg version="1.0" xmlns="http://www.w3.org/2000/svg" width="512px" height="512px" viewBox="0 0 5120 5120" preserveAspectRatio="xMidYMid meet">
<g id="layer1" fill="#7f7f7f" stroke="none">
 <path d="M2325 5115 c-5 -2 -66 -9 -135 -14 -406 -34 -903 -253 -1270 -559 -521 -435 -856 -1057 -909 -1687 -14 -166 -14 -424 0 -590 37 -439 208 -870 500 -1261 95 -127 366 -398 493 -493 319 -239 667 -397 1031 -469 279 -56 771 -56 1050 0 468 93 899 321 1253 662 368 356 604 761 722 1241 39 158 50 261 57 545 4 167 1 269 -11 395 -43 456 -232 904 -543 1290 -97 121 -306 326 -423 417 -377 292 -813 472 -1243 513 -133 13 -545 20 -572 10z m588 -90 c348 -55 706 -185 967 -351 316 -201 593 -478 794 -794 172 -270 303 -638 357 -1005 18 -116 18 -521 1 -630 -68 -429 -187 -745 -403 -1068 -315 -472 -768 -815 -1306 -987 -256 -82 -469 -114 -763 -114 -372 0 -660 58 -986 199 -589 254 -1045 710 -1299 1299 -141 326 -199 614 -199 986 0 239 12 350 59 560 120 535 438 1043 865 1383 387 308 841 488 1365 541 86 9 454 -4 548 -19z"/>
 </g>
<g id="layer2" fill="#3498db" stroke="none">
 <path d="M2367 4270 c-401 -51 -746 -218 -1027 -500 -264 -263 -425 -578 -492 -960 -17 -98 -17 -412 0 -510 67 -382 228 -697 492 -960 263 -264 578 -425 960 -492 98 -17 412 -17 510 0 382 67 697 228 960 492 264 263 425 578 492 960 17 98 17 412 0 510 -67 382 -228 697 -492 960 -258 258 -566 419 -930 486 -100 18 -376 26 -473 14z m428 -515 c287 -62 547 -219 717 -434 59 -74 60 -76 54 -124 -21 -184 -297 -355 -716 -444 -107 -23 -149 -27 -295 -27 -146 0 -188 4 -295 27 -419 89 -695 260 -716 444 -6 48 -5 50 54 124 172 217 443 380 720 434 42 8 91 16 107 19 58 9 301 -3 370 -19z m-93 -1404 c131 -36 239 -124 300 -244 97 -194 66 -431 -78 -586 -93 -100 -217 -152 -369 -152 -152 0 -276 52 -369 152 -252 272 -132 730 217 830 84 24 214 24 299 0z"/>
 </g>
<g id="layer3" fill="#ffffff" stroke="none">
 <path d="M2365 5064 c-276 -28 -520 -86 -750 -181 -754 -308 -1324 -978 -1500 -1763 -47 -210 -59 -321 -59 -560 0 -372 58 -660 199 -986 130 -303 296 -546 535 -784 396 -397 859 -629 1430 -716 84 -13 175 -18 340 -18 239 0 350 12 560 59 785 176 1455 746 1763 1500 79 192 130 381 169 630 17 109 17 514 -1 630 -54 367 -185 735 -357 1005 -203 319 -495 611 -814 814 -261 166 -619 296 -967 351 -94 15 -462 28 -548 19z m475 -828 c143 -27 240 -55 370 -109 553 -231 925 -706 1032 -1317 17 -98 17 -412 0 -510 -66 -376 -229 -697 -482 -950 -253 -253 -574 -416 -950 -482 -98 -17 -412 -17 -510 0 -376 66 -697 229 -950 482 -253 253 -416 574 -482 950 -17 98 -17 412 0 510 66 376 229 697 482 950 271 271 621 440 1017 490 97 12 373 4 473 -14z"/>
 <path d="M2425 3794 c-88 -13 -193 -37 -262 -60 -220 -74 -439 -228 -586 -414 -58 -73 -59 -75 -54 -123 7 -56 33 -102 97 -171 118 -127 342 -230 640 -293 107 -23 149 -27 295 -27 146 0 188 4 295 27 298 63 522 166 640 293 64 69 90 115 97 171 5 48 4 50 -54 123 -182 230 -445 392 -738 455 -69 16 -312 28 -370 19z"/>
 <path d="M2403 2371 c-175 -50 -320 -208 -359 -390 -37 -176 9 -340 132 -471 105 -111 223 -161 379 -161 156 0 274 50 379 161 70 74 108 145 131 242 63 267 -101 547 -363 619 -85 24 -215 24 -299 0z"/>
 </g>

</svg>