<!DOCTYPE svg PUBLIC "-//W3C//DTD SVG 20010904//EN" "http://www.w3.org/TR/2001/REC-SVG-20010904/DTD/svg10.dtd">
<svg version="1.0" xmlns="http://www.w3.org/2000/svg" width="524px" height="524px" viewBox="0 0 5240 5240" preserveAspectRatio="xMidYMid meet">
<g id="layer1" fill="#ff5c5c" stroke="none">
 <path d="M2414 4609 c-7 -12 7 -16 53 -15 24 1 43 6 43 11 0 12 -89 15 -96 4z"/>
 <path d="M2565 4610 c-3 -5 0 -13 8 -16 23 -8 102 0 102 11 0 14 -102 19 -110 5z"/>
 <path d="M2735 4610 c-3 -5 0 -13 7 -15 22 -9 87 -1 90 10 4 13 -89 19 -97 5z"/>
 <path d="M2335 4600 c-8 -13 20 -24 41 -16 20 8 9 26 -16 26 -10 0 -22 -5 -25 -10z"/>
 <path d="M2855 4600 c-8 -13 6 -18 40 -15 17 1 36 -2 42 -8 7 -5 19 -7 28 -4 8 4 17 2 20 -3 4 -7 60 -20 105 -25 9 0 21 -4 28 -9 6 -4 16 -5 21 -1 5 3 13 0 16 -6 4 -5 13 -8 21 -5 7 3 16 1 19 -4 3 -5 29 -16 58 -25 175 -58 394 -172 541 -283 49 -37 97 -73 107 -80 9 -7 20 -9 23 -4 13 21 -222 185 -394 275 -96 50 -273 123 -317 130 -10 1 -24 6 -31 11 -7 4 -16 5 -19 2 -3 -3 -12 -1 -19 4 -6 6 -16 10 -20 9 -5 -1 -22 3 -37 9 -16 7 -45 14 -65 16 -21 2 -44 7 -53 10 -9 4 -20 6 -25 5 -5 -1 -11 0 -14 1 -17 7 -71 7 -75 0z"/>
 <path d="M2276 4591 c-3 -5 -15 -7 -25 -4 -10 3 -22 0 -25 -6 -4 -5 -13 -8 -21 -4 -9 3 -21 0 -29 -6 -7 -6 -16 -8 -19 -5 -3 3 -11 2 -18 -2 -7 -4 -22 -9 -34 -10 -11 -1 -33 -8 -50 -15 -16 -7 -33 -12 -36 -11 -16 3 -182 -64 -280 -112 -168 -84 -304 -177 -463 -319 -27 -24 -45 -46 -40 -50 5 -3 48 28 94 69 160 141 360 262 565 342 55 21 109 43 120 47 11 4 29 9 40 10 11 2 34 9 50 16 17 7 35 11 42 10 6 -1 14 3 18 8 3 6 12 8 20 4 9 -3 21 0 29 6 7 6 16 8 19 5 3 -4 14 -3 24 1 10 5 23 9 28 9 14 1 19 20 7 24 -6 2 -13 -1 -16 -7z"/>
 <path d="M2527 4434 c-6 -7 -77 -13 -146 -14 -12 0 -27 -3 -33 -6 -5 -3 -30 -7 -55 -9 -25 -2 -50 -8 -55 -13 -6 -6 -16 -8 -22 -6 -7 3 -26 -1 -42 -7 -16 -7 -33 -11 -37 -10 -18 4 -197 -64 -302 -113 -199 -95 -365 -215 -522 -379 -113 -119 -172 -195 -249 -324 -56 -93 -148 -292 -157 -339 -2 -10 -10 -32 -16 -49 -7 -16 -14 -39 -15 -50 -1 -12 -6 -26 -10 -33 -4 -7 -4 -17 -1 -22 8 -13 26 -3 24 13 -1 7 3 26 10 42 7 17 14 39 15 50 2 11 8 31 14 45 6 14 28 66 48 115 124 310 372 608 659 794 101 65 285 154 395 191 52 17 102 34 110 37 8 3 26 7 39 9 13 2 31 6 40 10 9 3 34 8 56 10 22 2 47 7 55 10 16 6 84 14 135 15 17 1 37 3 45 6 8 4 20 7 25 7 13 1 19 20 8 23 -5 2 -12 0 -16 -3z"/>
 <path d="M2735 4420 c-8 -13 6 -17 48 -16 20 0 38 6 40 11 2 12 -81 16 -88 5z"/>
 <path d="M2844 4409 c-6 -11 -6 -11 26 -14 14 -1 32 -5 41 -9 8 -4 33 -8 55 -10 21 -2 47 -7 57 -11 10 -4 21 -5 24 -1 3 3 12 1 20 -6 7 -6 16 -8 20 -5 3 4 11 3 17 -2 10 -7 99 -39 129 -45 12 -3 49 -19 154 -66 92 -42 238 -130 320 -193 40 -31 75 -52 78 -47 7 11 -72 75 -183 147 -89 59 -330 178 -339 169 -4 -3 -12 -1 -18 4 -18 15 -126 51 -135 45 -5 -3 -12 0 -15 6 -4 5 -13 8 -21 5 -7 -3 -16 0 -20 5 -3 6 -15 9 -25 6 -10 -3 -22 -1 -25 5 -3 5 -12 7 -20 4 -7 -3 -16 -1 -20 5 -3 6 -18 10 -32 9 -15 -1 -29 -1 -32 0 -15 7 -51 6 -56 -1z"/>
 <path d="M3938 4114 c-3 -5 52 -69 122 -142 71 -73 131 -128 134 -123 4 5 -52 69 -122 142 -71 73 -131 129 -134 123z"/>
 <path d="M1104 3920 c-139 -160 -243 -325 -325 -517 -54 -125 -123 -348 -115 -370 3 -7 1 -15 -5 -19 -5 -3 -9 -13 -8 -22 1 -10 -1 -25 -6 -34 -9 -22 1 -51 16 -43 5 4 9 17 8 28 -1 12 1 29 5 38 4 9 6 20 5 25 -1 5 1 16 4 24 3 8 17 59 32 112 79 298 217 549 445 810 22 25 37 49 32 52 -5 3 -45 -35 -88 -84z"/>
 <path d="M3796 3992 c-3 -5 8 -21 23 -36 16 -15 31 -23 35 -18 3 5 -8 21 -23 36 -16 15 -31 23 -35 18z"/>
 <path d="M3866 3931 c-10 -15 50 -75 65 -65 8 5 5 12 -9 23 -12 9 -28 25 -35 35 -10 13 -16 16 -21 7z"/>
 <path d="M2585 3860 c-7 -12 5 -17 40 -16 17 1 29 5 28 11 -3 12 -61 16 -68 5z"/>
 <path d="M2508 3840 c-42 -23 -79 -65 -75 -89 2 -14 17 -29 17 -16 -1 25 38 70 76 86 24 11 42 24 39 30 -8 12 -14 11 -57 -11z"/>
 <path d="M2676 3851 c-4 -5 14 -19 38 -30 52 -23 79 -66 80 -126 1 -22 6 -42 11 -45 13 -6 16 78 4 86 -5 3 -7 9 -4 14 9 15 -12 47 -48 73 -39 30 -73 41 -81 28z"/>
 <path d="M3947 3844 c-3 -3 21 -37 53 -75 83 -99 162 -222 227 -352 31 -61 58 -116 59 -122 3 -13 63 -195 71 -215 3 -8 5 -22 4 -32 -1 -9 3 -19 8 -22 6 -4 8 -13 5 -20 -3 -8 -1 -17 5 -20 6 -4 8 -13 4 -21 -3 -8 -2 -23 2 -32 4 -10 9 -34 10 -53 2 -19 6 -57 9 -85 4 -27 7 -70 9 -95 3 -68 22 -55 20 15 -2 100 -6 136 -14 141 -5 2 -6 11 -2 19 3 8 2 23 -2 33 -5 9 -7 27 -6 39 1 11 -2 24 -8 27 -6 4 -8 13 -5 20 3 8 1 17 -5 20 -6 4 -8 13 -4 21 3 9 0 21 -6 29 -6 7 -9 15 -6 18 6 6 -28 121 -55 184 -11 24 -20 46 -20 49 -1 16 -58 131 -102 209 -82 142 -234 337 -251 320z"/>
 <path d="M4198 3835 c-3 -3 28 -56 69 -118 85 -128 165 -287 218 -432 20 -55 39 -107 42 -115 3 -8 7 -19 8 -25 1 -5 3 -12 4 -15 1 -3 4 -18 6 -35 2 -16 9 -51 15 -76 6 -26 13 -55 15 -65 2 -11 4 -21 5 -24 1 -3 3 -13 4 -22 0 -10 6 -18 11 -18 12 0 15 49 3 56 -4 3 -6 9 -3 14 6 10 -23 141 -36 156 -5 6 -6 14 -3 17 3 3 2 11 -2 18 -4 7 -9 23 -10 34 -4 40 -77 221 -132 329 -53 105 -180 307 -200 320 -5 3 -11 3 -14 1z"/>
 <path d="M2426 3703 c-10 -10 -7 -91 3 -98 5 -3 8 -17 5 -30 -5 -29 22 -89 36 -80 7 4 7 13 1 24 -6 10 -12 31 -15 47 -2 16 -5 31 -6 34 -1 3 -1 26 0 51 1 44 -9 67 -24 52z"/>
 <path d="M2794 3615 c-4 -8 -4 -27 -1 -41 3 -15 -4 -37 -17 -57 -20 -29 -45 -42 -125 -64 -11 -3 -11 -7 -3 -15 8 -8 21 -8 50 0 75 23 116 72 121 143 2 39 -15 62 -25 34z"/>
 <path d="M2485 3480 c-8 -13 39 -42 72 -44 37 -1 42 17 6 25 -15 3 -38 11 -50 17 -13 8 -24 8 -28 2z"/>
 <path d="M2586 3231 c-10 -16 18 -24 62 -19 58 8 98 -18 93 -59 -1 -6 3 -14 8 -17 5 -3 7 -15 4 -25 -3 -10 0 -22 6 -26 15 -8 26 22 14 38 -5 6 -8 24 -7 38 4 44 -33 70 -109 76 -42 3 -67 1 -71 -6z"/>
 <path d="M2497 3208 c-16 -16 -23 -35 -22 -60 0 -43 19 -52 21 -10 2 49 4 52 30 62 14 6 22 14 19 20 -10 16 -24 12 -48 -12z"/>
 <path d="M2464 3056 c-8 -21 3 -49 16 -41 5 3 10 15 10 25 0 25 -18 36 -26 16z"/>
 <path d="M2755 3047 c-9 -22 -2 -62 10 -60 6 1 11 14 13 29 4 32 -14 56 -23 31z"/>
 <path d="M856 3031 c-4 -6 -5 -15 -1 -20 3 -5 0 -13 -6 -16 -5 -4 -8 -13 -5 -21 3 -7 1 -16 -3 -19 -5 -3 -8 -19 -7 -36 1 -16 -1 -32 -6 -35 -5 -3 -8 -17 -8 -32 0 -15 -1 -49 -2 -77 -2 -27 2 -51 7 -52 6 -2 11 16 12 40 4 69 10 121 17 137 3 8 4 24 2 35 -2 11 1 26 7 33 5 7 7 15 4 19 -4 3 -2 12 5 20 8 10 8 17 1 24 -8 8 -13 7 -17 0z"/>
 <path d="M2465 2958 c-9 -24 -2 -93 10 -93 14 0 19 85 6 98 -7 7 -12 5 -16 -5z"/>
 <path d="M2755 2948 c-9 -24 -2 -93 10 -93 14 0 19 85 6 98 -7 7 -12 5 -16 -5z"/>
 <path d="M638 2893 c-8 -14 -3 -38 7 -41 12 -3 16 36 4 43 -4 3 -9 2 -11 -2z"/>
 <path d="M4597 2863 c-8 -16 -2 -123 8 -125 12 -3 16 120 4 128 -4 2 -9 1 -12 -3z"/>
 <path d="M627 2813 c-9 -15 -2 -103 8 -103 12 0 16 98 5 105 -5 3 -11 2 -13 -2z"/>
 <path d="M2465 2808 c-9 -24 -1 -103 10 -103 14 0 19 95 6 108 -7 7 -12 5 -16 -5z"/>
 <path d="M2765 2698 c-9 -23 -2 -83 10 -83 14 0 19 75 6 88 -7 7 -12 5 -16 -5z"/>
 <path d="M4415 2600 c-3 -5 -6 -31 -5 -57 1 -27 -1 -70 -5 -98 -3 -27 -7 -66 -9 -85 -2 -19 -7 -43 -11 -52 -4 -10 -5 -24 -2 -32 3 -7 1 -18 -4 -23 -5 -5 -11 -25 -13 -45 -2 -19 -5 -39 -8 -44 -3 -5 -13 -36 -23 -69 -42 -148 -145 -363 -240 -498 -25 -36 -41 -68 -36 -71 18 -12 151 196 212 331 42 92 99 249 102 282 2 15 7 32 11 39 4 6 8 26 10 44 2 18 7 41 11 51 4 9 5 24 2 32 -4 8 -2 17 4 20 5 4 7 17 5 30 -2 13 -1 26 2 30 4 4 8 21 9 38 1 18 5 64 8 103 4 45 3 74 -3 78 -6 4 -13 2 -17 -4z"/>
 <path d="M2765 2568 c-9 -24 -1 -143 10 -143 13 0 19 135 6 148 -7 7 -12 5 -16 -5z"/>
 <path d="M624 2527 c-8 -22 0 -97 11 -100 14 -3 19 99 5 108 -5 3 -13 0 -16 -8z"/>
 <path d="M816 2512 c-8 -13 0 -97 9 -95 12 4 16 91 5 98 -5 3 -11 2 -14 -3z"/>
 <path d="M2455 2508 c-9 -24 -1 -103 10 -103 14 0 19 95 6 108 -7 7 -12 5 -16 -5z"/>
 <path d="M4596 2508 c-8 -25 -1 -113 9 -116 13 -3 16 116 4 124 -5 3 -11 -1 -13 -8z"/>
 <path d="M635 2388 c-6 -16 -2 -55 7 -64 4 -3 4 -12 1 -20 -3 -8 0 -20 6 -28 6 -7 8 -15 6 -18 -8 -8 25 -147 36 -154 5 -3 7 -9 4 -14 -3 -5 0 -21 7 -37 6 -15 10 -31 10 -36 -4 -16 74 -199 135 -317 70 -137 168 -284 184 -275 5 4 -11 34 -35 68 -66 93 -160 266 -205 381 -22 55 -46 115 -52 131 -7 17 -12 33 -11 37 1 4 -3 20 -10 35 -6 15 -12 35 -13 43 -8 55 -29 141 -35 145 -5 3 -6 14 -3 24 3 10 0 21 -5 25 -5 3 -8 21 -5 40 4 34 -12 60 -22 34z"/>
 <path d="M824 2386 c-3 -9 -3 -24 2 -33 4 -10 8 -30 8 -45 1 -14 4 -29 8 -33 4 -4 4 -13 2 -20 -3 -7 -1 -16 5 -19 6 -4 8 -13 5 -20 -3 -8 -1 -17 5 -20 6 -4 8 -13 5 -20 -6 -16 53 -203 67 -211 5 -4 7 -10 5 -14 -14 -21 150 -314 236 -424 45 -57 53 -33 9 26 -61 81 -134 203 -186 312 -27 55 -49 105 -50 110 -1 10 -52 176 -63 205 -3 8 -4 19 -3 24 1 4 -3 14 -9 20 -5 7 -7 16 -4 19 3 3 2 12 -2 19 -5 7 -9 25 -10 41 -1 15 -3 30 -4 35 -1 4 -1 17 -1 29 3 26 -17 40 -25 19z"/>
 <path d="M2455 2358 c-10 -25 -1 -173 10 -171 13 4 19 163 6 176 -7 7 -12 5 -16 -5z"/>
 <path d="M4584 2356 c-3 -9 -4 -22 -1 -30 3 -8 3 -17 -1 -21 -4 -4 -8 -19 -8 -33 -1 -15 -3 -29 -4 -32 -2 -3 -4 -9 -5 -15 -1 -5 -4 -17 -7 -25 -3 -8 -18 -60 -33 -115 -35 -128 -94 -277 -152 -385 -59 -110 -160 -262 -212 -322 -23 -26 -37 -49 -32 -52 5 -3 28 15 51 41 99 112 233 340 305 517 45 113 98 294 91 312 -3 7 -1 16 5 20 6 3 8 12 5 20 -3 7 -1 16 5 19 5 4 7 17 5 30 -3 14 0 27 5 30 12 8 12 42 -1 50 -6 3 -13 -1 -16 -9z"/>
 <path d="M2765 2337 c-9 -22 -2 -62 10 -60 6 1 11 14 13 29 4 32 -14 56 -23 31z"/>
 <path d="M2775 2198 c-9 -22 -2 -68 10 -71 14 -3 19 63 6 76 -7 7 -12 5 -16 -5z"/>
 <path d="M2455 2087 c-9 -22 -2 -62 10 -60 6 1 11 14 13 29 4 32 -14 56 -23 31z"/>
 <path d="M2775 2028 c-10 -24 -1 -123 10 -121 14 4 19 113 6 126 -7 7 -12 5 -16 -5z"/>
 <path d="M2445 1948 c-9 -22 -2 -68 10 -71 14 -3 19 63 6 76 -7 7 -12 5 -16 -5z"/>
 <path d="M2775 1828 c-9 -24 -1 -128 10 -131 13 -3 19 123 6 136 -7 7 -12 5 -16 -5z"/>
 <path d="M2445 1778 c-9 -24 -1 -128 10 -131 13 -3 19 123 6 136 -7 7 -12 5 -16 -5z"/>
 <path d="M2785 1600 c-4 -6 -3 -16 3 -22 6 -6 12 -6 17 2 4 6 3 16 -3 22 -6 6 -12 6 -17 -2z"/>
 <path d="M2447 1574 c-4 -4 -7 -38 -7 -75 0 -64 1 -68 35 -98 36 -31 59 -39 69 -22 4 5 -11 18 -31 28 -38 18 -38 18 -41 88 -3 68 -11 93 -25 79z"/>
 <path d="M3888 1358 c-86 -87 -152 -160 -148 -163 10 -6 220 193 280 265 84 101 19 50 -132 -102z"/>
 <path d="M1216 1481 c-8 -12 163 -191 248 -261 103 -83 244 -173 364 -230 104 -50 284 -118 331 -124 14 -2 34 -7 43 -11 9 -4 21 -4 27 -1 5 4 13 1 16 -5 4 -5 13 -8 21 -5 7 3 16 1 19 -3 3 -5 19 -8 36 -7 16 1 32 -1 35 -6 3 -5 17 -8 32 -8 58 0 139 -7 150 -14 7 -4 17 -4 22 -1 14 9 1 27 -15 21 -7 -2 -16 -2 -20 2 -4 4 -25 8 -48 9 -83 5 -124 10 -135 17 -6 4 -22 5 -36 2 -14 -3 -28 0 -32 5 -3 6 -12 8 -20 5 -7 -3 -16 -1 -20 5 -3 5 -13 9 -22 8 -10 -1 -24 1 -32 4 -8 3 -64 22 -125 42 -142 46 -364 157 -485 242 -53 38 -151 123 -222 195 -70 70 -129 124 -132 119z"/>
 <path d="M2780 1466 c-11 -30 -65 -66 -97 -66 -25 0 -39 -15 -23 -25 30 -19 150 53 150 91 0 25 -20 25 -30 0z"/>
 <path d="M1036 1412 c-3 -5 27 -45 67 -88 41 -43 76 -74 79 -68 3 5 -27 44 -67 88 -40 43 -75 74 -79 68z"/>
 <path d="M2565 1391 c-7 -13 17 -24 40 -19 9 1 16 8 16 13 0 14 -48 19 -56 6z"/>
 <path d="M4016 1221 c-38 -38 -64 -71 -59 -74 5 -3 40 25 77 62 38 38 64 71 59 74 -5 3 -40 -25 -77 -62z"/>
 <path d="M1246 1192 c-6 -10 119 -133 174 -172 46 -33 43 -6 -3 31 -23 18 -70 59 -104 92 -33 32 -64 54 -67 49z"/>
 <path d="M3640 1144 c-64 -46 -334 -190 -342 -183 -2 1 -14 -4 -28 -11 -14 -8 -32 -15 -41 -17 -9 -1 -29 -8 -45 -14 -16 -7 -32 -12 -35 -11 -3 0 -28 -6 -55 -14 -27 -9 -64 -17 -83 -20 -19 -2 -39 -8 -45 -11 -6 -4 -21 -6 -33 -5 -11 2 -24 -2 -28 -7 -8 -15 20 -25 43 -16 9 4 26 9 37 10 62 7 152 31 171 46 6 5 13 6 16 3 3 -3 22 2 42 10 20 8 37 15 39 14 1 -1 13 5 27 12 14 8 32 15 40 16 51 9 384 200 404 232 17 27 -16 14 -84 -34z"/>
 <path d="M3868 1086 c-144 -123 -406 -268 -603 -336 -49 -17 -97 -33 -105 -37 -8 -3 -20 -5 -26 -4 -7 1 -25 -4 -40 -10 -16 -7 -36 -11 -46 -10 -9 1 -19 -3 -22 -8 -4 -6 -13 -8 -21 -5 -8 3 -20 2 -27 -2 -12 -8 -40 -12 -110 -17 -21 -1 -37 -6 -35 -12 1 -5 22 -9 47 -7 25 1 53 2 62 3 10 0 20 4 23 9 3 5 12 7 20 3 9 -3 21 0 29 6 7 6 16 8 19 5 3 -4 14 -3 24 1 10 4 29 9 42 11 13 2 31 6 40 10 9 4 25 8 37 9 72 10 330 124 475 211 133 79 309 217 291 228 -6 3 -39 -18 -74 -48z"/>
 <path d="M1465 999 c-9 -13 130 -100 280 -175 127 -63 367 -150 385 -139 5 3 12 0 15 -6 4 -5 13 -8 21 -5 7 3 16 0 20 -5 3 -6 15 -9 25 -6 10 3 22 1 25 -5 3 -5 15 -8 25 -5 10 3 21 1 24 -3 3 -5 13 -9 23 -9 9 0 32 -2 49 -3 40 -4 45 15 6 19 -59 7 -79 11 -96 18 -10 4 -21 5 -24 1 -3 -3 -12 -1 -19 5 -8 6 -20 9 -29 6 -8 -4 -17 -2 -20 4 -4 5 -12 9 -18 8 -7 -1 -19 1 -27 4 -8 3 -71 24 -140 47 -143 47 -306 124 -432 204 -48 30 -90 51 -93 45z"/>
 <path d="M2845 840 c-3 -5 -2 -10 2 -12 13 -7 33 -3 36 6 3 12 -31 17 -38 6z"/>
 <path d="M2725 830 c-3 -5 -12 -7 -19 -4 -17 6 -31 -12 -16 -21 5 -3 15 -3 22 1 7 4 34 8 60 8 26 1 48 6 48 11 1 12 -88 17 -95 5z"/>
 <path d="M2425 640 c-8 -13 20 -24 41 -16 20 8 9 26 -16 26 -10 0 -22 -5 -25 -10z"/>
 <path d="M2495 640 c-3 -5 0 -13 8 -16 23 -9 112 0 110 11 -4 14 -110 19 -118 5z"/>
 <path d="M2665 640 c-3 -6 0 -12 7 -15 23 -8 112 0 113 10 0 13 -112 18 -120 5z"/>
 </g>
<g id="layer2" fill="#a6a6a6" stroke="none">
 <path d="M2290 5228 c-199 -17 -447 -79 -655 -164 -801 -327 -1400 -1032 -1586 -1868 -28 -126 -49 -369 -49 -573 0 -467 69 -779 260 -1168 255 -518 677 -940 1195 -1195 389 -191 701 -260 1168 -260 204 0 447 21 573 49 1001 223 1806 1042 2003 2036 40 203 53 568 30 840 -69 823 -613 1621 -1380 2024 -308 162 -612 254 -924 280 -150 13 -482 12 -635 -1z m599 -79 c465 -43 961 -249 1340 -557 511 -414 850 -1041 921 -1701 6 -57 11 -179 11 -271 0 -291 -37 -523 -127 -800 -305 -932 -1127 -1604 -2110 -1725 -333 -41 -725 -7 -1044 91 -820 253 -1441 874 -1694 1694 -124 402 -142 865 -50 1289 78 366 269 761 511 1058 446 549 1124 895 1828 932 146 8 248 5 414 -10z"/>
 <path d="M2395 4611 c-7 -12 12 -24 25 -16 11 7 4 25 -10 25 -5 0 -11 -4 -15 -9z"/>
 <path d="M2825 4611 c-7 -12 12 -24 25 -16 11 7 4 25 -10 25 -5 0 -11 -4 -15 -9z"/>
 <path d="M2305 4600 c-8 -12 20 -24 35 -15 6 3 8 11 5 16 -8 12 -32 12 -40 -1z"/>
 <path d="M2895 4599 c-7 -10 5 -16 27 -15 10 1 18 6 18 11 0 12 -38 16 -45 4z"/>
 <path d="M2255 4591 c-7 -12 12 -24 25 -16 11 7 4 25 -10 25 -5 0 -11 -4 -15 -9z"/>
 <path d="M2965 4591 c-7 -12 12 -24 25 -16 11 7 4 25 -10 25 -5 0 -11 -4 -15 -9z"/>
 <path d="M2196 4583 c-4 -4 -12 -8 -17 -8 -5 0 -9 -3 -9 -7 0 -8 3 -9 18 -7 4 1 15 2 24 3 10 0 18 6 18 11 1 13 -23 18 -34 8z"/>
 <path d="M3015 4580 c-7 -11 22 -26 32 -16 3 3 12 1 20 -5 7 -6 13 -8 13 -4 0 4 6 2 13 -4 8 -6 29 -13 48 -15 19 -3 35 -6 37 -7 1 -1 5 -2 10 -3 4 -1 12 -4 17 -7 10 -6 75 -28 98 -34 64 -14 306 -139 426 -219 53 -35 124 -89 159 -120 35 -31 68 -54 73 -50 15 9 -22 46 -38 39 -8 -2 -12 -1 -8 4 8 13 -84 88 -200 164 -99 64 -332 184 -370 191 -11 2 -38 11 -59 20 -22 10 -51 19 -65 21 -14 2 -27 4 -28 6 -2 1 -6 2 -10 4 -5 1 -21 7 -37 14 -16 6 -35 10 -42 7 -8 -3 -16 -1 -19 5 -4 5 -10 7 -15 4 -5 -3 -11 -1 -15 5 -8 13 -32 13 -40 0z"/>
 <path d="M2117 4564 c-4 -4 -17 -8 -29 -10 -13 -1 -36 -8 -53 -15 -16 -6 -40 -13 -52 -15 -12 -1 -43 -13 -70 -25 -26 -12 -52 -23 -58 -25 -21 -5 -111 -47 -124 -57 -7 -6 -19 -12 -27 -13 -18 -3 -202 -115 -269 -164 -77 -57 -166 -141 -159 -151 3 -5 30 13 61 41 30 28 84 71 118 96 66 47 275 176 275 169 0 -2 32 12 70 31 39 18 72 34 75 34 7 1 74 25 110 40 17 7 39 14 50 16 11 1 34 8 50 15 17 7 35 13 40 13 6 1 11 5 13 11 4 12 -12 18 -21 9z"/>
 <path d="M2505 4421 c-7 -13 17 -24 40 -19 9 1 16 8 16 13 0 14 -48 19 -56 6z"/>
 <path d="M2685 4420 c-3 -5 0 -12 7 -15 19 -8 73 0 76 10 4 13 -75 18 -83 5z"/>
 <path d="M2385 4409 c-7 -10 5 -16 32 -15 13 1 24 6 25 11 3 12 -50 16 -57 4z"/>
 <path d="M2795 4411 c-7 -13 17 -24 40 -19 9 1 16 8 16 13 0 14 -48 19 -56 6z"/>
 <path d="M2325 4401 c-7 -12 12 -24 25 -16 11 7 4 25 -10 25 -5 0 -11 -4 -15 -9z"/>
 <path d="M2265 4390 c-8 -12 20 -24 35 -15 6 3 8 11 5 16 -8 12 -32 12 -40 -1z"/>
 <path d="M2935 4391 c-7 -13 7 -20 31 -17 10 2 24 -1 30 -6 7 -5 16 -8 20 -7 5 1 17 -1 27 -6 10 -4 21 -5 24 -1 3 3 11 2 17 -3 12 -9 82 -33 106 -36 54 -7 312 -135 423 -209 28 -19 55 -32 60 -29 13 8 -15 35 -30 29 -8 -3 -11 -2 -8 4 11 18 -329 199 -403 214 -9 1 -24 6 -32 9 -44 19 -104 37 -108 32 -3 -3 -11 0 -18 6 -8 6 -20 9 -29 6 -8 -4 -17 -2 -21 4 -3 6 -12 8 -19 5 -7 -2 -16 -2 -19 2 -11 10 -45 12 -51 3z"/>
 <path d="M2210 4383 c-8 -2 -22 -7 -30 -10 -8 -4 -18 -6 -22 -5 -4 1 -20 -3 -35 -9 -15 -7 -37 -13 -49 -14 -11 -2 -38 -11 -60 -21 -21 -9 -48 -19 -59 -21 -32 -6 -245 -116 -320 -164 -99 -65 -177 -128 -170 -139 3 -5 41 17 83 49 63 47 243 161 256 161 2 0 43 19 92 42 49 23 94 43 101 44 25 4 88 27 99 35 6 5 13 6 16 4 3 -3 18 0 34 6 16 7 34 11 40 10 21 -3 65 19 59 29 -7 11 -12 11 -35 3z"/>
 <path d="M3686 4071 c-3 -5 12 -23 33 -40 22 -17 42 -27 45 -22 3 5 -12 23 -33 40 -22 17 -42 27 -45 22z"/>
 <path d="M1205 4040 c-19 -20 -26 -33 -19 -40 7 -7 20 0 39 20 19 20 26 33 19 40 -7 7 -20 0 -39 -20z"/>
 <path d="M4007 4054 c-3 -5 21 -37 54 -71 32 -35 61 -58 64 -53 4 6 -20 38 -53 72 -32 33 -61 57 -65 52z"/>
 <path d="M3776 4002 c-3 -5 5 -19 18 -31 13 -13 26 -18 30 -13 3 5 -5 19 -18 31 -13 13 -26 18 -30 13z"/>
 <path d="M1346 3901 c-54 -54 -94 -101 -89 -104 5 -3 53 38 107 92 54 54 94 101 89 104 -5 3 -53 -38 -107 -92z"/>
 <path d="M1085 3908 c-89 -98 -265 -371 -246 -382 5 -4 34 35 64 86 72 121 142 220 206 290 28 31 47 59 42 62 -5 3 -35 -22 -66 -56z"/>
 <path d="M3836 3941 c-7 -11 39 -43 48 -34 7 7 -23 43 -35 43 -4 0 -10 -4 -13 -9z"/>
 <path d="M4138 3914 c-3 -5 13 -31 37 -58 23 -27 45 -45 48 -39 3 5 -13 31 -37 58 -23 27 -45 45 -48 39z"/>
 <path d="M3906 3882 c-3 -5 5 -19 18 -31 13 -13 26 -18 30 -13 3 5 -5 19 -18 31 -13 13 -26 18 -30 13z"/>
 <path d="M2565 3861 c-7 -12 12 -24 25 -16 11 7 4 25 -10 25 -5 0 -11 -4 -15 -9z"/>
 <path d="M2645 3861 c-7 -12 12 -24 25 -16 11 7 4 25 -10 25 -5 0 -11 -4 -15 -9z"/>
 <path d="M2494 3841 c-37 -22 -66 -60 -57 -74 3 -5 15 2 27 16 11 14 36 33 54 42 18 9 30 20 27 25 -9 14 -16 13 -51 -9z"/>
 <path d="M2695 3851 c-3 -6 11 -18 31 -27 43 -20 68 -56 69 -98 0 -17 5 -29 10 -26 11 6 15 41 7 55 -4 6 -7 16 -8 23 -3 20 -35 52 -66 68 -32 17 -35 17 -43 5z"/>
 <path d="M3958 3824 c-4 -5 15 -33 41 -63 26 -30 50 -50 54 -45 3 6 -16 34 -42 64 -26 29 -50 50 -53 44z"/>
 <path d="M4227 3804 c-3 -3 21 -47 54 -97 74 -112 201 -365 215 -425 1 -8 6 -21 10 -30 4 -9 8 -20 9 -24 2 -5 4 -10 5 -13 1 -3 3 -9 4 -14 0 -5 4 -12 8 -16 4 -4 4 -13 2 -20 -3 -7 -1 -16 5 -19 6 -4 8 -13 5 -20 -3 -8 0 -17 5 -21 6 -3 9 -10 6 -15 -3 -5 -1 -11 4 -14 5 -4 12 -2 15 3 4 5 2 12 -3 16 -6 3 -8 12 -5 19 3 8 0 17 -5 21 -6 3 -9 11 -5 16 3 5 0 16 -6 24 -7 8 -9 15 -5 15 4 0 2 7 -5 15 -7 8 -9 15 -5 15 4 0 2 6 -4 13 -6 8 -8 16 -5 20 3 3 0 16 -7 29 -7 12 -14 32 -16 43 -7 40 -134 289 -198 386 -66 102 -68 103 -78 93z"/>
 <path d="M1216 3761 c-15 -16 -23 -31 -18 -35 5 -3 21 8 36 23 15 16 23 31 18 35 -5 3 -21 -8 -36 -23z"/>
 <path d="M2424 3736 c-8 -21 3 -49 16 -41 5 3 10 15 10 25 0 25 -18 36 -26 16z"/>
 <path d="M1137 3658 c-82 -117 -200 -345 -210 -407 -2 -9 -8 -26 -15 -38 -7 -12 -12 -26 -11 -30 1 -4 0 -11 -1 -15 -1 -5 -3 -11 -5 -15 -1 -5 -7 -21 -14 -37 -6 -16 -9 -31 -6 -34 2 -3 0 -11 -6 -18 -6 -7 -8 -18 -4 -24 8 -13 26 -3 24 13 -1 7 3 25 10 41 6 16 9 31 6 34 -2 3 0 11 6 19 6 7 8 13 4 13 -4 0 -2 6 4 13 6 8 12 22 15 33 13 64 138 316 210 422 31 45 51 84 46 87 -5 3 -29 -23 -53 -57z"/>
 <path d="M4057 3704 c-3 -6 4 -23 17 -39 13 -15 25 -24 29 -19 3 6 -4 23 -17 39 -13 15 -25 24 -29 19z"/>
 <path d="M4106 3632 c-3 -5 9 -28 25 -53 17 -24 44 -70 60 -102 16 -32 34 -55 39 -52 12 8 4 27 -53 123 -51 85 -62 98 -71 84z"/>
 <path d="M2424 3606 c-8 -21 3 -49 16 -41 5 3 10 15 10 25 0 25 -18 36 -26 16z"/>
 <path d="M2795 3560 c-3 -5 -4 -10 0 -10 3 0 -2 -14 -10 -31 -11 -20 -33 -38 -62 -51 -31 -14 -42 -23 -35 -30 25 -25 117 48 126 99 5 24 -8 40 -19 23z"/>
 <path d="M2437 3543 c-12 -11 -8 -20 19 -53 33 -39 82 -66 96 -52 7 7 -1 16 -26 26 -21 9 -45 29 -57 51 -23 38 -23 38 -32 28z"/>
 <path d="M815 3500 c-3 -5 -3 -10 1 -10 4 0 0 -8 -8 -17 -15 -19 -48 -89 -52 -113 -1 -8 -8 -25 -14 -37 -7 -13 -10 -23 -7 -23 3 0 -2 -11 -11 -25 -9 -14 -14 -28 -10 -32 3 -3 1 -12 -5 -20 -6 -7 -8 -13 -4 -13 4 0 2 -7 -5 -15 -7 -9 -10 -18 -7 -22 4 -3 2 -12 -4 -20 -6 -7 -8 -13 -4 -13 4 0 2 -7 -5 -15 -6 -8 -9 -19 -5 -25 9 -14 28 -1 21 15 -2 7 1 18 7 24 6 6 7 11 3 11 -5 0 -3 7 4 15 7 9 10 18 7 22 -4 3 -2 12 4 20 6 7 8 13 4 13 -4 0 -2 6 4 13 6 8 12 22 14 33 2 10 8 28 14 39 6 11 11 22 11 25 0 3 12 32 27 65 15 33 28 65 29 70 1 6 5 15 9 22 4 6 3 14 -2 17 -5 4 -12 2 -16 -4z"/>
 <path d="M4237 3403 c-3 -5 9 -38 27 -74 17 -37 33 -75 34 -85 2 -11 11 -35 20 -54 8 -19 14 -39 13 -44 -1 -4 4 -14 10 -22 6 -8 8 -14 4 -14 -4 0 -2 -6 4 -13 6 -8 8 -17 5 -20 -4 -3 -3 -14 1 -24 5 -10 9 -21 9 -25 1 -5 4 -8 9 -8 4 0 10 0 13 0 4 0 1 6 -5 13 -6 8 -8 17 -5 20 4 3 3 14 -1 24 -5 10 -9 21 -10 26 -2 4 -4 10 -5 15 -1 4 -3 12 -5 17 -1 6 -3 12 -4 15 -1 3 -4 15 -7 28 -2 12 -11 39 -20 60 -10 20 -19 45 -20 55 -5 21 -52 117 -59 117 -2 0 -6 -3 -8 -7z"/>
 <path d="M2535 3229 c-4 -5 -10 -7 -15 -4 -13 8 -54 -30 -46 -44 5 -8 14 -5 31 11 13 12 36 23 52 23 15 0 30 4 33 10 6 12 -48 17 -55 4z"/>
 <path d="M2665 3230 c-7 -12 -8 -11 29 -16 15 -1 36 -10 46 -19 10 -9 21 -12 24 -7 3 5 -3 17 -14 27 -22 20 -76 29 -85 15z"/>
 <path d="M2754 3156 c-8 -21 3 -49 16 -41 5 3 10 15 10 25 0 25 -18 36 -26 16z"/>
 <path d="M2465 3148 c-9 -24 -2 -93 10 -93 14 0 19 85 6 98 -7 7 -12 5 -16 -5z"/>
 <path d="M2754 3076 c-4 -10 -2 -22 4 -28 8 -8 13 -7 18 6 4 10 2 22 -4 28 -8 8 -13 7 -18 -6z"/>
 <path d="M4565 3050 c-4 -6 -3 -16 3 -22 6 -6 12 -6 17 2 4 6 3 16 -3 22 -6 6 -12 6 -17 -2z"/>
 <path d="M655 3030 c-4 -6 -3 -16 3 -22 6 -6 12 -6 17 2 4 6 3 16 -3 22 -6 6 -12 6 -17 -2z"/>
 <path d="M2464 2996 c-8 -21 3 -49 16 -41 5 3 10 15 10 25 0 25 -18 36 -26 16z"/>
 <path d="M4374 2986 c-4 -10 -2 -22 4 -28 8 -8 13 -7 18 6 4 10 2 22 -4 28 -8 8 -13 7 -18 -6z"/>
 <path d="M645 2980 c-4 -6 -3 -16 3 -22 6 -6 12 -6 17 2 4 6 3 16 -3 22 -6 6 -12 6 -17 -2z"/>
 <path d="M844 2966 c-4 -10 -2 -22 4 -28 8 -8 13 -7 18 6 4 10 2 22 -4 28 -8 8 -13 7 -18 -6z"/>
 <path d="M4588 2953 c-7 -14 -3 -33 6 -33 12 -1 17 28 6 35 -5 3 -10 2 -12 -2z"/>
 <path d="M634 2926 c-8 -21 3 -49 16 -41 5 3 10 15 10 25 0 25 -18 36 -26 16z"/>
 <path d="M4385 2930 c-4 -6 -3 -16 3 -22 6 -6 12 -6 17 2 4 6 3 16 -3 22 -6 6 -12 6 -17 -2z"/>
 <path d="M4595 2880 c-4 -6 -3 -16 3 -22 6 -6 12 -6 17 2 4 6 3 16 -3 22 -6 6 -12 6 -17 -2z"/>
 <path d="M4398 2873 c-8 -14 -3 -38 7 -41 12 -3 16 36 4 43 -4 3 -9 2 -11 -2z"/>
 <path d="M624 2836 c-4 -10 -2 -22 4 -28 8 -8 13 -7 18 6 4 10 2 22 -4 28 -8 8 -13 7 -18 -6z"/>
 <path d="M828 2843 c-8 -14 -3 -38 7 -41 12 -3 16 36 4 43 -4 3 -9 2 -11 -2z"/>
 <path d="M2765 2778 c-9 -23 -2 -83 10 -83 14 0 19 75 6 88 -7 7 -12 5 -16 -5z"/>
 <path d="M4404 2766 c-4 -10 -2 -22 4 -28 8 -8 13 -7 18 6 4 10 2 22 -4 28 -8 8 -13 7 -18 -6z"/>
 <path d="M814 2717 c-7 -20 -2 -47 11 -50 14 -3 19 43 6 56 -7 7 -12 6 -17 -6z"/>
 <path d="M2455 2608 c-9 -24 -1 -103 10 -103 14 0 19 95 6 108 -7 7 -12 5 -16 -5z"/>
 <path d="M814 2557 c-7 -20 -2 -47 11 -50 14 -3 19 43 6 56 -7 7 -12 6 -17 -6z"/>
 <path d="M4406 2502 c-8 -13 0 -67 9 -65 12 4 16 61 6 68 -5 3 -12 2 -15 -3z"/>
 <path d="M624 2426 c-4 -10 -2 -22 4 -28 8 -8 13 -7 18 6 4 10 2 22 -4 28 -8 8 -13 7 -18 -6z"/>
 <path d="M824 2426 c-8 -21 3 -49 16 -41 5 3 10 15 10 25 0 25 -18 36 -26 16z"/>
 <path d="M4396 2412 c-7 -12 -1 -47 9 -47 12 0 16 43 6 50 -5 3 -12 2 -15 -3z"/>
 <path d="M4594 2386 c-4 -10 -2 -22 4 -28 8 -8 13 -7 18 6 4 10 2 22 -4 28 -8 8 -13 7 -18 -6z"/>
 <path d="M638 2353 c-7 -14 -3 -33 6 -33 12 -1 17 28 6 35 -5 3 -10 2 -12 -2z"/>
 <path d="M839 2348 c-6 -25 -6 -39 1 -43 4 -3 6 -14 3 -24 -3 -10 0 -22 6 -26 15 -9 26 22 13 38 -5 6 -8 20 -7 29 3 14 -13 38 -16 26z"/>
 <path d="M2775 2338 c-9 -24 -1 -143 10 -143 13 0 19 135 6 148 -7 7 -12 5 -16 -5z"/>
 <path d="M4385 2330 c-4 -6 -3 -16 3 -22 6 -6 12 -6 17 2 4 6 3 16 -3 22 -6 6 -12 6 -17 -2z"/>
 <path d="M4584 2316 c-4 -10 -2 -22 4 -28 8 -8 13 -7 18 6 4 10 2 22 -4 28 -8 8 -13 7 -18 -6z"/>
 <path d="M645 2280 c-4 -6 -3 -16 3 -22 6 -6 12 -6 17 2 4 6 3 16 -3 22 -6 6 -12 6 -17 -2z"/>
 <path d="M4374 2276 c-4 -9 -4 -20 0 -23 3 -3 1 -12 -6 -20 -6 -7 -8 -16 -5 -20 4 -3 2 -11 -3 -18 -5 -7 -11 -25 -13 -41 -2 -17 -6 -34 -9 -39 -6 -12 -39 -110 -42 -128 -1 -7 -10 -27 -19 -44 -10 -18 -17 -35 -17 -38 0 -10 -94 -191 -120 -230 -39 -59 -41 -63 -31 -69 5 -3 25 18 44 47 37 56 117 207 121 229 1 7 10 28 19 46 10 17 15 32 11 32 -4 0 -1 6 5 14 12 14 51 123 49 134 -1 4 4 20 11 36 6 16 10 35 7 42 -3 8 -1 16 5 19 5 4 9 12 8 18 -1 7 1 20 6 30 4 11 3 23 -3 29 -8 8 -13 7 -18 -6z"/>
 <path d="M4575 2260 c-4 -6 -4 -14 -1 -17 3 -3 1 -12 -5 -19 -13 -16 -4 -48 11 -39 6 4 10 14 8 23 -1 10 1 23 6 30 5 8 4 18 -2 24 -6 6 -12 6 -17 -2z"/>
 <path d="M655 2230 c-4 -6 -3 -16 3 -22 6 -6 12 -6 17 2 4 6 3 16 -3 22 -6 6 -12 6 -17 -2z"/>
 <path d="M4559 2166 c-3 -14 -7 -27 -9 -33 -2 -5 -4 -12 -5 -18 -1 -5 -7 -23 -13 -38 -7 -15 -11 -31 -11 -35 1 -4 0 -10 -1 -14 -1 -5 -4 -12 -5 -18 -1 -5 -4 -12 -5 -15 -1 -3 -3 -8 -4 -12 -1 -5 -7 -18 -14 -30 -6 -12 -13 -30 -15 -40 -5 -36 -136 -290 -195 -380 -34 -51 -57 -95 -52 -98 20 -13 242 367 253 432 2 10 8 28 15 40 7 12 14 32 16 45 3 13 5 24 7 26 1 1 3 7 4 12 1 6 4 12 5 15 1 3 3 8 5 13 1 4 7 20 14 36 6 16 9 31 6 34 -2 3 0 11 7 19 6 7 8 16 5 20 -4 3 -2 12 4 19 7 8 7 14 -1 19 -5 3 -11 4 -11 1z"/>
 <path d="M876 2151 c-4 -5 -2 -12 4 -16 6 -4 8 -11 4 -16 -3 -5 0 -16 6 -24 7 -8 9 -15 5 -15 -4 0 -2 -7 5 -15 7 -8 9 -15 5 -15 -4 0 -2 -7 5 -15 7 -8 9 -15 6 -15 -4 0 -1 -10 6 -22 7 -13 11 -26 10 -30 -4 -15 78 -179 87 -173 6 3 0 28 -14 60 -33 73 -54 124 -56 133 0 4 -6 16 -12 27 -6 11 -12 23 -13 28 -1 4 -3 9 -4 12 -1 3 -3 9 -4 14 0 5 -4 12 -8 16 -4 4 -4 13 -2 20 3 7 0 16 -5 20 -6 3 -9 10 -6 15 3 5 1 11 -4 14 -5 4 -12 2 -15 -3z"/>
 <path d="M676 2142 c-3 -6 -1 -23 6 -39 6 -15 11 -31 10 -35 -1 -4 3 -20 10 -35 6 -15 12 -31 13 -35 2 -5 3 -9 4 -10 2 -2 5 -14 7 -28 2 -13 11 -35 19 -47 9 -13 13 -23 11 -23 -10 0 72 -179 120 -260 68 -116 50 -50 -30 112 -45 90 -83 172 -85 183 -1 11 -8 29 -14 40 -6 11 -12 23 -13 28 -1 4 -3 10 -4 15 -1 4 -2 10 -1 14 0 4 -4 20 -10 35 -7 15 -13 39 -15 52 -4 29 -19 47 -28 33z"/>
 <path d="M2445 2088 c-9 -24 -1 -143 10 -143 13 0 19 135 6 148 -7 7 -12 5 -16 -5z"/>
 <path d="M2775 2087 c-9 -22 -2 -62 10 -60 6 1 11 14 13 29 4 32 -14 56 -23 31z"/>
 <path d="M2444 1827 c-7 -20 -2 -47 11 -50 14 -3 19 43 6 56 -7 7 -12 6 -17 -6z"/>
 <path d="M2785 1818 c-10 -25 -1 -223 10 -223 13 0 19 215 6 228 -7 7 -12 5 -16 -5z"/>
 <path d="M1025 1780 c-7 -11 86 -163 161 -261 110 -144 339 -359 365 -343 8 4 9 3 5 -4 -17 -28 374 -242 465 -256 8 -1 19 -4 24 -8 20 -12 157 -49 163 -44 3 3 11 1 18 -4 6 -6 16 -10 20 -9 5 1 17 -1 27 -5 21 -10 50 0 42 15 -4 5 -17 9 -28 8 -12 0 -26 0 -32 1 -5 2 -14 4 -20 5 -5 1 -17 5 -25 8 -24 10 -134 40 -150 42 -9 0 -20 4 -25 7 -6 4 -46 20 -88 37 -356 142 -673 414 -865 744 -24 42 -46 77 -48 77 -1 0 -5 -4 -9 -10z"/>
 <path d="M4052 1545 c-23 -30 -37 -57 -33 -59 9 -6 36 22 70 71 38 55 5 45 -37 -12z"/>
 <path d="M2435 1568 c-9 -24 -1 -128 10 -131 13 -3 19 123 6 136 -7 7 -12 5 -16 -5z"/>
 <path d="M2785 1568 c-9 -24 -2 -93 10 -93 14 0 19 85 6 98 -7 7 -12 5 -16 -5z"/>
 <path d="M927 1564 c-11 -19 136 -220 153 -209 5 3 -19 42 -53 88 -34 45 -69 93 -78 106 -9 14 -18 20 -22 15z"/>
 <path d="M3971 1446 c-18 -19 -29 -36 -23 -39 5 -4 23 9 41 27 18 19 29 36 23 39 -5 4 -23 -9 -41 -27z"/>
 <path d="M2756 1424 c-21 -18 -42 -31 -47 -29 -4 3 -10 1 -13 -4 -4 -5 -2 -12 3 -15 5 -4 12 -2 16 4 4 6 10 8 15 5 5 -3 26 9 46 28 49 45 30 55 -20 11z"/>
 <path d="M4196 1411 c-10 -11 -13 -22 -8 -25 5 -3 17 3 26 13 10 11 13 22 8 25 -5 3 -17 -3 -26 -13z"/>
 <path d="M2475 1401 c-3 -6 3 -15 14 -21 12 -6 22 -6 26 -1 3 6 -3 15 -14 21 -12 6 -22 6 -26 1z"/>
 <path d="M2565 1380 c-3 -5 0 -13 9 -16 21 -8 61 -1 61 11 0 14 -62 19 -70 5z"/>
 <path d="M4092 1293 c-44 -48 -78 -92 -75 -96 8 -13 104 86 98 101 -2 7 -1 11 4 8 4 -3 22 10 40 28 18 19 28 36 23 40 -6 3 -46 -33 -90 -81z"/>
 <path d="M1087 1343 c-3 -5 52 -67 122 -137 71 -71 131 -124 134 -119 3 5 -52 67 -122 137 -71 71 -131 124 -134 119z"/>
 <path d="M3806 1281 c-21 -21 -34 -41 -29 -44 6 -4 27 11 47 32 21 21 34 41 29 44 -6 4 -27 -11 -47 -32z"/>
 <path d="M3725 1213 c-106 -87 -340 -216 -485 -267 -41 -15 -82 -29 -90 -33 -8 -3 -18 -6 -22 -5 -4 1 -20 -3 -35 -10 -15 -6 -32 -10 -37 -9 -5 1 -16 -1 -25 -5 -9 -4 -19 -8 -23 -8 -5 -1 -8 -4 -8 -8 0 -5 0 -11 0 -15 0 -4 5 -2 11 4 6 6 18 9 25 6 8 -3 20 0 28 6 7 6 15 8 18 6 3 -3 18 0 34 6 16 7 32 12 36 11 16 -4 159 53 267 105 113 55 300 173 334 211 27 30 7 34 -28 5z"/>
 <path d="M3919 1124 c-18 -20 -64 -58 -101 -86 -72 -54 -85 -88 -15 -39 66 45 138 112 132 122 -4 5 0 6 8 3 18 -6 33 14 20 27 -5 5 -23 -5 -44 -27z"/>
 <path d="M1356 1082 c-18 -29 268 -217 454 -298 91 -39 246 -95 258 -92 4 1 20 -4 36 -11 16 -6 35 -10 42 -7 8 3 16 1 20 -5 3 -6 12 -8 19 -5 7 2 17 0 23 -6 13 -13 46 -2 37 13 -4 6 -16 9 -26 6 -10 -3 -22 -1 -25 5 -3 5 -12 7 -19 4 -7 -2 -17 0 -22 5 -5 5 -22 10 -39 12 -16 2 -34 6 -39 9 -6 3 -54 20 -107 37 -175 58 -484 227 -579 318 -15 13 -29 20 -33 15z"/>
 <path d="M3711 961 c-14 -11 -19 -21 -13 -25 5 -3 20 2 33 12 29 24 11 36 -20 13z"/>
 <path d="M3619 907 c-30 -18 -73 -41 -94 -52 -22 -10 -47 -25 -55 -31 -8 -7 -19 -12 -23 -12 -4 0 -42 -14 -85 -31 -130 -52 -137 -54 -150 -57 -8 -1 -21 -6 -30 -10 -9 -3 -30 -8 -47 -10 -16 -3 -33 -8 -38 -13 -5 -5 -15 -7 -22 -5 -7 3 -16 1 -19 -4 -3 -6 -15 -8 -25 -5 -10 3 -22 0 -26 -6 -9 -15 24 -26 37 -13 6 6 16 8 23 6 7 -3 16 -1 19 5 4 6 12 8 20 5 7 -3 26 1 42 7 16 7 33 11 37 10 4 0 18 4 30 11 12 7 25 11 29 10 13 -3 192 70 211 86 9 8 17 12 17 8 0 -9 164 76 199 103 43 32 6 31 -50 -2z"/>
 <path d="M2935 860 c-8 -12 20 -24 35 -15 6 3 8 11 5 16 -8 12 -32 12 -40 -1z"/>
 <path d="M2335 851 c-7 -12 12 -24 25 -16 11 7 4 25 -10 25 -5 0 -11 -4 -15 -9z"/>
 <path d="M2885 851 c-7 -12 12 -24 25 -16 11 7 4 25 -10 25 -5 0 -11 -4 -15 -9z"/>
 <path d="M2395 839 c-7 -10 5 -16 32 -15 13 1 24 6 25 11 3 12 -50 16 -57 4z"/>
 <path d="M2795 841 c-7 -13 17 -24 40 -19 9 1 16 8 16 13 0 14 -48 19 -56 6z"/>
 <path d="M2515 831 c-7 -13 17 -24 40 -19 9 1 16 8 16 13 0 14 -48 19 -56 6z"/>
 <path d="M2675 831 c-7 -13 17 -24 40 -19 9 1 16 8 16 13 0 14 -48 19 -56 6z"/>
 <path d="M2265 661 c-7 -12 12 -24 25 -16 11 7 4 25 -10 25 -5 0 -11 -4 -15 -9z"/>
 <path d="M2955 661 c-7 -12 12 -24 25 -16 11 7 4 25 -10 25 -5 0 -11 -4 -15 -9z"/>
 <path d="M2315 651 c-3 -5 -2 -12 3 -15 12 -7 47 -1 47 9 0 12 -43 16 -50 6z"/>
 <path d="M2885 649 c-7 -10 5 -16 27 -15 10 1 18 6 18 11 0 12 -38 16 -45 4z"/>
 <path d="M2395 640 c-8 -12 20 -24 35 -15 6 3 8 11 5 16 -8 12 -32 12 -40 -1z"/>
 <path d="M2775 640 c-8 -12 20 -24 35 -15 6 3 8 11 5 16 -8 12 -32 12 -40 -1z"/>
 </g>
<g id="layer3" fill="#ff0101" stroke="none">
 <path d="M2390 4607 c-414 -59 -786 -227 -1077 -487 -316 -282 -522 -610 -623 -994 -25 -96 -36 -148 -56 -266 -12 -67 -10 -403 3 -491 58 -402 228 -773 485 -1056 264 -292 539 -476 876 -586 118 -39 180 -55 322 -82 126 -25 482 -24 610 0 385 73 695 215 956 436 351 297 570 644 678 1074 46 180 54 267 52 515 -1 113 -5 210 -8 215 -3 6 -9 30 -12 55 -22 159 -114 434 -202 600 -101 190 -189 306 -363 480 -169 168 -260 240 -417 332 -210 121 -506 223 -739 253 -74 10 -421 12 -485 2z m400 -201 c112 -12 147 -17 240 -38 141 -31 249 -71 405 -148 171 -85 295 -173 437 -309 298 -285 488 -669 535 -1081 9 -81 9 -338 0 -405 -3 -27 -9 -70 -12 -95 -3 -25 -17 -90 -30 -145 -115 -482 -438 -902 -876 -1139 -130 -70 -339 -151 -439 -170 -14 -2 -45 -9 -70 -14 -25 -6 -70 -13 -100 -17 -30 -4 -66 -9 -80 -11 -72 -12 -353 -4 -440 11 -14 3 -41 7 -60 10 -283 45 -616 201 -852 398 -207 174 -410 466 -512 739 -51 136 -78 257 -101 443 -7 52 -7 308 0 360 29 239 76 409 165 602 260 561 829 958 1450 1009 41 4 76 7 77 8 4 3 213 -3 263 -8z"/>
 <path d="M2568 3856 c-59 -16 -94 -39 -118 -79 -17 -27 -19 -47 -17 -132 2 -71 8 -109 20 -132 48 -90 230 -106 315 -28 31 28 37 40 42 91 10 84 -2 179 -26 211 -22 30 -91 68 -139 76 -16 3 -51 -1 -77 -7z"/>
 <path d="M2532 3223 c-61 -25 -57 -2 -66 -431 -14 -643 -18 -917 -18 -1130 0 -202 2 -226 19 -244 29 -34 73 -45 154 -43 80 3 119 17 156 57 25 27 25 21 18 428 -15 877 -23 1242 -30 1294 -7 52 -36 70 -125 76 -49 3 -90 1 -108 -7z"/>
 </g>

</svg>