<!DOCTYPE svg PUBLIC "-//W3C//DTD SVG 20010904//EN" "http://www.w3.org/TR/2001/REC-SVG-20010904/DTD/svg10.dtd">
<svg version="1.0" xmlns="http://www.w3.org/2000/svg" width="512px" height="512px" viewBox="0 0 5120 5120" preserveAspectRatio="xMidYMid meet">
<g id="layer1" fill="#bfbfbf" stroke="none">
 <path d="M2325 5115 c-5 -2 -66 -9 -135 -14 -406 -34 -903 -253 -1270 -559 -521 -435 -856 -1057 -909 -1687 -14 -166 -14 -424 0 -590 37 -439 208 -870 500 -1261 95 -127 366 -398 493 -493 319 -239 667 -397 1031 -469 279 -56 771 -56 1050 0 468 93 899 321 1253 662 368 356 604 761 722 1241 39 158 50 261 57 545 4 167 1 269 -11 395 -43 456 -232 904 -543 1290 -97 121 -306 326 -423 417 -377 292 -813 472 -1243 513 -133 13 -545 20 -572 10z m505 -86 c832 -85 1587 -613 1955 -1364 178 -364 256 -700 256 -1105 0 -281 -33 -499 -113 -749 -126 -394 -318 -711 -608 -1002 -276 -277 -576 -467 -942 -594 -1046 -366 -2220 13 -2853 920 -591 848 -598 1976 -17 2825 103 150 166 226 301 360 291 290 608 482 1003 608 325 104 662 137 1018 101z"/>
 </g>
<g id="layer2" fill="#feffff" stroke="none">
 <path d="M2807 3813 c-13 -12 -8 -208 5 -221 9 -9 79 -12 255 -12 l243 0 0 -150 0 -150 -252 -2 -253 -3 -3 -48 c-5 -79 -12 -77 264 -77 l244 0 0 -145 0 -145 -244 0 c-198 0 -246 -3 -255 -14 -7 -8 -11 -37 -9 -68 l3 -53 253 -3 252 -2 0 -150 0 -150 -243 0 c-176 0 -246 -3 -255 -12 -7 -7 -12 -35 -12 -63 0 -28 5 -56 12 -63 9 -9 79 -12 255 -12 l243 0 0 -145 0 -145 -244 0 c-198 0 -246 -3 -255 -14 -7 -8 -11 -37 -9 -68 l3 -53 253 -3 252 -2 0 -150 0 -150 -244 0 c-196 0 -246 -3 -255 -14 -8 -9 -11 -50 -9 -117 l3 -104 730 0 730 0 0 1255 0 1255 -726 3 c-399 1 -729 -1 -732 -5z m1213 -378 l0 -144 -280 -3 -280 -3 0 148 0 147 280 0 280 0 0 -145z m0 -430 l0 -145 -280 0 -280 0 0 145 0 145 280 0 280 0 0 -145z m0 -435 l0 -150 -280 0 -280 0 0 150 0 150 280 0 280 0 0 -150z m0 -445 l0 -145 -280 0 -280 0 0 145 0 145 280 0 280 0 0 -145z m0 -435 l0 -150 -280 0 -280 0 0 150 0 150 280 0 280 0 0 -150z"/>
 <path d="M2030 3155 c-74 -5 -140 -13 -146 -17 -6 -4 -53 -101 -104 -217 l-93 -209 -75 162 c-41 88 -82 180 -92 203 l-19 41 -118 -5 c-67 -3 -123 -10 -130 -17 -10 -9 18 -68 123 -266 75 -140 141 -264 146 -275 8 -17 -16 -73 -126 -298 -74 -152 -131 -279 -126 -282 15 -9 254 -25 261 -18 4 5 43 97 87 206 64 157 82 193 87 175 19 -62 180 -400 194 -407 24 -13 258 -24 265 -13 3 5 -64 142 -149 304 -85 163 -155 301 -155 308 0 8 72 150 161 318 89 167 157 307 152 311 -4 4 -69 2 -143 -4z"/>
 </g>
<g id="layer3" fill="#1f7244" stroke="none">
 <path d="M1749 4126 c-558 -106 -1021 -196 -1027 -200 -9 -5 -12 -336 -12 -1367 l0 -1359 23 -10 c40 -16 2066 -393 2082 -387 13 5 15 32 15 177 l0 170 725 0 c650 0 729 2 758 16 45 23 66 44 88 86 18 36 19 81 19 1308 0 1249 0 1271 -20 1310 -11 21 -36 51 -57 67 l-36 28 -738 3 -739 2 -2 173 -3 172 -30 2 c-16 1 -487 -85 -1046 -191z m2501 -1566 l0 -1240 -715 0 -715 0 0 100 0 100 253 2 252 3 0 165 0 165 -252 3 -253 2 0 50 0 50 253 2 252 3 0 160 0 160 -252 3 -253 2 0 55 0 55 253 2 252 3 0 165 0 165 -252 3 -253 2 0 50 0 50 253 2 252 3 0 160 0 160 -252 3 -253 2 0 45 0 45 253 2 252 3 0 165 0 165 -252 3 -253 2 0 100 0 100 715 0 715 0 0 -1240z m-2100 575 c0 -3 -70 -138 -155 -299 -85 -161 -155 -298 -155 -305 0 -13 248 -495 293 -569 l20 -34 -119 7 c-66 4 -124 12 -131 19 -16 15 -172 359 -180 396 -7 40 -30 59 -39 34 -15 -44 -157 -400 -163 -406 -6 -7 -219 6 -227 14 -2 3 55 126 127 273 105 218 129 273 121 290 -5 11 -71 135 -146 275 l-136 255 113 6 c61 4 114 5 116 3 2 -2 41 -86 87 -186 46 -101 88 -189 92 -197 15 -26 32 -23 43 6 5 15 49 114 96 220 l86 192 66 4 c127 6 191 7 191 2z"/>
 <path d="M3444 3587 c-2 -7 -3 -82 -2 -166 l3 -153 290 2 c159 0 293 4 298 9 4 4 6 77 5 162 l-3 154 -293 3 c-233 2 -294 0 -298 -11z"/>
 <path d="M3444 3157 c-2 -7 -3 -80 -2 -162 l3 -150 295 0 295 0 0 160 0 160 -293 3 c-234 2 -294 0 -298 -11z"/>
 <path d="M3444 2727 c-2 -7 -3 -82 -2 -167 l3 -155 295 0 295 0 0 165 0 165 -293 3 c-233 2 -294 0 -298 -11z"/>
 <path d="M3444 2277 c-2 -7 -3 -80 -2 -162 l3 -150 295 0 295 0 0 160 0 160 -293 3 c-234 2 -294 0 -298 -11z"/>
 <path d="M3444 1847 c-2 -7 -3 -82 -2 -167 l3 -155 295 0 295 0 0 165 0 165 -293 3 c-233 2 -294 0 -298 -11z"/>
 </g>

</svg>