<!DOCTYPE svg PUBLIC "-//W3C//DTD SVG 20010904//EN" "http://www.w3.org/TR/2001/REC-SVG-20010904/DTD/svg10.dtd">
<svg version="1.0" xmlns="http://www.w3.org/2000/svg" width="512px" height="512px" viewBox="0 0 5120 5120" preserveAspectRatio="xMidYMid meet">
<g id="layer1" fill="#7f7f7f" stroke="none">
 <path d="M2325 5115 c-5 -2 -66 -9 -135 -14 -406 -34 -903 -253 -1270 -559 -521 -435 -856 -1057 -909 -1687 -14 -166 -14 -424 0 -590 37 -439 208 -870 500 -1261 95 -127 366 -398 493 -493 319 -239 667 -397 1031 -469 279 -56 771 -56 1050 0 468 93 899 321 1253 662 368 356 604 761 722 1241 39 158 50 261 57 545 4 167 1 269 -11 395 -43 456 -232 904 -543 1290 -97 121 -306 326 -423 417 -377 292 -813 472 -1243 513 -133 13 -545 20 -572 10z m588 -90 c348 -55 706 -185 967 -351 316 -201 593 -478 794 -794 172 -270 303 -638 357 -1005 18 -116 18 -521 1 -630 -68 -429 -187 -745 -403 -1068 -315 -472 -768 -815 -1306 -987 -256 -82 -469 -114 -763 -114 -372 0 -660 58 -986 199 -589 254 -1045 710 -1299 1299 -141 326 -199 614 -199 986 0 239 12 350 59 560 120 535 438 1043 865 1383 387 308 841 488 1365 541 86 9 454 -4 548 -19z"/>
 </g>
<g id="layer2" fill="#2ecc71" stroke="none">
 <path d="M2318 4037 c-38 -7 -72 -17 -77 -22 -11 -11 694 -1250 711 -1250 6 0 134 209 284 465 l274 465 -43 39 c-140 129 -401 249 -632 292 -119 21 -426 28 -517 11z"/>
 <path d="M1988 3925 c-226 -83 -492 -298 -644 -521 -95 -138 -203 -366 -190 -401 4 -11 130 -13 720 -13 426 0 717 4 721 9 4 8 -506 890 -537 929 -13 15 -23 14 -70 -3z"/>
 <path d="M3647 3550 c-58 -90 -744 -1286 -740 -1292 2 -5 254 -8 559 -8 l554 0 9 23 c5 12 14 74 21 136 37 335 -50 686 -243 979 -35 53 -82 117 -104 142 l-40 44 -16 -24z"/>
 <path d="M1101 2837 c-5 -12 -14 -74 -21 -136 -29 -262 18 -536 135 -788 49 -105 136 -243 203 -321 37 -44 47 -51 57 -40 7 7 143 240 303 518 159 278 326 565 370 639 45 74 79 138 76 143 -3 4 -255 8 -560 8 l-554 0 -9 -23z"/>
 <path d="M2096 2224 c-41 -71 -165 -282 -276 -469 l-200 -340 43 -39 c23 -21 76 -61 117 -88 272 -179 624 -256 974 -215 71 9 133 20 137 24 6 7 -685 1218 -711 1247 -5 4 -42 -50 -84 -120z"/>
 <path d="M2547 2113 c-3 -5 115 -217 262 -473 310 -541 259 -494 439 -405 266 132 504 371 641 643 53 104 93 211 87 229 -4 11 -129 13 -715 13 -390 0 -712 -3 -714 -7z"/>
 </g>
<g id="layer3" fill="#ffffff" stroke="none">
 <path d="M2365 5064 c-276 -28 -520 -86 -750 -181 -754 -308 -1324 -978 -1500 -1763 -47 -210 -59 -321 -59 -560 0 -372 58 -660 199 -986 130 -303 296 -546 535 -784 396 -397 859 -629 1430 -716 84 -13 175 -18 340 -18 239 0 350 12 560 59 785 176 1455 746 1763 1500 79 192 130 381 169 630 17 109 17 514 -1 630 -54 367 -185 735 -357 1005 -203 319 -495 611 -814 814 -261 166 -619 296 -967 351 -94 15 -462 28 -548 19z m470 -1058 c107 -20 272 -74 370 -121 77 -37 202 -117 252 -161 l33 -29 -265 -450 c-146 -247 -268 -451 -272 -452 -8 -2 -685 1177 -691 1202 -5 22 110 34 303 30 109 -2 215 -9 270 -19z m-524 -539 l265 -452 -699 -3 c-385 -1 -702 0 -704 2 -6 6 44 132 88 218 96 191 241 365 408 491 113 85 313 193 366 196 6 1 130 -203 276 -452z m1476 -79 c192 -290 281 -648 244 -978 -7 -58 -14 -113 -17 -122 -5 -17 -40 -18 -546 -18 -316 0 -538 4 -536 9 2 5 167 293 368 640 l365 632 29 -33 c15 -18 57 -77 93 -130z m-1587 -553 c0 -4 -55 -99 -123 -213 -68 -114 -233 -400 -367 -635 l-245 -428 -29 33 c-53 61 -157 227 -200 320 -86 184 -132 366 -143 568 -5 102 7 289 23 343 5 16 40 17 545 17 296 0 539 -2 539 -5z m334 -1134 c237 -408 334 -586 326 -591 -24 -15 -275 -33 -374 -27 -264 17 -509 94 -706 225 -41 27 -90 63 -107 78 l-33 29 267 453 c229 390 268 450 278 435 6 -10 164 -281 349 -602z m1426 394 c0 -15 -55 -147 -91 -217 -136 -270 -359 -494 -621 -622 -62 -31 -124 -58 -138 -61 -24 -5 -38 17 -280 441 -140 246 -256 451 -258 455 -2 5 309 9 692 9 383 0 696 -2 696 -5z"/>
 </g>

</svg>