<!DOCTYPE svg PUBLIC "-//W3C//DTD SVG 20010904//EN" "http://www.w3.org/TR/2001/REC-SVG-20010904/DTD/svg10.dtd">
<svg version="1.0" xmlns="http://www.w3.org/2000/svg" width="512px" height="512px" viewBox="0 0 5120 5120" preserveAspectRatio="xMidYMid meet">
<g id="layer1" fill="#fffefe" stroke="none">
 <path d="M1795 3487 c-3 -6 -4 -170 -3 -362 l3 -350 63 -3 c56 -3 64 -1 69 17 5 19 6 18 39 -4 99 -67 243 -27 294 82 30 64 38 199 17 273 -21 70 -67 133 -115 156 -47 22 -137 23 -182 1 -18 -9 -35 -17 -37 -17 -1 0 -3 41 -3 91 0 121 -5 129 -81 129 -39 0 -61 -4 -64 -13z m294 -313 c34 -24 51 -74 51 -151 0 -124 -55 -167 -156 -124 l-49 21 3 116 3 115 32 19 c39 24 85 25 116 4z"/>
 <path d="M2545 3315 c-5 -2 -22 -6 -37 -9 -37 -8 -85 -51 -108 -96 -40 -78 -42 -258 -3 -334 20 -41 61 -84 98 -104 40 -21 141 -20 182 1 18 9 34 17 37 17 3 0 7 -53 8 -117 l3 -118 65 0 65 0 0 370 0 370 -58 3 c-51 3 -59 1 -64 -16 -5 -19 -6 -19 -46 3 -39 22 -119 39 -142 30z m133 -145 l42 -19 0 -119 0 -118 -35 -17 c-44 -21 -94 -22 -122 -2 -25 17 -53 94 -53 143 0 86 43 152 99 152 14 0 45 -9 69 -20z"/>
 <path d="M3007 3294 c-4 -4 -7 -97 -7 -206 0 -187 -1 -198 -19 -198 -29 0 -43 -25 -39 -72 3 -38 6 -43 29 -46 24 -3 27 -8 33 -63 10 -104 45 -146 134 -164 31 -7 80 -9 107 -6 l50 6 -3 50 c-5 66 -14 76 -68 68 -57 -8 -74 7 -74 63 l0 43 48 3 47 3 0 55 0 55 -47 3 -48 3 -2 202 -3 202 -65 3 c-36 2 -69 0 -73 -4z"/>
 </g>
<g id="layer2" fill="#fb8d8d" stroke="none">
 <path d="M1915 3490 c-4 -6 -3 -16 3 -22 6 -6 12 -6 17 2 4 6 3 16 -3 22 -6 6 -12 6 -17 -2z"/>
 <path d="M2016 3313 c-4 -4 -12 -8 -17 -8 -5 0 -9 -3 -9 -7 0 -8 3 -9 18 -7 4 1 15 2 24 3 10 0 18 6 18 11 1 13 -23 18 -34 8z"/>
 <path d="M2085 3310 c-7 -12 20 -24 34 -16 5 4 12 2 16 -4 4 -6 11 -8 16 -4 5 3 7 10 3 15 -3 5 -9 7 -14 4 -5 -3 -11 -1 -15 5 -8 13 -32 13 -40 0z"/>
 <path d="M2515 3310 c-8 -12 20 -24 35 -15 6 3 8 11 5 16 -8 12 -32 12 -40 -1z"/>
 <path d="M2595 3310 c-8 -12 20 -24 35 -15 6 3 8 11 5 16 -8 12 -32 12 -40 -1z"/>
 <path d="M2839 3306 c-9 -10 6 -746 16 -749 6 -1 11 126 13 364 2 298 0 368 -11 378 -8 6 -16 9 -18 7z"/>
 <path d="M2206 3252 c-3 -5 3 -17 13 -26 11 -10 22 -13 25 -8 3 5 -3 17 -13 26 -11 10 -22 13 -25 8z"/>
 <path d="M1995 3199 c-7 -10 22 -25 31 -16 3 3 19 1 35 -3 33 -10 49 4 22 18 -24 12 -81 13 -88 1z"/>
 <path d="M2575 3199 c-8 -11 6 -17 40 -15 17 1 35 -2 42 -7 6 -4 14 -4 17 2 4 5 2 12 -4 16 -5 3 -10 3 -10 -1 0 -3 -6 -2 -12 4 -15 12 -66 13 -73 1z"/>
 <path d="M2696 3172 c-3 -6 1 -15 8 -21 8 -7 17 -8 20 -3 3 6 -1 15 -8 21 -8 7 -17 8 -20 3z"/>
 <path d="M2374 3156 c-4 -10 -2 -22 4 -28 8 -8 13 -7 18 6 4 10 2 22 -4 28 -8 8 -13 7 -18 -6z"/>
 <path d="M2116 3152 c-3 -5 1 -17 8 -28 8 -10 12 -24 9 -30 -6 -15 14 -28 22 -14 3 5 3 16 -2 23 -4 6 -8 18 -10 26 -3 20 -20 35 -27 23z"/>
 <path d="M2366 3088 c-8 -25 -1 -108 9 -110 13 -4 17 110 4 118 -5 3 -11 -1 -13 -8z"/>
 <path d="M2495 3088 c-8 -23 0 -103 10 -103 13 0 18 102 5 110 -6 3 -12 0 -15 -7z"/>
 <path d="M2137 2984 c-4 -4 -7 -15 -7 -25 0 -10 -11 -31 -25 -47 -14 -17 -21 -33 -16 -36 11 -7 57 45 66 75 7 22 -6 45 -18 33z"/>
 <path d="M2264 2956 c-4 -10 -2 -22 4 -28 8 -8 13 -7 18 6 4 10 2 22 -4 28 -8 8 -13 7 -18 -6z"/>
 <path d="M2374 2946 c-4 -10 -2 -22 4 -28 8 -8 13 -7 18 6 4 10 2 22 -4 28 -8 8 -13 7 -18 -6z"/>
 <path d="M1916 2932 c-3 -6 1 -15 8 -21 8 -7 17 -8 20 -3 3 6 -1 15 -8 21 -8 7 -17 8 -20 3z"/>
 <path d="M2526 2922 c-3 -5 6 -20 20 -32 41 -39 124 -33 181 12 27 21 1 26 -33 6 -47 -28 -108 -27 -138 1 -13 13 -26 18 -30 13z"/>
 <path d="M2937 2884 c-14 -14 -7 -101 8 -114 8 -7 15 -10 16 -6 0 3 1 32 1 63 0 53 -8 73 -25 57z"/>
 <path d="M1926 2822 c-3 -6 1 -15 8 -21 8 -7 17 -8 20 -3 3 6 -1 15 -8 21 -8 7 -17 8 -20 3z"/>
 <path d="M2186 2801 c-10 -11 -13 -22 -8 -25 5 -3 17 3 26 13 10 11 13 22 8 25 -5 3 -17 -3 -26 -13z"/>
 <path d="M2985 2781 c-7 -12 12 -24 25 -16 11 7 4 25 -10 25 -5 0 -11 -4 -15 -9z"/>
 <path d="M2015 2770 c-8 -12 20 -24 35 -15 6 3 8 11 5 16 -8 12 -32 12 -40 -1z"/>
 <path d="M2105 2770 c-8 -12 20 -24 35 -15 6 3 8 11 5 16 -8 12 -32 12 -40 -1z"/>
 <path d="M2525 2770 c-8 -12 20 -24 35 -15 6 3 8 11 5 16 -8 12 -32 12 -40 -1z"/>
 <path d="M2605 2770 c-8 -12 20 -24 35 -15 6 3 8 11 5 16 -8 12 -32 12 -40 -1z"/>
 <path d="M3004 2686 c-4 -9 -1 -23 6 -31 7 -8 9 -15 6 -15 -4 0 -2 -9 4 -20 6 -11 15 -18 21 -15 5 4 4 15 -3 28 -7 12 -11 29 -10 39 4 22 -17 33 -24 14z"/>
 <path d="M3165 2660 c-3 -5 0 -13 9 -16 21 -8 71 -1 71 11 0 14 -72 19 -80 5z"/>
 <path d="M3274 2616 c-4 -10 -2 -22 4 -28 8 -8 13 -7 18 6 4 10 2 22 -4 28 -8 8 -13 7 -18 -6z"/>
 <path d="M3105 2561 c-7 -12 12 -24 24 -16 5 3 12 1 15 -4 8 -13 107 -9 104 4 -2 6 -26 10 -55 11 -29 0 -56 3 -59 7 -10 10 -22 9 -29 -2z"/>
 <path d="M3042 1779 c-53 -27 -97 -79 -119 -144 -16 -44 -18 -94 -18 -440 l0 -390 64 -3 65 -3 433 433 434 433 -3 65 -3 65 -405 3 c-395 2 -406 2 -448 -19z"/>
 </g>
<g id="layer3" fill="#bfbfbf" stroke="none">
 <path d="M2325 5115 c-5 -2 -66 -9 -135 -14 -406 -34 -903 -253 -1270 -559 -521 -435 -856 -1057 -909 -1687 -14 -166 -14 -424 0 -590 37 -439 208 -870 500 -1261 95 -127 366 -398 493 -493 319 -239 667 -397 1031 -469 279 -56 771 -56 1050 0 468 93 899 321 1253 662 368 356 604 761 722 1241 39 158 50 261 57 545 4 167 1 269 -11 395 -43 456 -232 904 -543 1290 -97 121 -306 326 -423 417 -377 292 -813 472 -1243 513 -133 13 -545 20 -572 10z m505 -86 c832 -85 1587 -613 1955 -1364 178 -364 256 -700 256 -1105 0 -281 -33 -499 -113 -749 -126 -394 -318 -711 -608 -1002 -276 -277 -576 -467 -942 -594 -1046 -366 -2220 13 -2853 920 -591 848 -598 1976 -17 2825 103 150 166 226 301 360 291 290 608 482 1003 608 325 104 662 137 1018 101z"/>
 </g>
<g id="layer4" fill="#cb0606" stroke="none">
 <path d="M1385 4289 c-54 -27 -120 -93 -145 -146 -20 -42 -20 -58 -20 -1587 0 -1374 2 -1548 16 -1581 21 -52 97 -129 150 -154 44 -21 52 -21 787 -19 l742 3 5 395 c5 334 8 402 22 437 24 61 46 90 87 115 36 23 41 23 451 28 l415 5 3 1156 c2 1029 0 1160 -14 1194 -21 52 -97 129 -149 154 -45 21 -50 21 -1177 21 -1111 -1 -1134 -1 -1173 -21z m535 -917 c0 -60 2 -111 5 -114 3 -3 27 6 53 19 63 33 142 29 201 -10 58 -38 82 -98 88 -218 6 -105 -3 -149 -43 -211 -47 -74 -158 -90 -253 -38 -51 28 -53 28 -58 10 -4 -17 -14 -20 -54 -20 l-49 0 0 345 0 345 55 0 55 0 0 -108z m727 -84 c15 -7 40 -20 55 -31 29 -19 48 -16 48 8 0 9 17 14 50 17 l50 3 0 -357 0 -358 -55 0 -55 0 0 118 c0 65 -3 121 -6 125 -3 3 -27 -6 -54 -19 -115 -57 -230 -10 -281 116 -9 22 -14 71 -13 135 0 91 3 105 30 155 36 67 87 100 156 100 26 0 60 -5 75 -12z m485 -210 l3 -203 48 -3 47 -3 0 -39 0 -39 -47 -3 -48 -3 -3 -49 c-4 -67 14 -86 83 -86 46 0 53 -3 59 -22 14 -52 8 -67 -30 -74 -48 -9 -120 2 -158 24 -42 24 -66 75 -66 139 0 43 -4 54 -21 63 -11 7 -27 9 -35 6 -11 -4 -14 5 -14 39 0 42 1 44 33 47 l32 3 3 203 2 202 55 0 55 0 2 -202z"/>
 <path d="M2005 3200 c-17 -4 -43 -15 -58 -24 -27 -18 -27 -19 -27 -136 0 -116 1 -119 26 -139 99 -78 197 -30 211 101 13 129 -56 219 -152 198z"/>
 <path d="M2585 3202 c-26 -5 -54 -30 -72 -65 -16 -32 -19 -149 -5 -187 13 -32 60 -76 90 -83 30 -7 84 8 116 34 25 20 26 24 26 133 l0 112 -29 22 c-32 24 -94 40 -126 34z"/>
 </g>

</svg>