<!DOCTYPE svg PUBLIC "-//W3C//DTD SVG 20010904//EN" "http://www.w3.org/TR/2001/REC-SVG-20010904/DTD/svg10.dtd">
<svg version="1.0" xmlns="http://www.w3.org/2000/svg" width="512px" height="512px" viewBox="0 0 5120 5120" preserveAspectRatio="xMidYMid meet">
<g id="layer1" fill="#7f7f7f" stroke="none">
 <path d="M2325 5115 c-5 -2 -66 -9 -135 -14 -406 -34 -903 -253 -1270 -559 -521 -435 -856 -1057 -909 -1687 -14 -166 -14 -424 0 -590 37 -439 208 -870 500 -1261 95 -127 366 -398 493 -493 319 -239 667 -397 1031 -469 279 -56 771 -56 1050 0 468 93 899 321 1253 662 368 356 604 761 722 1241 39 158 50 261 57 545 4 167 1 269 -11 395 -43 456 -232 904 -543 1290 -97 121 -306 326 -423 417 -377 292 -813 472 -1243 513 -133 13 -545 20 -572 10z m588 -90 c348 -55 706 -185 967 -351 316 -201 593 -478 794 -794 172 -270 303 -638 357 -1005 18 -116 18 -521 1 -630 -68 -429 -187 -745 -403 -1068 -315 -472 -768 -815 -1306 -987 -256 -82 -469 -114 -763 -114 -372 0 -660 58 -986 199 -589 254 -1045 710 -1299 1299 -141 326 -199 614 -199 986 0 239 12 350 59 560 120 535 438 1043 865 1383 387 308 841 488 1365 541 86 9 454 -4 548 -19z"/>
 </g>
<g id="layer2" fill="#f39c12" stroke="none">
 <path d="M1015 3637 c-3 -7 -4 -149 -3 -317 l3 -305 1550 0 1550 0 0 315 0 315 -1548 3 c-1239 2 -1549 0 -1552 -11z m615 -307 l0 -140 -145 0 -145 0 0 140 0 140 145 0 145 0 0 -140z"/>
 <path d="M1015 2867 c-3 -7 -4 -149 -3 -317 l3 -305 1550 0 1550 0 0 315 0 315 -1548 3 c-1239 2 -1549 0 -1552 -11z m615 -307 l0 -140 -145 0 -145 0 0 140 0 140 145 0 145 0 0 -140z"/>
 <path d="M1015 2097 c-3 -7 -4 -149 -3 -317 l3 -305 1550 0 1550 0 0 315 0 315 -1548 3 c-1239 2 -1549 0 -1552 -11z m615 -307 l0 -140 -145 0 -145 0 0 140 0 140 145 0 145 0 0 -140z"/>
 </g>
<g id="layer3" fill="#ffffff" stroke="none">
 <path d="M2365 5064 c-276 -28 -520 -86 -750 -181 -754 -308 -1324 -978 -1500 -1763 -47 -210 -59 -321 -59 -560 0 -372 58 -660 199 -986 130 -303 296 -546 535 -784 396 -397 859 -629 1430 -716 84 -13 175 -18 340 -18 239 0 350 12 560 59 785 176 1455 746 1763 1500 79 192 130 381 169 630 17 109 17 514 -1 630 -54 367 -185 735 -357 1005 -203 319 -495 611 -814 814 -261 166 -619 296 -967 351 -94 15 -462 28 -548 19z m1735 -1734 l0 -300 -1535 0 -1535 0 0 300 0 300 1535 0 1535 0 0 -300z m0 -770 l0 -300 -1535 0 -1535 0 0 300 0 300 1535 0 1535 0 0 -300z m0 -770 l0 -300 -1535 0 -1535 0 0 300 0 300 1535 0 1535 0 0 -300z"/>
 <path d="M1324 3477 c-2 -7 -3 -78 -2 -157 l3 -145 160 0 160 0 0 155 0 155 -158 3 c-123 2 -159 0 -163 -11z"/>
 <path d="M1324 2707 c-2 -7 -3 -78 -2 -157 l3 -145 160 0 160 0 0 155 0 155 -158 3 c-123 2 -159 0 -163 -11z"/>
 <path d="M1324 1937 c-2 -7 -3 -78 -2 -157 l3 -145 160 0 160 0 0 155 0 155 -158 3 c-123 2 -159 0 -163 -11z"/>
 </g>

</svg>