<!DOCTYPE svg PUBLIC "-//W3C//DTD SVG 20010904//EN" "http://www.w3.org/TR/2001/REC-SVG-20010904/DTD/svg10.dtd">
<svg version="1.0" xmlns="http://www.w3.org/2000/svg" width="512px" height="511px" viewBox="0 0 5120 5110" preserveAspectRatio="xMidYMid meet">
<g id="layer1" fill="#7f7f7f" stroke="none">
 <path d="M2240 5098 c-277 -25 -532 -100 -815 -238 -787 -385 -1344 -1179 -1414 -2015 -14 -166 -14 -414 0 -580 38 -452 216 -896 517 -1285 91 -117 296 -325 417 -423 330 -267 765 -467 1145 -526 199 -32 527 -40 765 -20 753 63 1479 523 1900 1204 193 311 318 669 350 1004 28 301 13 692 -35 912 -52 236 -177 541 -313 761 -408 666 -1129 1133 -1858 1203 -166 16 -503 18 -659 3z m673 -83 c439 -69 819 -228 1164 -486 126 -95 368 -337 460 -459 273 -367 429 -746 495 -1205 20 -138 16 -513 -6 -660 -144 -953 -796 -1724 -1703 -2015 -256 -82 -469 -114 -763 -114 -239 0 -350 12 -560 59 -637 143 -1194 539 -1554 1105 -174 273 -307 651 -357 1010 -19 136 -17 505 4 643 43 283 116 517 237 762 296 600 805 1044 1435 1254 197 65 343 95 605 125 77 9 450 -4 543 -19z"/>
 </g>
<g id="layer2" fill="#f1c40f" stroke="none">
 <path d="M1834 3706 c-3 -8 -4 -93 -2 -188 l3 -173 35 -64 c99 -184 394 -336 800 -414 167 -32 493 -32 660 0 406 78 701 230 800 414 l35 64 0 185 0 185 -1163 3 c-1005 2 -1163 0 -1168 -12z"/>
 <path d="M1407 2994 c-4 -4 -7 -102 -7 -218 l0 -211 -208 3 c-171 2 -211 0 -221 -11 -8 -10 -11 -58 -9 -153 l3 -139 217 -3 218 -2 2 -218 3 -217 145 0 145 0 3 218 2 218 210 -1 c115 -1 214 1 220 5 17 10 13 280 -4 294 -10 8 -74 11 -220 9 l-206 -3 -2 215 -3 215 -141 3 c-77 1 -143 -1 -147 -4z"/>
 <path d="M2854 2546 c-162 -46 -307 -163 -380 -309 -35 -68 -64 -188 -64 -262 0 -80 31 -200 72 -278 68 -129 221 -249 372 -292 92 -27 259 -17 351 20 185 74 317 222 365 411 73 284 -82 576 -365 689 -60 24 -87 29 -185 32 -78 2 -131 -2 -166 -11z"/>
 </g>
<g id="layer3" fill="#ffffff" stroke="none">
 <path d="M2370 5054 c-262 -30 -408 -60 -605 -125 -632 -211 -1156 -670 -1455 -1274 -121 -245 -194 -479 -237 -762 -21 -138 -23 -507 -4 -643 50 -359 183 -737 357 -1010 147 -230 389 -501 584 -652 365 -282 744 -443 1210 -514 160 -25 520 -25 680 0 556 85 1012 308 1403 685 401 388 659 889 743 1446 22 147 26 522 6 660 -66 459 -221 838 -495 1205 -92 122 -354 384 -480 479 -345 258 -725 417 -1164 486 -93 15 -466 28 -543 19z m1778 -1531 l-3 -178 -36 -65 c-101 -185 -438 -343 -860 -404 -523 -77 -1205 126 -1358 404 l-36 65 -3 178 -4 177 1152 0 1152 0 -4 -177z m-2468 -752 c0 -133 4 -212 10 -216 6 -4 105 -6 220 -5 l210 1 0 -138 0 -138 -206 3 c-146 2 -210 -1 -220 -9 -11 -9 -14 -53 -14 -220 l0 -209 -130 0 -130 0 0 208 c0 148 -3 211 -12 220 -9 9 -72 12 -220 12 l-208 0 0 135 0 136 210 -1 c115 -1 214 1 220 5 6 4 10 83 10 216 l0 209 130 0 130 0 0 -209z m1525 -266 c181 -72 298 -205 346 -393 57 -223 -30 -465 -213 -595 -103 -73 -184 -100 -314 -105 -128 -5 -187 8 -299 66 -136 71 -235 200 -275 358 -45 174 -5 357 109 501 66 84 195 164 308 193 21 5 90 8 153 6 99 -2 125 -7 185 -31z"/>
 </g>

</svg>