<!DOCTYPE svg PUBLIC "-//W3C//DTD SVG 20010904//EN" "http://www.w3.org/TR/2001/REC-SVG-20010904/DTD/svg10.dtd">
<svg version="1.0" xmlns="http://www.w3.org/2000/svg" width="512px" height="512px" viewBox="0 0 5120 5120" preserveAspectRatio="xMidYMid meet">
<g id="layer1" fill="#7f7f7f" stroke="none">
 <path d="M2325 5115 c-5 -2 -66 -9 -135 -14 -406 -34 -903 -253 -1270 -559 -521 -435 -856 -1057 -909 -1687 -14 -166 -14 -424 0 -590 37 -439 208 -870 500 -1261 95 -127 366 -398 493 -493 319 -239 667 -397 1031 -469 279 -56 771 -56 1050 0 468 93 899 321 1253 662 368 356 604 761 722 1241 39 158 50 261 57 545 4 167 1 269 -11 395 -43 456 -232 904 -543 1290 -97 121 -306 326 -423 417 -377 292 -813 472 -1243 513 -133 13 -545 20 -572 10z m588 -90 c348 -55 706 -185 967 -351 316 -201 593 -478 794 -794 172 -270 303 -638 357 -1005 18 -116 18 -521 1 -630 -68 -429 -187 -745 -403 -1068 -315 -472 -768 -815 -1306 -987 -256 -82 -469 -114 -763 -114 -372 0 -660 58 -986 199 -589 254 -1045 710 -1299 1299 -141 326 -199 614 -199 986 0 239 12 350 59 560 120 535 438 1043 865 1383 387 308 841 488 1365 541 86 9 454 -4 548 -19z"/>
 </g>
<g id="layer2" fill="#3498db" stroke="none">
 <path d="M2315 3835 c-736 -97 -1345 -556 -1635 -1232 l-22 -52 64 -133 c204 -424 539 -757 963 -959 557 -264 1193 -264 1750 0 424 202 759 535 963 959 l64 133 -22 52 c-231 539 -682 957 -1230 1140 -282 94 -615 128 -895 92z m490 -470 c286 -84 497 -300 576 -591 31 -113 31 -325 0 -438 -79 -291 -287 -504 -576 -592 -81 -25 -105 -28 -245 -28 -140 0 -164 3 -245 28 -289 88 -497 301 -576 592 -31 113 -31 325 0 438 88 325 341 555 678 616 26 5 104 7 173 5 98 -3 144 -9 215 -30z"/>
 <path d="M2444 3065 c-183 -40 -336 -185 -389 -368 -22 -76 -22 -208 0 -283 42 -145 137 -259 269 -324 213 -105 457 -63 615 105 100 107 143 216 143 360 0 149 -52 274 -156 373 -131 126 -306 175 -482 137z"/>
 </g>
<g id="layer3" fill="#ffffff" stroke="none">
 <path d="M2365 5064 c-276 -28 -520 -86 -750 -181 -754 -308 -1324 -978 -1500 -1763 -47 -210 -59 -321 -59 -560 0 -372 58 -660 199 -986 130 -303 296 -546 535 -784 396 -397 859 -629 1430 -716 84 -13 175 -18 340 -18 239 0 350 12 560 59 785 176 1455 746 1763 1500 79 192 130 381 169 630 17 109 17 514 -1 630 -54 367 -185 735 -357 1005 -203 319 -495 611 -814 814 -261 166 -619 296 -967 351 -94 15 -462 28 -548 19z m425 -1248 c743 -93 1340 -538 1630 -1213 l22 -52 -64 -133 c-203 -420 -523 -739 -943 -939 -557 -264 -1193 -264 -1750 0 -420 200 -740 519 -943 939 l-64 133 22 52 c198 461 536 814 985 1028 345 164 741 230 1105 185z"/>
 <path d="M2417 3410 c-340 -62 -609 -306 -698 -636 -31 -113 -31 -325 0 -438 80 -294 303 -523 596 -612 81 -25 105 -28 245 -28 140 0 164 3 245 28 293 89 516 318 596 612 31 113 31 325 0 438 -80 294 -306 526 -596 611 -71 21 -117 27 -215 30 -69 2 -147 0 -173 -5z m254 -364 c237 -50 391 -244 391 -491 0 -259 -170 -458 -424 -497 -211 -32 -433 75 -523 251 -103 204 -65 464 90 610 122 115 296 163 466 127z"/>
 </g>

</svg>