<!DOCTYPE svg PUBLIC "-//W3C//DTD SVG 20010904//EN" "http://www.w3.org/TR/2001/REC-SVG-20010904/DTD/svg10.dtd">
<svg version="1.0" xmlns="http://www.w3.org/2000/svg" width="512px" height="512px" viewBox="0 0 5120 5120" preserveAspectRatio="xMidYMid meet">
<g id="layer1" fill="#7f7f7f" stroke="none">
 <path d="M2325 5115 c-5 -2 -66 -9 -135 -14 -406 -34 -903 -253 -1270 -559 -521 -435 -856 -1057 -909 -1687 -14 -166 -14 -424 0 -590 37 -439 208 -870 500 -1261 95 -127 366 -398 493 -493 319 -239 667 -397 1031 -469 279 -56 771 -56 1050 0 468 93 899 321 1253 662 368 356 604 761 722 1241 39 158 50 261 57 545 4 167 1 269 -11 395 -43 456 -232 904 -543 1290 -97 121 -306 326 -423 417 -377 292 -813 472 -1243 513 -133 13 -545 20 -572 10z m588 -90 c348 -55 706 -185 967 -351 316 -201 593 -478 794 -794 172 -270 303 -638 357 -1005 18 -116 18 -521 1 -630 -68 -429 -187 -745 -403 -1068 -315 -472 -768 -815 -1306 -987 -256 -82 -469 -114 -763 -114 -372 0 -660 58 -986 199 -589 254 -1045 710 -1299 1299 -141 326 -199 614 -199 986 0 239 12 350 59 560 120 535 438 1043 865 1383 387 308 841 488 1365 541 86 9 454 -4 548 -19z"/>
 </g>
<g id="layer2" fill="#2ecc71" stroke="none">
 <path d="M2305 3835 c-316 -43 -592 -145 -850 -313 -130 -84 -225 -164 -351 -294 -172 -178 -294 -354 -386 -560 l-48 -108 48 -107 c92 -207 214 -383 386 -561 126 -130 221 -210 351 -294 674 -438 1536 -438 2210 0 130 84 225 164 351 294 172 178 294 354 386 561 l48 107 -48 108 c-54 120 -130 250 -217 367 -73 98 -255 288 -355 368 -243 197 -551 342 -860 407 -192 40 -480 51 -665 25z m493 -464 c286 -83 491 -290 574 -578 19 -66 23 -102 23 -233 0 -131 -4 -167 -23 -233 -84 -290 -289 -495 -579 -579 -66 -19 -102 -23 -233 -23 -131 0 -167 4 -233 23 -290 84 -495 289 -579 579 -19 66 -23 102 -23 233 0 131 4 167 23 233 93 322 332 535 672 601 14 2 88 3 165 1 106 -2 158 -8 213 -24z"/>
 <path d="M2421 3064 c-83 -22 -164 -70 -229 -136 -205 -204 -205 -532 0 -736 204 -205 532 -205 736 0 205 204 205 532 0 736 -67 67 -147 114 -233 137 -73 19 -202 18 -274 -1z"/>
 </g>
<g id="layer3" fill="#ffffff" stroke="none">
 <path d="M2365 5064 c-276 -28 -520 -86 -750 -181 -754 -308 -1324 -978 -1500 -1763 -47 -210 -59 -321 -59 -560 0 -372 58 -660 199 -986 130 -303 296 -546 535 -784 396 -397 859 -629 1430 -716 84 -13 175 -18 340 -18 239 0 350 12 560 59 785 176 1455 746 1763 1500 79 192 130 381 169 630 17 109 17 514 -1 630 -54 367 -185 735 -357 1005 -203 319 -495 611 -814 814 -261 166 -619 296 -967 351 -94 15 -462 28 -548 19z m441 -1248 c323 -43 596 -143 859 -314 308 -200 569 -503 717 -834 l48 -108 -48 -107 c-148 -332 -409 -635 -717 -835 -674 -438 -1536 -438 -2210 0 -308 200 -569 503 -717 835 l-48 107 48 108 c148 331 409 634 717 834 212 138 457 239 700 288 196 40 461 51 651 26z"/>
 <path d="M2420 3414 c-191 -37 -342 -115 -470 -244 -108 -108 -179 -228 -222 -377 -19 -66 -23 -102 -23 -233 0 -131 4 -167 23 -233 43 -149 114 -269 222 -377 108 -108 228 -179 377 -222 66 -19 102 -23 233 -23 131 0 167 4 233 23 149 43 269 114 377 222 108 108 179 228 222 377 19 66 23 102 23 233 0 131 -4 167 -23 233 -43 149 -114 269 -222 377 -76 76 -134 118 -230 165 -117 59 -198 77 -355 80 -77 2 -151 1 -165 -1z m275 -369 c220 -58 365 -250 365 -485 0 -288 -212 -500 -500 -500 -288 0 -500 212 -500 500 0 233 144 426 361 484 72 19 201 20 274 1z"/>
 </g>

</svg>