<!DOCTYPE svg PUBLIC "-//W3C//DTD SVG 20010904//EN" "http://www.w3.org/TR/2001/REC-SVG-20010904/DTD/svg10.dtd">
<svg version="1.0" xmlns="http://www.w3.org/2000/svg" width="514px" height="514px" viewBox="0 0 5140 5140" preserveAspectRatio="xMidYMid meet">
<g id="layer1" fill="#000000" stroke="none">
 <path d="M404 5125 c-174 -42 -348 -218 -390 -394 -20 -83 -20 -4239 0 -4322 43 -179 216 -352 395 -395 83 -20 4239 -20 4322 0 179 43 352 216 395 395 10 44 13 193 14 689 l0 632 -292 -2 -293 -3 -3 -567 -2 -568 -1980 0 -1980 0 0 1980 0 1980 1980 0 1980 0 2 -567 3 -568 293 -3 292 -2 0 632 c-1 496 -4 645 -14 689 -43 179 -216 352 -395 395 -79 19 -4249 18 -4327 -1z"/>
 <path d="M1985 3290 l-720 -720 720 -720 c396 -396 725 -720 730 -720 10 0 415 401 415 411 0 3 -161 166 -357 362 l-358 357 1363 0 1362 0 0 310 0 310 -1362 0 -1363 0 358 357 c196 196 357 359 357 363 0 10 -405 410 -415 410 -6 0 -334 -324 -730 -720z"/>
 </g>

</svg>