<?xml version="1.0" standalone="no"?>
<!DOCTYPE svg PUBLIC "-//W3C//DTD SVG 20010904//EN"
 "http://www.w3.org/TR/2001/REC-SVG-20010904/DTD/svg10.dtd">
<svg version="1.0" xmlns="http://www.w3.org/2000/svg"
 width="512.000000pt" height="512.000000pt" viewBox="0 0 512.000000 512.000000"
 preserveAspectRatio="xMidYMid meet">
<metadata>
Created by potrace 1.15, written by Peter Selinger 2001-2017
</metadata>
<g transform="translate(0.000000,512.000000) scale(0.100000,-0.100000)"
fill="#000000" stroke="none">
<path d="M2330 5110 c-326 -34 -606 -113 -885 -250 -290 -142 -458 -262 -690
-495 -233 -232 -353 -400 -495 -690 -362 -737 -344 -1594 48 -2330 348 -652
1003 -1143 1722 -1289 214 -43 294 -51 535 -51 244 1 354 12 565 60 949 213
1712 976 1925 1925 48 211 59 321 60 565 0 314 -33 527 -125 805 -127 385
-324 707 -613 999 -401 406 -892 652 -1471 737 -122 18 -459 26 -576 14z m498
-60 c832 -88 1568 -592 1953 -1335 147 -283 231 -559 268 -880 16 -132 13
-441 -4 -585 -68 -553 -318 -1064 -715 -1460 -396 -397 -907 -647 -1460 -715
-144 -17 -453 -20 -585 -4 -577 67 -1095 316 -1495 718 -407 408 -660 937
-720 1503 -13 125 -13 411 0 536 122 1152 1029 2074 2180 2217 130 16 447 19
578 5z"/>
<path d="M1030 3505 l0 -595 23 -5 c12 -3 58 -9 102 -14 44 -6 134 -17 200
-26 66 -9 185 -25 265 -35 395 -52 983 -130 1045 -139 39 -6 264 -36 500 -67
237 -31 432 -58 434 -60 2 -2 2 -6 0 -8 -2 -2 -197 -29 -434 -60 -236 -31
-461 -61 -500 -67 -62 -9 -650 -87 -1045 -139 -80 -10 -199 -26 -265 -35 -66
-9 -156 -20 -200 -26 -44 -5 -90 -11 -102 -14 l-23 -5 0 -595 0 -594 88 39
c48 21 443 190 877 375 435 186 1103 471 1485 635 382 163 795 339 917 391
122 52 222 96 222 99 0 3 -100 47 -222 99 -122 52 -535 228 -917 391 -382 164
-1050 449 -1485 635 -434 185 -829 354 -877 375 l-88 39 0 -594z"/>
</g>
</svg>
