<!DOCTYPE svg PUBLIC "-//W3C//DTD SVG 20010904//EN" "http://www.w3.org/TR/2001/REC-SVG-20010904/DTD/svg10.dtd">
<svg version="1.0" xmlns="http://www.w3.org/2000/svg" width="366px" height="370px" viewBox="0 0 3660 3700" preserveAspectRatio="xMidYMid meet">
<g id="layer1" fill="#000000" stroke="none">
 <path d="M2513 3684 c-108 -19 -250 -86 -340 -160 l-41 -34 -506 0 c-326 0 -507 -4 -511 -10 -4 -6 -202 -10 -561 -10 l-554 0 0 -1630 0 -1630 1263 2 1262 3 3 821 2 822 43 -11 c78 -19 282 -13 381 11 217 54 418 191 549 373 67 95 124 221 142 314 20 106 20 354 0 460 -59 311 -376 625 -687 680 -102 18 -344 18 -445 -1z m369 -248 c144 -31 300 -128 384 -239 58 -77 86 -132 116 -227 33 -107 33 -283 0 -390 -46 -143 -122 -258 -225 -336 -453 -343 -1087 -34 -1087 531 0 433 390 750 812 661z m-1772 -1596 l0 -1390 -440 0 -440 0 0 1390 0 1390 440 0 440 0 0 -1390z m770 1316 c-57 -126 -75 -215 -75 -381 0 -125 4 -164 23 -235 58 -217 216 -435 399 -554 l33 -21 0 -742 0 -743 -440 0 -440 0 0 1370 0 1370 264 0 265 0 -29 -64z"/>
 <path d="M2607 3244 c-4 -4 -7 -81 -7 -170 l0 -164 -167 -2 -168 -3 0 -130 0 -130 167 -3 168 -2 2 -168 3 -167 130 0 130 0 3 167 2 168 173 2 172 3 0 130 0 130 -172 3 -173 2 -2 168 -3 167 -126 3 c-69 1 -128 -1 -132 -4z"/>
 </g>

</svg>