<!DOCTYPE svg PUBLIC "-//W3C//DTD SVG 20010904//EN" "http://www.w3.org/TR/2001/REC-SVG-20010904/DTD/svg10.dtd">
<svg version="1.0" xmlns="http://www.w3.org/2000/svg" width="359px" height="348px" viewBox="0 0 3590 3480" preserveAspectRatio="xMidYMid meet">
<g id="layer1" fill="#000000" stroke="none">
 <path d="M2342 3464 c-147 -27 -328 -121 -464 -244 -73 -65 -170 -194 -215 -285 l-35 -70 -788 3 c-656 2 -789 0 -799 -11 -8 -11 -10 -379 -9 -1408 l3 -1394 1530 0 1530 0 3 762 2 762 75 56 c212 160 362 387 401 608 18 106 18 348 0 454 -64 363 -406 704 -770 768 -101 18 -363 17 -464 -1z m417 -284 c334 -80 554 -362 554 -710 0 -430 -348 -762 -773 -737 -113 7 -191 26 -285 71 -147 70 -261 183 -335 331 -59 120 -75 189 -75 335 0 146 16 215 75 335 45 92 113 178 185 236 78 63 241 135 345 152 74 12 230 6 309 -13z m-1206 -747 c6 -156 28 -252 83 -372 19 -40 34 -75 34 -77 0 -2 -111 -5 -247 -6 l-248 -3 0 -140 0 -140 368 -3 368 -2 49 -39 c73 -58 164 -111 244 -142 l71 -28 -550 -3 -550 -3 -3 -136 c-2 -107 0 -139 11 -148 11 -8 181 -10 648 -9 l634 3 3 126 3 127 147 5 c81 3 157 8 170 12 l22 7 -2 -308 -3 -309 -1242 -3 -1243 -2 0 865 0 865 614 0 613 0 6 -137z m1257 -1988 l0 -105 -1245 0 -1245 0 0 105 0 105 1245 0 1245 0 0 -105z"/>
 <path d="M2437 2984 c-4 -4 -7 -90 -7 -190 l0 -184 -187 -2 -188 -3 -3 -129 c-2 -86 1 -133 9 -142 9 -11 50 -14 190 -14 l179 0 0 -179 c0 -140 3 -181 14 -190 9 -8 56 -11 142 -9 l129 3 3 187 2 188 188 2 187 3 0 140 0 140 -187 3 -188 2 -2 188 -3 187 -136 3 c-74 1 -138 -1 -142 -4z"/>
 <path d="M667 1974 c-4 -4 -7 -65 -7 -134 0 -97 3 -130 14 -139 9 -8 56 -11 142 -9 l129 3 0 140 0 140 -136 3 c-74 1 -138 -1 -142 -4z"/>
 <path d="M667 1474 c-4 -4 -7 -67 -7 -139 0 -101 3 -135 14 -144 9 -8 56 -11 142 -9 l129 3 0 145 0 145 -136 3 c-74 1 -138 -1 -142 -4z"/>
 </g>

</svg>