<!DOCTYPE svg PUBLIC "-//W3C//DTD SVG 20010904//EN" "http://www.w3.org/TR/2001/REC-SVG-20010904/DTD/svg10.dtd">
<svg version="1.0" xmlns="http://www.w3.org/2000/svg" width="257px" height="370px" viewBox="0 0 2570 3700" preserveAspectRatio="xMidYMid meet">
<g id="layer1" fill="#000000" stroke="none">
 <path d="M1430 3685 c-36 -6 -76 -15 -90 -19 -52 -17 -187 -89 -240 -129 l-55 -42 -510 -5 -510 -5 0 -1635 0 -1635 705 0 705 0 3 821 2 822 43 -11 c78 -19 282 -13 381 11 217 54 418 191 549 373 67 95 124 221 142 314 20 106 20 354 0 460 -59 311 -376 625 -687 680 -99 17 -344 18 -438 0z m362 -249 c144 -31 300 -128 384 -239 58 -77 86 -132 116 -227 33 -107 33 -283 0 -390 -46 -143 -122 -258 -225 -336 -453 -343 -1087 -34 -1087 531 0 433 390 750 812 661z m-1002 -280 c-57 -126 -75 -215 -75 -381 0 -125 4 -164 23 -235 58 -217 216 -435 399 -554 l33 -21 0 -742 0 -743 -440 0 -440 0 0 1370 0 1370 264 0 265 0 -29 -64z"/>
 <path d="M1517 3244 c-4 -4 -7 -81 -7 -170 l0 -164 -167 -2 -168 -3 0 -130 0 -130 167 -3 168 -2 2 -168 3 -167 130 0 130 0 3 167 2 168 173 2 172 3 0 130 0 130 -172 3 -173 2 -2 168 -3 167 -126 3 c-69 1 -128 -1 -132 -4z"/>
 </g>

</svg>