<!DOCTYPE svg PUBLIC "-//W3C//DTD SVG 20010904//EN" "http://www.w3.org/TR/2001/REC-SVG-20010904/DTD/svg10.dtd">
<svg version="1.0" xmlns="http://www.w3.org/2000/svg" width="408px" height="408px" viewBox="0 0 4080 4080" preserveAspectRatio="xMidYMid meet">
<g id="layer1" fill="#39835a" stroke="none">
 <path d="M1570 2635 c0 -8 5 -15 10 -15 6 0 10 7 10 15 0 8 -4 15 -10 15 -5 0 -10 -7 -10 -15z"/>
 <path d="M1450 2625 c0 -8 5 -15 10 -15 6 0 10 7 10 15 0 8 -4 15 -10 15 -5 0 -10 -7 -10 -15z"/>
 <path d="M1640 2625 c0 -8 5 -15 10 -15 6 0 10 7 10 15 0 8 -4 15 -10 15 -5 0 -10 -7 -10 -15z"/>
 <path d="M1347 2613 c-12 -11 -8 -23 8 -23 8 0 15 7 15 15 0 16 -12 20 -23 8z"/>
 <path d="M860 2585 c0 -8 5 -15 10 -15 6 0 10 7 10 15 0 8 -4 15 -10 15 -5 0 -10 -7 -10 -15z"/>
 <path d="M720 2561 c0 -20 17 -37 27 -28 7 8 -7 47 -18 47 -5 0 -9 -9 -9 -19z"/>
 <path d="M984 2544 c3 -9 6 -18 6 -20 0 -2 7 -4 16 -4 11 0 14 5 10 16 -3 9 -6 18 -6 20 0 2 -7 4 -16 4 -11 0 -14 -5 -10 -16z"/>
 <path d="M1312 2528 c-16 -16 -15 -28 3 -28 8 0 15 9 15 20 0 23 -2 24 -18 8z"/>
 <path d="M1573 2505 c-3 -9 -3 -18 0 -21 9 -9 27 6 27 22 0 19 -19 18 -27 -1z"/>
 <path d="M1272 2438 c-16 -16 -15 -28 3 -28 8 0 15 9 15 20 0 23 -2 24 -18 8z"/>
 <path d="M1040 2431 c0 -21 13 -41 26 -41 17 0 17 5 4 31 -11 20 -30 26 -30 10z"/>
 <path d="M792 2418 c6 -18 28 -21 28 -4 0 9 -7 16 -16 16 -9 0 -14 -5 -12 -12z"/>
 <path d="M1483 2335 c-3 -9 -3 -18 0 -21 9 -9 27 6 27 22 0 19 -19 18 -27 -1z"/>
 <path d="M1220 2330 c0 -5 7 -10 15 -10 8 0 15 5 15 10 0 6 -7 10 -15 10 -8 0 -15 -4 -15 -10z"/>
 <path d="M870 2282 c0 -17 32 -72 41 -72 13 0 11 12 -7 48 -14 30 -34 43 -34 24z"/>
 <path d="M1175 2230 c-3 -11 -13 -20 -21 -20 -8 0 -14 -4 -14 -10 0 -5 7 -10 15 -10 8 0 15 5 15 10 0 6 6 10 14 10 12 0 26 20 26 36 0 14 -30 0 -35 -16z"/>
 <path d="M2780 2056 c0 -142 2 -166 15 -166 13 0 15 22 13 162 -2 118 -6 162 -15 166 -10 3 -13 -34 -13 -162z"/>
 <path d="M1403 2185 c-3 -9 -3 -18 0 -21 9 -9 27 6 27 22 0 19 -19 18 -27 -1z"/>
 <path d="M952 2118 c6 -18 28 -21 28 -4 0 9 -7 16 -16 16 -9 0 -14 -5 -12 -12z"/>
 <path d="M1380 1892 c0 -17 32 -72 41 -72 13 0 11 12 -7 48 -14 30 -34 43 -34 24z"/>
 <path d="M1150 1830 c0 -5 7 -10 15 -10 8 0 15 5 15 10 0 6 -7 10 -15 10 -8 0 -15 -4 -15 -10z"/>
 <path d="M907 1813 c-12 -11 -8 -23 8 -23 8 0 15 7 15 15 0 16 -12 20 -23 8z"/>
 <path d="M1192 1778 c6 -18 28 -21 28 -4 0 9 -7 16 -16 16 -9 0 -14 -5 -12 -12z"/>
 <path d="M866 1728 c-19 -38 -19 -38 -3 -38 11 0 37 43 37 62 0 19 -20 5 -34 -24z"/>
 <path d="M2780 1610 c0 -127 2 -150 15 -150 13 0 15 23 15 150 0 127 -2 150 -15 150 -13 0 -15 -23 -15 -150z"/>
 <path d="M1100 1694 c0 -9 5 -14 12 -12 18 6 21 28 4 28 -9 0 -16 -7 -16 -16z"/>
 <path d="M1500 1661 c0 -21 13 -41 26 -41 17 0 17 5 4 31 -11 20 -30 26 -30 10z"/>
 <path d="M1080 1644 c0 -17 22 -14 28 4 2 7 -3 12 -12 12 -9 0 -16 -7 -16 -16z"/>
 <path d="M1252 1648 c6 -18 28 -21 28 -4 0 9 -7 16 -16 16 -9 0 -14 -5 -12 -12z"/>
 <path d="M1060 1594 c0 -17 22 -14 28 4 2 7 -3 12 -12 12 -9 0 -16 -7 -16 -16z"/>
 <path d="M1010 1480 c0 -5 7 -10 15 -10 8 0 15 5 15 10 0 6 -7 10 -15 10 -8 0 -15 -4 -15 -10z"/>
 <path d="M760 1455 c0 -8 5 -15 10 -15 6 0 10 7 10 15 0 8 -4 15 -10 15 -5 0 -10 -7 -10 -15z"/>
 <path d="M880 1445 c0 -8 5 -15 10 -15 6 0 10 7 10 15 0 8 -4 15 -10 15 -5 0 -10 -7 -10 -15z"/>
 <path d="M1340 1452 c0 -15 28 -47 35 -40 11 11 -5 48 -21 48 -8 0 -14 -4 -14 -8z"/>
 <path d="M1612 1444 c1 -9 9 -19 16 -22 9 -3 13 2 10 14 -1 9 -9 19 -16 22 -9 3 -13 -2 -10 -14z"/>
 <path d="M1580 1395 c0 -8 9 -15 20 -15 11 0 20 7 20 15 0 8 -9 15 -20 15 -11 0 -20 -7 -20 -15z"/>
 </g>
<g id="layer2" fill="#fefffe" stroke="none">
 <path d="M2291 3296 c-8 -9 -11 -51 -9 -122 l3 -109 253 -3 252 -2 0 -150 0 -150 -252 -2 -253 -3 0 -60 0 -60 253 -3 252 -2 0 -145 0 -145 -244 0 c-198 0 -246 -3 -255 -14 -7 -8 -11 -37 -9 -68 l3 -53 253 -3 252 -2 0 -150 0 -150 -252 -2 -253 -3 -3 -58 c-2 -35 2 -64 9 -73 9 -11 57 -14 255 -14 l244 0 0 -145 0 -145 -244 0 c-198 0 -246 -3 -255 -14 -7 -8 -11 -37 -9 -68 l3 -53 253 -3 252 -2 0 -150 0 -150 -252 -2 -253 -3 -3 -109 c-2 -71 1 -113 9 -122 10 -12 127 -14 723 -14 540 0 715 3 724 12 17 17 17 2499 0 2516 -9 9 -184 12 -724 12 -596 0 -713 -2 -723 -14z m1209 -386 l0 -150 -280 0 -280 0 0 150 0 150 280 0 280 0 0 -150z m0 -425 l0 -145 -280 0 -280 0 0 145 0 145 280 0 280 0 0 -145z m0 -435 l0 -150 -280 0 -280 0 0 150 0 150 280 0 280 0 0 -150z m0 -445 l0 -145 -280 0 -280 0 0 145 0 145 280 0 280 0 0 -145z m0 -435 l0 -150 -280 0 -280 0 0 150 0 150 280 0 280 0 0 -150z"/>
 <path d="M1432 2633 c-51 -3 -65 -8 -77 -26 -12 -18 -169 -368 -188 -417 -4 -12 -6 -12 -6 2 -1 20 -163 371 -182 394 -10 13 -26 15 -83 9 -146 -12 -166 -16 -166 -32 0 -9 64 -135 141 -280 l141 -265 -57 -121 c-32 -67 -91 -188 -132 -269 -40 -81 -73 -154 -73 -162 0 -16 48 -24 179 -28 l84 -3 82 201 81 201 83 -188 c46 -103 91 -200 101 -217 l18 -29 128 -6 c71 -3 132 -3 136 1 4 4 -64 144 -151 310 l-158 303 158 299 c88 164 159 306 159 314 0 17 -47 18 -218 9z"/>
 </g>
<g id="layer3" fill="#1e7143" stroke="none">
 <path d="M2130 3776 c-58 -12 -136 -28 -175 -35 -88 -16 -132 -24 -325 -62 -85 -16 -168 -31 -185 -34 -16 -2 -50 -8 -75 -14 -25 -5 -72 -14 -105 -20 -33 -6 -107 -20 -165 -31 -58 -11 -132 -25 -165 -31 -94 -17 -147 -27 -335 -63 -96 -19 -206 -39 -245 -46 -38 -7 -88 -17 -110 -24 l-40 -11 0 -1365 0 -1365 40 -11 c22 -7 72 -17 110 -24 39 -6 124 -22 190 -35 66 -13 172 -33 235 -45 63 -12 135 -25 160 -30 25 -5 74 -14 110 -20 36 -6 85 -16 110 -20 25 -5 97 -19 160 -30 63 -12 144 -27 180 -35 36 -7 92 -18 125 -24 33 -6 107 -20 165 -31 109 -21 159 -30 270 -50 36 -6 95 -18 131 -27 37 -8 78 -13 90 -11 l24 3 3 173 2 172 726 0 c711 0 726 0 765 20 24 13 51 39 70 67 l29 47 0 1275 0 1274 -26 44 c-14 24 -43 55 -64 68 l-40 25 -730 0 -730 0 -2 173 -3 172 -35 2 c-19 1 -82 -8 -140 -21z m1600 -1736 l0 -1250 -715 0 -715 0 0 105 0 105 253 2 252 3 0 165 0 165 -252 3 -253 2 0 50 0 50 250 0 250 0 -2 163 -3 162 -247 3 -248 2 0 55 0 55 248 2 247 3 3 154 c2 104 -1 158 -9 167 -9 11 -59 14 -250 14 l-239 0 0 50 0 50 253 2 252 3 0 160 0 160 -252 3 -253 2 0 45 0 45 253 2 252 3 0 165 0 165 -252 3 -253 2 0 105 0 105 715 0 715 0 0 -1250z m-2093 572 c-7 -8 -26 -42 -44 -75 -68 -131 -117 -225 -159 -302 -24 -44 -60 -113 -80 -154 l-37 -73 27 -52 c103 -195 159 -302 195 -376 23 -47 54 -102 68 -123 33 -48 21 -68 -30 -49 -18 7 -72 12 -120 12 -86 0 -87 0 -93 28 -4 15 -12 38 -19 52 -35 74 -74 160 -90 200 -11 25 -24 51 -29 59 -6 8 -16 34 -21 60 -7 30 -16 47 -28 49 -12 3 -17 -3 -17 -20 0 -13 -4 -28 -9 -33 -4 -6 -16 -32 -26 -60 -9 -27 -22 -61 -27 -75 -6 -14 -14 -34 -18 -45 -5 -11 -20 -45 -34 -74 -14 -30 -26 -62 -26 -72 0 -35 -15 -37 -201 -28 l-57 3 53 111 c30 60 61 126 70 145 8 19 20 42 25 50 5 8 34 66 66 129 l56 114 -21 41 c-12 23 -37 68 -55 101 -19 33 -55 101 -80 150 -77 149 -115 219 -130 240 -14 19 -13 20 47 24 161 10 180 8 193 -19 6 -14 25 -54 42 -90 16 -36 47 -105 68 -153 21 -48 41 -90 46 -93 4 -3 8 -18 8 -35 0 -40 27 -38 35 4 3 17 17 55 30 82 22 48 44 95 88 195 11 25 28 62 38 82 11 20 19 44 19 52 0 12 11 16 38 17 46 1 166 10 169 13 1 1 20 2 42 1 32 0 37 -3 28 -13z"/>
 <path d="M2924 3067 c-2 -7 -3 -82 -2 -167 l3 -155 295 0 295 0 0 165 0 165 -293 3 c-233 2 -294 0 -298 -11z"/>
 <path d="M2924 2637 c-2 -7 -3 -80 -2 -162 l3 -150 295 0 295 0 0 160 0 160 -293 3 c-234 2 -294 0 -298 -11z"/>
 <path d="M2924 2207 c-2 -7 -3 -82 -2 -167 l3 -155 295 0 295 0 3 154 c2 104 -1 158 -9 167 -16 20 -577 21 -585 1z"/>
 <path d="M2924 1757 c-2 -7 -3 -80 -2 -162 l3 -150 295 0 295 0 0 160 0 160 -293 3 c-234 2 -294 0 -298 -11z"/>
 <path d="M2924 1327 c-2 -7 -3 -82 -2 -167 l3 -155 295 0 295 0 0 165 0 165 -293 3 c-233 2 -294 0 -298 -11z"/>
 </g>

</svg>