<!DOCTYPE svg PUBLIC "-//W3C//DTD SVG 20010904//EN" "http://www.w3.org/TR/2001/REC-SVG-20010904/DTD/svg10.dtd">
<svg version="1.0" xmlns="http://www.w3.org/2000/svg" width="266px" height="349px" viewBox="0 0 2660 3490" preserveAspectRatio="xMidYMid meet">
<g id="layer1" fill="#fffefe" stroke="none">
 <path d="M565 2677 c-3 -6 -4 -170 -3 -362 l3 -350 63 -3 c56 -3 64 -1 69 17 5 19 6 18 39 -4 99 -67 243 -27 294 82 30 64 38 199 17 273 -21 70 -67 133 -115 156 -47 22 -137 23 -182 1 -18 -9 -35 -17 -37 -17 -1 0 -3 41 -3 91 0 121 -5 129 -81 129 -39 0 -61 -4 -64 -13z m294 -313 c34 -24 51 -74 51 -151 0 -124 -55 -167 -156 -124 l-49 21 3 116 3 115 32 19 c39 24 85 25 116 4z"/>
 <path d="M1315 2505 c-5 -2 -22 -6 -37 -9 -37 -8 -85 -51 -108 -96 -40 -78 -42 -258 -3 -334 20 -41 61 -84 98 -104 40 -21 141 -20 182 1 18 9 34 17 37 17 3 0 7 -53 8 -117 l3 -118 65 0 65 0 0 370 0 370 -58 3 c-51 3 -59 1 -64 -16 -5 -19 -6 -19 -46 3 -39 22 -119 39 -142 30z m133 -145 l42 -19 0 -119 0 -118 -35 -17 c-44 -21 -94 -22 -122 -2 -25 17 -53 94 -53 143 0 86 43 152 99 152 14 0 45 -9 69 -20z"/>
 <path d="M1777 2484 c-4 -4 -7 -97 -7 -206 0 -187 -1 -198 -19 -198 -29 0 -43 -25 -39 -72 3 -38 6 -43 29 -46 24 -3 27 -8 33 -63 10 -104 45 -146 134 -164 31 -7 80 -9 107 -6 l50 6 -3 50 c-5 66 -14 76 -68 68 -57 -8 -74 7 -74 63 l0 43 48 3 47 3 0 55 0 55 -47 3 -48 3 -2 202 -3 202 -65 3 c-36 2 -69 0 -73 -4z"/>
 </g>
<g id="layer2" fill="#fb8d8d" stroke="none">
 <path d="M680 2670 c0 -5 7 -10 15 -10 8 0 15 5 15 10 0 6 -7 10 -15 10 -8 0 -15 -4 -15 -10z"/>
 <path d="M790 2495 c0 -8 7 -15 15 -15 8 0 15 7 15 15 0 8 -7 15 -15 15 -8 0 -15 -7 -15 -15z"/>
 <path d="M860 2495 c0 -8 7 -15 15 -15 8 0 15 7 15 15 0 8 -7 15 -15 15 -8 0 -15 -7 -15 -15z"/>
 <path d="M1290 2495 c0 -8 7 -15 15 -15 8 0 15 7 15 15 0 8 -7 15 -15 15 -8 0 -15 -7 -15 -15z"/>
 <path d="M1370 2495 c0 -8 7 -15 15 -15 8 0 15 7 15 15 0 8 -7 15 -15 15 -8 0 -15 -7 -15 -15z"/>
 <path d="M1610 2121 c0 -324 2 -371 15 -371 13 0 15 45 13 367 -2 282 -6 367 -15 371 -10 3 -13 -75 -13 -367z"/>
 <path d="M982 2429 c2 -7 10 -15 17 -17 8 -3 12 1 9 9 -2 7 -10 15 -17 17 -8 3 -12 -1 -9 -9z"/>
 <path d="M770 2386 c0 -9 14 -14 45 -14 71 -2 55 23 -17 27 -18 0 -28 -4 -28 -13z"/>
 <path d="M1350 2385 c0 -7 14 -12 30 -13 19 0 30 4 30 13 0 9 -11 13 -30 13 -16 -1 -30 -6 -30 -13z"/>
 <path d="M1140 2335 c0 -8 7 -15 15 -15 8 0 15 7 15 15 0 8 -7 15 -15 15 -8 0 -15 -7 -15 -15z"/>
 <path d="M900 2280 c0 -5 7 -10 15 -10 8 0 15 5 15 10 0 6 -7 10 -15 10 -8 0 -15 -4 -15 -10z"/>
 <path d="M1130 2260 c0 -11 7 -20 15 -20 8 0 15 9 15 20 0 11 -7 20 -15 20 -8 0 -15 -9 -15 -20z"/>
 <path d="M1262 2230 c0 -34 4 -50 13 -50 9 0 13 16 13 50 1 36 -3 50 -13 50 -10 0 -14 -14 -13 -50z"/>
 <path d="M1130 2195 c0 -16 6 -25 15 -25 9 0 15 9 15 25 0 16 -6 25 -15 25 -9 0 -15 -9 -15 -25z"/>
 <path d="M900 2146 c0 -14 -4 -28 -10 -31 -12 -7 -13 -25 -2 -25 8 0 42 57 42 71 0 5 -7 9 -15 9 -9 0 -15 -9 -15 -24z"/>
 <path d="M1030 2135 c0 -8 7 -15 15 -15 8 0 15 7 15 15 0 8 -7 15 -15 15 -8 0 -15 -7 -15 -15z"/>
 <path d="M1140 2125 c0 -8 7 -15 15 -15 8 0 15 7 15 15 0 8 -7 15 -15 15 -8 0 -15 -7 -15 -15z"/>
 <path d="M1300 2101 c0 -13 50 -51 66 -51 8 0 14 7 14 15 0 8 -8 15 -19 15 -10 0 -24 7 -31 15 -14 17 -30 20 -30 6z"/>
 <path d="M1460 2095 c-14 -8 -33 -14 -42 -15 -19 0 -26 -30 -8 -30 19 0 90 40 90 50 0 13 -10 12 -40 -5z"/>
 <path d="M1704 2066 c-9 -24 1 -99 14 -104 9 -3 12 13 12 57 0 57 -13 81 -26 47z"/>
 <path d="M955 1989 c-4 -6 -5 -13 -2 -16 7 -7 27 6 27 18 0 12 -17 12 -25 -2z"/>
 <path d="M1760 1965 c0 -8 5 -15 10 -15 6 0 10 7 10 15 0 8 -4 15 -10 15 -5 0 -10 -7 -10 -15z"/>
 <path d="M790 1955 c0 -8 7 -15 15 -15 8 0 15 7 15 15 0 8 -7 15 -15 15 -8 0 -15 -7 -15 -15z"/>
 <path d="M880 1955 c0 -8 7 -15 15 -15 8 0 15 7 15 15 0 8 -7 15 -15 15 -8 0 -15 -7 -15 -15z"/>
 <path d="M1300 1955 c0 -8 7 -15 15 -15 8 0 15 7 15 15 0 8 -7 15 -15 15 -8 0 -15 -7 -15 -15z"/>
 <path d="M1380 1955 c0 -8 7 -15 15 -15 8 0 15 7 15 15 0 8 -7 15 -15 15 -8 0 -15 -7 -15 -15z"/>
 <path d="M1770 1865 c0 -8 7 -15 15 -15 8 0 15 7 15 15 0 8 -7 15 -15 15 -8 0 -15 -7 -15 -15z"/>
 <path d="M1940 1845 c0 -10 11 -15 35 -15 24 0 35 5 35 15 0 10 -11 15 -35 15 -24 0 -35 -5 -35 -15z"/>
 <path d="M2040 1795 c0 -8 7 -15 15 -15 8 0 15 7 15 15 0 8 -7 15 -15 15 -8 0 -15 -7 -15 -15z"/>
 <path d="M1880 1745 c0 -8 5 -15 10 -15 6 0 10 7 10 15 0 8 -4 15 -10 15 -5 0 -10 -7 -10 -15z"/>
 <path d="M1920 1735 c0 -8 9 -15 20 -15 11 0 20 7 20 15 0 8 -9 15 -20 15 -11 0 -20 -7 -20 -15z"/>
 <path d="M1980 1735 c0 -8 9 -15 20 -15 11 0 20 7 20 15 0 8 -9 15 -20 15 -11 0 -20 -7 -20 -15z"/>
 <path d="M1812 969 c-51 -26 -95 -77 -119 -138 -15 -40 -18 -96 -21 -438 l-3 -393 73 0 73 0 423 423 422 422 0 73 0 72 -402 0 c-390 0 -404 -1 -446 -21z"/>
 </g>
<g id="layer3" fill="#cb0606" stroke="none">
 <path d="M150 3473 c-50 -21 -109 -80 -131 -131 -18 -42 -19 -95 -19 -1597 0 -1502 1 -1555 19 -1597 10 -24 36 -59 57 -80 76 -71 32 -68 865 -68 l748 0 3 393 c3 339 6 398 21 435 25 65 53 98 100 121 42 20 58 21 445 21 l402 0 0 1164 c0 1294 5 1202 -68 1280 -21 21 -56 47 -80 57 -42 18 -86 19 -1185 18 -991 -1 -1147 -3 -1177 -16z m540 -913 c0 -60 4 -110 9 -110 5 0 30 10 56 21 64 28 138 23 194 -14 58 -38 82 -98 88 -218 6 -105 -3 -149 -43 -211 -45 -71 -153 -89 -244 -43 -57 29 -70 31 -70 10 0 -11 -12 -15 -50 -15 l-50 0 0 345 0 345 55 0 55 0 0 -110z m727 -82 c15 -7 40 -20 55 -31 29 -19 48 -16 48 8 0 9 17 14 50 17 l50 3 0 -357 0 -358 -55 0 -55 0 0 120 c0 134 1 133 -68 100 -81 -39 -184 -17 -235 52 -42 58 -52 97 -51 203 0 91 3 105 30 155 36 67 87 100 156 100 26 0 60 -5 75 -12z m485 -210 l3 -203 48 -3 47 -3 0 -39 0 -39 -47 -3 -48 -3 -3 -49 c-4 -67 14 -86 83 -86 46 0 53 -3 59 -22 14 -52 8 -67 -30 -74 -48 -9 -120 2 -158 24 -42 24 -66 75 -66 139 0 43 -4 54 -21 63 -11 7 -27 9 -35 6 -11 -4 -14 5 -14 39 0 42 1 44 33 47 l32 3 3 203 2 202 55 0 55 0 2 -202z"/>
 <path d="M723 2369 l-33 -21 0 -118 c0 -116 1 -119 26 -139 42 -33 97 -46 133 -31 89 37 108 224 31 302 -23 23 -37 28 -77 28 -31 0 -59 -8 -80 -21z"/>
 <path d="M1307 2360 c-35 -41 -40 -64 -35 -155 3 -68 6 -77 37 -109 18 -19 44 -36 58 -39 34 -6 85 8 117 34 25 20 26 24 26 133 l0 112 -32 24 c-23 17 -50 25 -89 28 -52 4 -57 2 -82 -28z"/>
 </g>

</svg>