<!DOCTYPE svg PUBLIC "-//W3C//DTD SVG 20010904//EN" "http://www.w3.org/TR/2001/REC-SVG-20010904/DTD/svg10.dtd">
<svg version="1.0" xmlns="http://www.w3.org/2000/svg" width="512px" height="512px" viewBox="0 0 5120 5120" preserveAspectRatio="xMidYMid meet">
<g id="layer1" fill="#7f7f7f" stroke="none">
 <path d="M2325 5115 c-5 -2 -66 -9 -135 -14 -406 -34 -903 -253 -1270 -559 -521 -435 -856 -1057 -909 -1687 -14 -166 -14 -424 0 -590 37 -439 208 -870 500 -1261 95 -127 366 -398 493 -493 319 -239 667 -397 1031 -469 279 -56 771 -56 1050 0 468 93 899 321 1253 662 368 356 604 761 722 1241 39 158 50 261 57 545 4 167 1 269 -11 395 -43 456 -232 904 -543 1290 -97 121 -306 326 -423 417 -377 292 -813 472 -1243 513 -133 13 -545 20 -572 10z m588 -90 c348 -55 706 -185 967 -351 316 -201 593 -478 794 -794 172 -270 303 -638 357 -1005 18 -116 18 -521 1 -630 -68 -429 -187 -745 -403 -1068 -315 -472 -768 -815 -1306 -987 -256 -82 -469 -114 -763 -114 -372 0 -660 58 -986 199 -589 254 -1045 710 -1299 1299 -141 326 -199 614 -199 986 0 239 12 350 59 560 120 535 438 1043 865 1383 387 308 841 488 1365 541 86 9 454 -4 548 -19z"/>
 </g>
<g id="layer2" fill="#3498db" stroke="none">
 <path d="M1764 3816 c-3 -8 -4 -99 -2 -203 l3 -189 33 -66 c82 -167 317 -314 652 -408 393 -110 714 -114 1112 -14 373 94 630 249 717 434 25 53 26 60 26 255 l0 200 -1268 3 c-1092 2 -1268 0 -1273 -12z"/>
 <path d="M1287 3034 c-4 -4 -7 -110 -7 -235 l0 -229 -232 -2 -233 -3 0 -165 0 -165 233 -3 232 -2 0 -229 c0 -182 3 -231 14 -240 9 -8 63 -11 167 -9 l154 3 3 237 2 238 238 2 237 3 3 154 c2 104 -1 158 -9 167 -9 11 -58 14 -240 14 l-229 0 -2 233 -3 232 -161 3 c-88 1 -163 -1 -167 -4z"/>
 <path d="M3000 2562 c-130 -9 -274 -65 -367 -143 -158 -133 -238 -301 -237 -499 0 -185 56 -314 193 -451 70 -70 102 -94 171 -127 102 -48 163 -62 278 -62 176 0 310 57 442 190 160 159 224 350 186 557 -41 233 -214 432 -439 507 -53 18 -171 32 -227 28z"/>
 </g>
<g id="layer3" fill="#ffffff" stroke="none">
 <path d="M2365 5064 c-276 -28 -520 -86 -750 -181 -754 -308 -1324 -978 -1500 -1763 -47 -210 -59 -321 -59 -560 0 -372 58 -660 199 -986 130 -303 296 -546 535 -784 396 -397 859 -629 1430 -716 84 -13 175 -18 340 -18 239 0 350 12 560 59 785 176 1455 746 1763 1500 79 192 130 381 169 630 17 109 17 514 -1 630 -54 367 -185 735 -357 1005 -203 319 -495 611 -814 814 -261 166 -619 296 -967 351 -94 15 -462 28 -548 19z m1925 -1427 c0 -126 -4 -187 -15 -224 -57 -191 -316 -357 -713 -457 -253 -63 -471 -85 -672 -66 -475 44 -910 220 -1047 424 -53 79 -63 128 -63 323 l0 173 1255 0 1255 0 0 -173z m-2688 -849 l3 -233 238 -3 237 -2 0 -150 0 -150 -237 -2 -238 -3 -3 -237 -2 -238 -150 0 -150 0 -2 238 -3 237 -232 3 -233 2 0 150 0 150 233 2 232 3 3 233 2 232 150 0 150 0 2 -232z m1625 -274 c94 -31 168 -78 245 -155 62 -60 86 -94 118 -161 121 -251 75 -524 -120 -718 -121 -122 -261 -180 -432 -180 -115 0 -176 14 -278 62 -154 74 -274 218 -326 394 -12 39 -18 94 -18 164 -1 89 3 118 27 192 56 169 171 300 327 372 71 32 151 53 230 58 56 4 174 -10 227 -28z"/>
 </g>

</svg>