<!DOCTYPE svg PUBLIC "-//W3C//DTD SVG 20010904//EN" "http://www.w3.org/TR/2001/REC-SVG-20010904/DTD/svg10.dtd">
<svg version="1.0" xmlns="http://www.w3.org/2000/svg" width="512px" height="512px" viewBox="0 0 5120 5120" preserveAspectRatio="xMidYMid meet">
<g id="layer1" fill="#747474" stroke="none">
 <path d="M2325 5115 c-5 -2 -66 -9 -135 -14 -406 -34 -903 -253 -1270 -559 -521 -435 -856 -1057 -909 -1687 -14 -166 -14 -424 0 -590 37 -439 208 -870 500 -1261 95 -127 366 -398 493 -493 319 -239 667 -397 1031 -469 279 -56 771 -56 1050 0 468 93 899 321 1253 662 368 356 604 761 722 1241 39 158 50 261 57 545 4 167 1 269 -11 395 -43 456 -232 904 -543 1290 -97 121 -306 326 -423 417 -377 292 -813 472 -1243 513 -133 13 -545 20 -572 10z m460 -75 c309 -29 592 -108 870 -245 262 -128 461 -270 665 -475 205 -204 347 -403 475 -665 425 -866 311 -1895 -295 -2660 -81 -103 -272 -293 -375 -375 -861 -683 -2046 -733 -2955 -125 -624 418 -1019 1086 -1089 1845 -59 631 137 1278 539 1785 82 103 272 294 375 375 288 228 659 408 996 484 113 25 282 52 369 59 103 8 322 6 425 -3z"/>
 <path d="M2975 4655 c-162 -31 -324 -101 -449 -196 l-65 -49 -573 -2 -573 -3 0 -1845 0 -1845 790 0 790 0 3 934 2 933 23 -5 c200 -51 466 -24 661 67 529 244 765 855 537 1387 -126 292 -398 525 -707 605 -126 33 -319 41 -439 19z m365 -291 c87 -20 232 -92 305 -151 120 -97 224 -263 261 -418 23 -94 23 -276 0 -370 -22 -93 -93 -236 -153 -310 -162 -199 -440 -310 -693 -275 -398 54 -680 374 -680 770 0 385 278 710 658 770 73 11 219 4 302 -16z m-1119 -258 c-18 -22 -71 -156 -94 -241 -18 -68 -21 -106 -21 -255 0 -149 3 -187 22 -256 27 -102 71 -205 125 -297 49 -83 235 -277 315 -327 l52 -33 0 -849 0 -848 -515 0 -515 0 0 1563 0 1562 321 -3 c264 -2 319 -5 310 -16z"/>
 <path d="M3022 4138 c-9 -9 -12 -65 -12 -200 l0 -188 -192 -2 -193 -3 0 -135 0 -135 193 -3 192 -2 0 -189 c0 -149 3 -191 14 -200 9 -8 55 -11 137 -9 l124 3 3 197 2 198 198 2 197 3 0 135 0 135 -197 3 -198 2 -2 198 -3 197 -125 3 c-89 2 -129 -1 -138 -10z"/>
 </g>
<g id="layer2" fill="#ffffff" stroke="none">
 <path d="M2360 5063 c-478 -37 -975 -235 -1365 -543 -103 -81 -313 -292 -395 -395 -673 -849 -732 -2019 -147 -2924 504 -780 1413 -1225 2327 -1140 494 45 957 231 1345 539 103 82 314 292 395 395 171 217 325 496 413 751 158 458 179 967 58 1440 -55 216 -184 516 -297 694 -204 320 -494 610 -814 814 -185 118 -485 245 -710 300 -257 64 -550 89 -810 69z m1054 -447 c441 -114 750 -497 772 -956 25 -496 -296 -933 -775 -1057 -130 -33 -294 -41 -419 -19 -52 9 -98 14 -103 11 -5 -4 -9 -377 -9 -936 l0 -929 -775 0 -775 0 0 1830 0 1830 565 0 566 0 65 49 c77 59 214 130 304 160 180 58 401 65 584 17z"/>
 <path d="M3038 4400 c-157 -25 -305 -99 -426 -214 -337 -319 -337 -833 0 -1152 130 -123 270 -190 448 -214 407 -55 803 241 875 655 19 110 19 160 0 270 -54 308 -298 569 -597 640 -81 19 -227 26 -300 15z m234 -467 l3 -198 198 -3 197 -2 0 -120 0 -120 -197 -2 -198 -3 -3 -197 -2 -198 -120 0 -120 0 -2 198 -3 197 -192 3 -193 2 0 120 0 120 193 2 192 3 3 198 2 197 120 0 120 0 2 -197z"/>
 <path d="M1579 4134 c-5 -7 -8 -638 -7 -1580 l3 -1569 530 0 530 0 0 859 0 860 -60 40 c-88 59 -252 229 -302 313 -54 92 -98 195 -125 297 -19 69 -22 107 -22 256 0 149 3 187 21 255 23 85 76 219 94 241 6 7 9 18 7 24 -5 15 -656 19 -669 4z"/>
 </g>

</svg>