<!DOCTYPE svg PUBLIC "-//W3C//DTD SVG 20010904//EN" "http://www.w3.org/TR/2001/REC-SVG-20010904/DTD/svg10.dtd">
<svg version="1.0" xmlns="http://www.w3.org/2000/svg" width="512px" height="512px" viewBox="0 0 5120 5120" preserveAspectRatio="xMidYMid meet">
<g id="layer1" fill="#7f7f7f" stroke="none">
 <path d="M2325 5115 c-5 -2 -66 -9 -135 -14 -406 -34 -903 -253 -1270 -559 -521 -435 -856 -1057 -909 -1687 -14 -166 -14 -424 0 -590 37 -439 208 -870 500 -1261 95 -127 366 -398 493 -493 319 -239 667 -397 1031 -469 279 -56 771 -56 1050 0 468 93 899 321 1253 662 368 356 604 761 722 1241 39 158 50 261 57 545 4 167 1 269 -11 395 -43 456 -232 904 -543 1290 -97 121 -306 326 -423 417 -377 292 -813 472 -1243 513 -133 13 -545 20 -572 10z m588 -90 c348 -55 706 -185 967 -351 316 -201 593 -478 794 -794 172 -270 303 -638 357 -1005 18 -116 18 -521 1 -630 -68 -429 -187 -745 -403 -1068 -315 -472 -768 -815 -1306 -987 -256 -82 -469 -114 -763 -114 -372 0 -660 58 -986 199 -589 254 -1045 710 -1299 1299 -141 326 -199 614 -199 986 0 239 12 350 59 560 120 535 438 1043 865 1383 387 308 841 488 1365 541 86 9 454 -4 548 -19z"/>
 </g>
<g id="layer2" fill="#2ecc71" stroke="none">
 <path d="M2390 3980 c-330 -46 -601 -181 -835 -415 -209 -209 -335 -440 -397 -728 -31 -146 -31 -408 0 -554 62 -288 188 -519 397 -728 209 -209 440 -335 728 -397 146 -31 408 -31 554 0 288 62 519 188 728 397 209 209 335 440 397 728 31 146 31 408 0 554 -62 288 -188 519 -397 728 -208 208 -442 336 -723 395 -111 24 -350 34 -452 20z m272 -300 c621 -60 1076 -606 1018 -1219 -59 -623 -605 -1080 -1219 -1021 -756 72 -1224 836 -944 1540 154 386 519 660 931 700 110 10 108 10 214 0z"/>
 <path d="M2417 3274 c-4 -4 -7 -133 -7 -286 l0 -278 -282 -2 -283 -3 0 -145 0 -145 282 -3 283 -2 2 -283 3 -282 145 0 145 0 3 282 2 283 283 2 282 3 0 145 0 145 -282 3 -283 2 -2 283 -3 282 -141 3 c-77 1 -143 -1 -147 -4z"/>
 </g>
<g id="layer3" fill="#ffffff" stroke="none">
 <path d="M2365 5064 c-276 -28 -520 -86 -750 -181 -754 -308 -1324 -978 -1500 -1763 -47 -210 -59 -321 -59 -560 0 -372 58 -660 199 -986 130 -303 296 -546 535 -784 396 -397 859 -629 1430 -716 84 -13 175 -18 340 -18 239 0 350 12 560 59 785 176 1455 746 1763 1500 79 192 130 381 169 630 17 109 17 514 -1 630 -54 367 -185 735 -357 1005 -203 319 -495 611 -814 814 -261 166 -619 296 -967 351 -94 15 -462 28 -548 19z m477 -1124 c275 -58 516 -187 713 -385 199 -198 326 -435 387 -718 31 -146 31 -408 0 -554 -61 -283 -188 -520 -387 -718 -198 -199 -435 -326 -718 -387 -146 -31 -408 -31 -554 0 -283 61 -520 188 -718 387 -199 198 -326 435 -387 718 -31 146 -31 408 0 554 61 283 188 520 387 718 224 224 500 360 825 405 102 14 341 4 452 -20z"/>
 <path d="M2448 3700 c-613 -59 -1086 -629 -1028 -1239 12 -125 33 -211 81 -329 188 -463 669 -759 1158 -712 125 12 211 33 329 81 463 188 759 669 712 1158 -52 551 -487 987 -1038 1041 -106 10 -104 10 -214 0z m244 -722 l3 -283 283 -3 282 -2 0 -130 0 -130 -282 -2 -283 -3 -3 -282 -2 -283 -130 0 -130 0 -2 283 -3 282 -282 3 -283 2 0 130 0 130 283 2 282 3 3 283 2 282 130 0 130 0 2 -282z"/>
 </g>

</svg>