<!DOCTYPE svg PUBLIC "-//W3C//DTD SVG 20010904//EN" "http://www.w3.org/TR/2001/REC-SVG-20010904/DTD/svg10.dtd">
<svg version="1.0" xmlns="http://www.w3.org/2000/svg" width="511px" height="512px" viewBox="0 0 5110 5120" preserveAspectRatio="xMidYMid meet">
<g id="layer1" fill="#747474" stroke="none">
 <path d="M2200 5104 c-313 -31 -684 -162 -985 -349 -681 -421 -1141 -1147 -1204 -1900 -20 -238 -12 -566 20 -765 59 -380 259 -815 526 -1145 98 -121 306 -326 423 -417 389 -301 833 -479 1285 -517 166 -14 414 -14 580 0 654 54 1286 405 1725 955 247 309 440 727 503 1089 58 330 47 835 -23 1122 -209 849 -848 1544 -1675 1822 -82 28 -192 60 -244 71 -215 47 -637 63 -931 34z m705 -78 c299 -47 524 -119 787 -252 854 -435 1381 -1338 1345 -2304 -26 -657 -299 -1268 -769 -1715 -626 -595 -1524 -824 -2358 -600 -241 65 -526 194 -732 332 -937 628 -1334 1792 -976 2868 122 370 321 690 602 970 78 77 184 172 236 211 312 234 656 391 1015 463 87 17 140 25 305 45 76 9 450 -3 545 -18z"/>
 <path d="M3323 4355 c-314 -57 -598 -267 -739 -546 l-34 -69 -798 -2 -797 -3 0 -1400 0 -1400 1525 0 1525 0 3 765 2 765 48 31 c375 246 549 725 415 1148 -52 167 -134 299 -262 426 -92 91 -157 139 -267 194 -188 94 -419 128 -621 91z m352 -280 c93 -25 166 -57 239 -106 311 -207 420 -624 251 -958 -95 -189 -248 -318 -455 -383 -64 -19 -96 -23 -215 -23 -118 0 -152 4 -215 23 -324 101 -530 381 -530 722 0 327 197 603 504 705 44 15 107 30 140 35 74 10 211 3 281 -15z m-1202 -683 c-11 -130 22 -301 87 -454 l38 -88 -252 -2 -251 -3 0 -130 0 -130 362 -3 362 -2 73 -55 c89 -68 206 -126 318 -159 l85 -25 -600 -3 -600 -3 0 -130 0 -130 640 0 640 0 3 129 3 128 62 -6 c57 -6 186 3 265 20 l32 7 0 -322 0 -321 -1255 0 -1255 0 0 875 0 875 624 0 625 0 -6 -68z m1267 -2072 l0 -120 -1255 0 -1255 0 0 120 0 120 1255 0 1255 0 0 -120z"/>
 <path d="M3367 3854 c-4 -4 -7 -90 -7 -190 l0 -184 -187 -2 -188 -3 0 -130 0 -130 187 -3 188 -2 2 -188 3 -187 130 0 130 0 3 187 2 188 188 2 187 3 0 130 0 130 -187 3 -188 2 -2 188 -3 187 -126 3 c-69 1 -128 -1 -132 -4z"/>
 <path d="M1594 2837 c-2 -7 -3 -67 -2 -133 l3 -119 130 0 130 0 0 130 0 130 -128 3 c-99 2 -129 0 -133 -11z"/>
 <path d="M1594 2327 c-2 -7 -3 -67 -2 -133 l3 -119 130 0 130 0 0 130 0 130 -128 3 c-99 2 -129 0 -133 -11z"/>
 </g>
<g id="layer2" fill="#ffffff" stroke="none">
 <path d="M2360 5064 c-165 -20 -218 -28 -305 -45 -359 -72 -702 -229 -1015 -463 -133 -99 -378 -347 -482 -486 -430 -577 -593 -1271 -463 -1976 122 -657 514 -1245 1083 -1627 135 -90 392 -220 537 -271 647 -228 1337 -187 1944 115 244 121 425 248 620 435 224 215 386 436 521 709 161 327 242 647 257 1015 26 680 -223 1331 -697 1823 -400 416 -879 663 -1455 753 -95 15 -469 27 -545 18z m1305 -729 c210 -37 387 -128 536 -275 254 -251 353 -613 265 -962 -60 -238 -195 -432 -394 -572 l-82 -58 0 -759 0 -759 -1510 0 -1510 0 0 1385 0 1385 795 0 795 0 39 79 c197 392 634 611 1066 536z"/>
 <path d="M3394 4110 c-304 -42 -568 -279 -645 -578 -26 -103 -26 -262 1 -368 66 -262 269 -475 530 -556 63 -19 97 -23 215 -23 119 0 151 4 215 23 206 65 371 202 469 392 227 436 -19 968 -504 1095 -70 18 -207 25 -281 15z m216 -448 c0 -125 4 -182 12 -190 8 -8 65 -12 190 -12 l178 0 0 -115 0 -115 -187 -2 -188 -3 -3 -187 -2 -188 -115 0 -115 0 -2 188 -3 187 -187 3 -188 2 0 115 0 115 188 2 187 3 3 188 2 187 115 0 115 0 0 -178z"/>
 <path d="M1215 3468 c-3 -7 -4 -409 -3 -893 l3 -880 1270 0 1270 0 3 333 c2 283 0 333 -12 338 -8 3 -41 0 -73 -7 -63 -13 -322 -19 -330 -6 -2 4 -12 7 -22 7 -38 0 -198 53 -276 90 -44 22 -113 65 -153 95 l-73 55 -355 0 -354 0 0 115 0 115 249 0 c138 0 252 4 255 9 3 5 -7 37 -23 72 -69 152 -105 327 -99 479 l3 85 -638 3 c-505 2 -639 0 -642 -10z m625 -753 l0 -115 -115 0 -115 0 0 115 0 115 115 0 115 0 0 -115z m1520 -505 l0 -120 -625 0 -625 0 0 115 0 115 618 3 c339 1 620 3 625 5 4 1 7 -52 7 -118z m-1520 -5 l0 -115 -115 0 -115 0 0 115 0 115 115 0 115 0 0 -115z"/>
 <path d="M1214 1447 c-2 -7 -3 -69 -2 -138 l3 -124 1270 0 1270 0 0 135 0 135 -1268 3 c-1037 2 -1269 0 -1273 -11z"/>
 </g>

</svg>