<!DOCTYPE svg PUBLIC "-//W3C//DTD SVG 20010904//EN" "http://www.w3.org/TR/2001/REC-SVG-20010904/DTD/svg10.dtd">
<svg version="1.0" xmlns="http://www.w3.org/2000/svg" width="512px" height="512px" viewBox="0 0 5120 5120" preserveAspectRatio="xMidYMid meet">
<g id="layer1" fill="#7f7f7f" stroke="none">
 <path d="M2325 5115 c-5 -2 -66 -9 -135 -14 -406 -34 -903 -253 -1270 -559 -521 -435 -856 -1057 -909 -1687 -14 -166 -14 -424 0 -590 37 -439 208 -870 500 -1261 95 -127 366 -398 493 -493 319 -239 667 -397 1031 -469 279 -56 771 -56 1050 0 468 93 899 321 1253 662 368 356 604 761 722 1241 39 158 50 261 57 545 4 167 1 269 -11 395 -43 456 -232 904 -543 1290 -97 121 -306 326 -423 417 -377 292 -813 472 -1243 513 -133 13 -545 20 -572 10z m588 -90 c348 -55 706 -185 967 -351 316 -201 593 -478 794 -794 172 -270 303 -638 357 -1005 18 -116 18 -521 1 -630 -68 -429 -187 -745 -403 -1068 -315 -472 -768 -815 -1306 -987 -256 -82 -469 -114 -763 -114 -372 0 -660 58 -986 199 -589 254 -1045 710 -1299 1299 -141 326 -199 614 -199 986 0 239 12 350 59 560 120 535 438 1043 865 1383 387 308 841 488 1365 541 86 9 454 -4 548 -19z"/>
 </g>
<g id="layer2" fill="#2ecc71" stroke="none">
 <path d="M2231 3943 c-25 -26 -29 -43 -55 -213 -15 -102 -28 -185 -29 -186 -51 -26 -153 -85 -186 -107 l-43 -30 -180 72 c-172 68 -208 78 -242 65 -17 -7 -316 -523 -316 -545 0 -28 32 -60 171 -173 l140 -114 2 -143 1 -144 -89 -68 c-172 -130 -222 -174 -229 -202 -6 -22 17 -68 131 -268 142 -250 184 -307 225 -307 12 1 102 34 198 74 l175 73 86 -56 c47 -31 100 -63 116 -72 29 -16 29 -17 56 -205 26 -183 28 -190 57 -216 l30 -28 299 0 c287 0 299 1 325 21 14 11 26 30 26 42 0 12 12 102 27 200 l27 178 77 40 c42 22 94 53 115 68 l37 28 183 -73 c101 -41 193 -74 205 -74 11 0 33 12 47 27 32 33 302 503 302 526 0 33 -18 52 -165 172 l-152 124 9 58 c6 37 5 86 -1 137 -6 44 -10 80 -9 81 2 1 76 53 166 115 90 63 168 122 173 133 6 10 8 29 5 42 -9 34 -294 528 -313 543 -29 21 -57 14 -241 -59 l-180 -72 -43 30 c-34 23 -114 69 -186 107 0 1 -14 84 -29 186 -26 169 -30 187 -55 213 l-27 27 -307 0 -307 0 -27 -27z m410 -903 c30 -5 86 -25 124 -44 294 -145 357 -535 124 -768 -299 -300 -817 -87 -819 337 -1 299 276 530 571 475z"/>
 </g>
<g id="layer3" fill="#ffffff" stroke="none">
 <path d="M2365 5064 c-276 -28 -520 -86 -750 -181 -754 -308 -1324 -978 -1500 -1763 -47 -210 -59 -321 -59 -560 0 -372 58 -660 199 -986 130 -303 296 -546 535 -784 396 -397 859 -629 1430 -716 84 -13 175 -18 340 -18 239 0 350 12 560 59 785 176 1455 746 1763 1500 79 192 130 381 169 630 17 109 17 514 -1 630 -54 367 -185 735 -357 1005 -203 319 -495 611 -814 814 -261 166 -619 296 -967 351 -94 15 -462 28 -548 19z m523 -1132 c13 -13 25 -65 46 -202 15 -102 30 -188 32 -192 2 -3 39 -25 82 -49 42 -23 97 -55 121 -72 l43 -30 180 72 c98 39 189 71 202 71 12 0 30 -8 38 -17 28 -32 289 -497 295 -524 6 -34 3 -37 -187 -169 l-160 -111 7 -57 c9 -65 10 -128 3 -188 l-5 -41 145 -117 c159 -128 170 -140 170 -170 0 -12 -65 -133 -144 -271 -113 -197 -149 -252 -170 -259 -22 -8 -57 3 -215 66 l-188 75 -38 -28 c-20 -15 -72 -46 -115 -68 -42 -22 -82 -46 -87 -53 -10 -13 -64 -341 -63 -385 0 -12 -9 -27 -19 -33 -12 -6 -130 -10 -314 -10 -266 0 -297 2 -316 18 -18 14 -25 44 -46 192 -33 232 -27 216 -88 246 -28 15 -83 48 -122 74 l-70 47 -175 -73 c-96 -40 -185 -73 -198 -74 -13 0 -33 10 -45 23 -12 12 -84 131 -160 265 -123 215 -138 245 -129 270 6 18 58 65 163 145 l154 118 0 146 0 146 -152 124 c-97 79 -155 133 -159 148 -5 19 23 75 127 257 166 292 163 288 199 288 16 0 110 -32 208 -71 l180 -72 43 30 c24 17 79 49 121 72 43 24 80 46 82 50 3 4 17 90 32 191 21 137 33 189 46 202 17 17 43 18 323 18 280 0 306 -1 323 -18z"/>
 <path d="M2429 3052 c-88 -23 -168 -74 -240 -150 -190 -202 -186 -483 10 -682 201 -204 498 -205 701 -2 104 104 150 213 150 356 -1 183 -113 357 -285 441 -115 57 -216 68 -336 37z"/>
 </g>

</svg>