<!DOCTYPE svg PUBLIC "-//W3C//DTD SVG 20010904//EN" "http://www.w3.org/TR/2001/REC-SVG-20010904/DTD/svg10.dtd">
<svg version="1.0" xmlns="http://www.w3.org/2000/svg" width="511px" height="512px" viewBox="0 0 5110 5120" preserveAspectRatio="xMidYMid meet">
<g id="layer1" fill="#7f7f7f" stroke="none">
 <path d="M2200 5104 c-313 -31 -684 -162 -985 -349 -681 -421 -1141 -1147 -1204 -1900 -20 -238 -12 -566 20 -765 59 -380 259 -815 526 -1145 98 -121 306 -326 423 -417 389 -301 833 -479 1285 -517 166 -14 414 -14 580 0 654 54 1286 405 1725 955 247 309 440 727 503 1089 58 330 47 835 -23 1122 -209 849 -848 1544 -1675 1822 -82 28 -192 60 -244 71 -215 47 -637 63 -931 34z m705 -78 c437 -67 808 -223 1165 -489 122 -92 364 -334 459 -460 264 -353 424 -743 492 -1202 18 -119 18 -511 0 -630 -111 -748 -487 -1354 -1089 -1758 -231 -154 -550 -292 -816 -352 -210 -47 -316 -58 -551 -59 -309 -1 -514 31 -800 125 -356 117 -691 324 -960 594 -394 394 -624 853 -711 1425 -25 160 -25 520 0 680 36 236 89 429 172 628 353 843 1132 1416 2054 1512 120 12 466 4 585 -14z"/>
 </g>
<g id="layer2" fill="#f0c40f" stroke="none">
 <path d="M2673 3913 c-11 -10 -80 -90 -154 -178 -196 -235 -474 -557 -634 -735 -77 -85 -155 -172 -172 -193 l-33 -38 0 -140 0 -141 29 -29 29 -29 189 0 c149 0 206 -4 276 -20 165 -36 269 -103 325 -208 18 -33 32 -63 32 -66 0 -3 -187 -6 -415 -6 l-416 0 -24 -25 c-24 -23 -25 -30 -25 -145 0 -115 1 -122 25 -145 l24 -25 401 0 c391 0 400 0 390 -19 -33 -62 -118 -116 -242 -152 -63 -18 -106 -22 -312 -26 -307 -7 -286 8 -286 -203 0 -147 1 -152 25 -175 l24 -25 824 0 824 0 23 25 c19 20 24 39 28 104 6 101 -4 167 -29 192 -18 18 -35 19 -245 19 -124 0 -224 3 -222 8 2 4 18 36 37 72 19 36 42 90 51 120 l18 55 177 5 c224 6 215 -1 215 172 0 113 -1 120 -25 143 -24 25 -27 25 -193 25 l-169 0 -12 58 c-18 83 -92 228 -153 299 -127 150 -303 248 -517 289 -41 8 -77 16 -79 19 -2 2 46 59 108 127 124 136 396 455 623 732 158 192 168 213 124 254 -22 21 -31 22 -234 22 -187 0 -213 -2 -230 -17z"/>
 </g>
<g id="layer3" fill="#ffffff" stroke="none">
 <path d="M2320 5060 c-601 -63 -1145 -326 -1561 -757 -377 -391 -600 -847 -685 -1403 -25 -160 -25 -520 0 -680 71 -466 232 -845 514 -1210 151 -195 422 -437 652 -584 273 -174 651 -307 1010 -357 136 -19 505 -17 643 4 576 88 1071 342 1466 753 373 388 599 857 682 1419 18 119 18 511 0 630 -68 459 -227 848 -492 1202 -95 126 -357 388 -479 480 -357 266 -728 422 -1165 489 -119 18 -465 26 -585 14z m808 -1162 c31 -31 13 -64 -135 -244 -224 -272 -498 -594 -627 -737 -64 -71 -114 -132 -111 -136 2 -5 39 -14 82 -21 215 -34 412 -139 531 -283 52 -62 125 -211 142 -287 7 -30 17 -61 23 -67 7 -10 55 -13 178 -13 139 0 170 -3 183 -16 13 -12 16 -39 16 -132 0 -64 -5 -124 -10 -132 -7 -12 -44 -16 -192 -20 l-182 -5 -26 -75 c-14 -41 -42 -105 -62 -142 -20 -36 -34 -69 -31 -72 4 -3 111 -6 238 -6 204 0 234 -2 246 -17 10 -11 14 -49 14 -133 0 -84 -4 -122 -14 -133 -12 -16 -83 -17 -837 -17 -734 0 -824 2 -838 16 -23 22 -24 305 -1 327 11 12 62 16 252 20 205 4 248 8 312 26 124 37 198 82 246 151 15 21 24 44 20 49 -4 8 -137 11 -410 11 -354 0 -406 2 -419 16 -23 23 -23 245 0 268 14 14 67 16 435 16 357 0 420 2 425 14 10 25 -57 135 -109 182 -117 105 -262 143 -540 144 -241 0 -227 -11 -227 180 l0 139 33 38 c17 21 95 108 172 193 153 170 424 484 635 735 74 88 139 163 145 167 18 13 430 9 443 -4z"/>
 </g>

</svg>