<!DOCTYPE svg PUBLIC "-//W3C//DTD SVG 20010904//EN" "http://www.w3.org/TR/2001/REC-SVG-20010904/DTD/svg10.dtd">
<svg version="1.0" xmlns="http://www.w3.org/2000/svg" width="512px" height="511px" viewBox="0 0 5120 5110" preserveAspectRatio="xMidYMid meet">
<g id="layer1" fill="#7f7f7f" stroke="none">
 <path d="M2240 5098 c-277 -25 -532 -100 -815 -238 -787 -385 -1344 -1179 -1414 -2015 -14 -166 -14 -414 0 -580 38 -452 216 -896 517 -1285 91 -117 296 -325 417 -423 330 -267 765 -467 1145 -526 199 -32 527 -40 765 -20 753 63 1479 523 1900 1204 193 311 318 669 350 1004 28 301 13 692 -35 912 -52 236 -177 541 -313 761 -408 666 -1129 1133 -1858 1203 -166 16 -503 18 -659 3z m673 -83 c439 -69 819 -228 1164 -486 126 -95 368 -337 460 -459 273 -367 429 -746 495 -1205 20 -138 16 -513 -6 -660 -144 -953 -796 -1724 -1703 -2015 -256 -82 -469 -114 -763 -114 -239 0 -350 12 -560 59 -637 143 -1194 539 -1554 1105 -174 273 -307 651 -357 1010 -19 136 -17 505 4 643 43 283 116 517 237 762 296 600 805 1044 1435 1254 197 65 343 95 605 125 77 9 450 -4 543 -19z"/>
 </g>
<g id="layer2" fill="#f1c40f" stroke="none">
 <path d="M2231 3942 c-20 -19 -30 -42 -34 -77 -4 -28 -17 -112 -28 -188 l-22 -138 -61 -31 c-33 -17 -84 -46 -112 -64 -28 -19 -55 -34 -61 -34 -5 0 -87 32 -183 70 -96 39 -186 70 -200 70 -15 0 -36 -10 -47 -22 -26 -28 -291 -493 -299 -524 -9 -34 15 -60 168 -184 l143 -114 -1 -144 0 -144 -144 -110 c-136 -103 -180 -146 -180 -176 0 -19 287 -516 310 -537 34 -31 76 -22 253 52 l168 72 92 -60 c51 -33 102 -62 115 -65 26 -7 25 -3 57 -224 24 -167 27 -176 55 -202 l30 -28 299 0 c287 0 299 1 325 21 14 11 26 30 26 42 0 12 12 102 27 200 l27 177 80 45 c45 24 96 55 115 69 l33 25 52 -21 c239 -95 326 -128 338 -128 7 0 23 7 35 15 29 20 313 518 313 549 0 27 -32 58 -201 194 l-116 93 9 52 c8 48 4 152 -9 203 -4 18 18 37 144 124 173 120 203 146 203 175 0 26 -272 508 -308 548 -14 15 -35 27 -47 27 -11 0 -99 -31 -195 -70 -96 -38 -178 -70 -182 -70 -4 0 -31 15 -60 33 -29 19 -81 48 -115 66 l-61 33 -17 116 c-37 248 -41 265 -69 289 -27 23 -29 23 -332 23 l-306 0 -27 -28z m444 -914 c73 -18 173 -78 226 -136 154 -168 173 -410 48 -600 -109 -166 -325 -249 -515 -198 -360 96 -484 541 -224 807 120 122 293 170 465 127z"/>
 </g>
<g id="layer3" fill="#ffffff" stroke="none">
 <path d="M2370 5054 c-262 -30 -408 -60 -605 -125 -632 -211 -1156 -670 -1455 -1274 -121 -245 -194 -479 -237 -762 -21 -138 -23 -507 -4 -643 50 -359 183 -737 357 -1010 147 -230 389 -501 584 -652 365 -282 744 -443 1210 -514 160 -25 520 -25 680 0 556 85 1012 308 1403 685 401 388 659 889 743 1446 22 147 26 522 6 660 -66 459 -221 838 -495 1205 -92 122 -354 384 -480 479 -345 258 -725 417 -1164 486 -93 15 -466 28 -543 19z m518 -1122 c13 -13 25 -65 45 -202 31 -206 28 -200 122 -247 27 -14 74 -41 103 -59 29 -19 56 -34 60 -34 4 0 86 32 182 70 96 39 184 70 195 70 12 0 29 -8 37 -17 8 -10 79 -130 157 -268 97 -171 141 -258 139 -275 -2 -19 -37 -48 -160 -135 -87 -60 -164 -117 -172 -125 -13 -12 -13 -28 -5 -92 7 -49 7 -98 1 -138 l-9 -61 156 -127 c120 -99 157 -134 159 -154 5 -40 -281 -536 -313 -544 -16 -4 -84 18 -212 69 -170 68 -190 74 -208 61 -11 -8 -53 -33 -94 -57 -150 -86 -132 -59 -163 -252 -15 -94 -27 -184 -27 -202 -1 -21 -8 -36 -20 -43 -12 -6 -130 -10 -314 -10 -266 0 -297 2 -316 18 -17 14 -24 46 -46 197 -14 99 -30 190 -35 202 -5 12 -25 29 -45 37 -20 9 -74 40 -120 70 l-84 55 -148 -63 c-195 -83 -214 -89 -245 -77 -36 14 -322 513 -314 547 7 25 33 48 206 181 l114 88 -1 149 -1 148 -124 100 c-179 144 -191 156 -185 187 5 23 264 487 289 519 19 23 64 12 238 -58 96 -38 178 -70 183 -70 6 0 33 15 61 34 28 18 78 47 112 64 33 17 65 36 71 44 7 7 24 96 40 198 20 136 32 189 45 202 16 16 45 18 323 18 280 0 306 -1 323 -18z"/>
 <path d="M2475 3059 c-96 -14 -197 -69 -275 -148 -200 -203 -200 -497 0 -699 97 -98 222 -152 350 -152 83 1 140 14 216 51 172 85 284 261 284 448 0 135 -43 241 -140 344 -114 123 -273 179 -435 156z"/>
 </g>

</svg>