<!DOCTYPE svg PUBLIC "-//W3C//DTD SVG 20010904//EN" "http://www.w3.org/TR/2001/REC-SVG-20010904/DTD/svg10.dtd">
<svg version="1.0" xmlns="http://www.w3.org/2000/svg" width="512px" height="511px" viewBox="0 0 5120 5110" preserveAspectRatio="xMidYMid meet">
<g id="layer1" fill="#7f7f7f" stroke="none">
 <path d="M2240 5098 c-277 -25 -532 -100 -815 -238 -787 -385 -1344 -1179 -1414 -2015 -14 -166 -14 -414 0 -580 38 -452 216 -896 517 -1285 91 -117 296 -325 417 -423 330 -267 765 -467 1145 -526 199 -32 527 -40 765 -20 753 63 1479 523 1900 1204 193 311 318 669 350 1004 28 301 13 692 -35 912 -52 236 -177 541 -313 761 -408 666 -1129 1133 -1858 1203 -166 16 -503 18 -659 3z m673 -83 c439 -69 819 -228 1164 -486 126 -95 368 -337 460 -459 273 -367 429 -746 495 -1205 20 -138 16 -513 -6 -660 -144 -953 -796 -1724 -1703 -2015 -256 -82 -469 -114 -763 -114 -239 0 -350 12 -560 59 -637 143 -1194 539 -1554 1105 -174 273 -307 651 -357 1010 -19 136 -17 505 4 643 43 283 116 517 237 762 296 600 805 1044 1435 1254 197 65 343 95 605 125 77 9 450 -4 543 -19z"/>
 </g>
<g id="layer2" fill="#f1c40f" stroke="none">
 <path d="M2006 3980 c-63 -25 -122 -81 -152 -145 l-24 -50 0 -970 0 -970 24 -50 c28 -60 98 -127 152 -146 32 -11 179 -14 809 -14 720 0 773 1 817 18 59 23 143 112 158 167 7 26 9 361 8 1017 -3 887 -5 981 -20 1008 -24 44 -83 102 -131 128 l-42 22 -775 2 c-746 2 -777 2 -824 -17z m1514 -1165 l0 -905 -705 0 -705 0 0 905 0 905 705 0 705 0 0 -905z"/>
 <path d="M1314 3207 c-2 -7 -3 -440 -2 -962 3 -861 5 -953 20 -980 24 -44 83 -102 131 -128 l42 -22 820 0 820 0 0 135 0 135 -777 3 -778 2 0 903 c0 689 -3 906 -12 915 -17 17 -257 17 -264 -1z"/>
 </g>
<g id="layer3" fill="#ffffff" stroke="none">
 <path d="M2370 5054 c-262 -30 -408 -60 -605 -125 -632 -211 -1156 -670 -1455 -1274 -121 -245 -194 -479 -237 -762 -21 -138 -23 -507 -4 -643 50 -359 183 -737 357 -1010 147 -230 389 -501 584 -652 365 -282 744 -443 1210 -514 160 -25 520 -25 680 0 556 85 1012 308 1403 685 401 388 659 889 743 1446 22 147 26 522 6 660 -66 459 -221 838 -495 1205 -92 122 -354 384 -480 479 -345 258 -725 417 -1164 486 -93 15 -466 28 -543 19z m1276 -1101 c54 -29 110 -93 123 -140 15 -51 15 -1943 1 -1994 -15 -54 -82 -124 -138 -146 -44 -17 -95 -18 -817 -18 -623 0 -777 3 -808 14 -55 19 -106 68 -133 126 l-24 50 0 970 0 970 24 50 c30 63 69 100 132 125 47 19 79 19 824 17 775 -2 775 -2 816 -24z m-2074 -1665 l3 -913 778 -3 777 -2 0 -120 0 -120 -812 2 -813 3 -41 22 c-54 29 -110 93 -123 140 -7 25 -11 344 -11 971 l0 932 120 0 120 0 2 -912z"/>
 <path d="M2095 3728 c-3 -7 -4 -422 -3 -923 l3 -910 720 0 720 0 0 920 0 920 -718 3 c-569 2 -719 0 -722 -10z"/>
 </g>

</svg>