<!DOCTYPE svg PUBLIC "-//W3C//DTD SVG 20010904//EN" "http://www.w3.org/TR/2001/REC-SVG-20010904/DTD/svg10.dtd">
<svg version="1.0" xmlns="http://www.w3.org/2000/svg" width="523px" height="524px" viewBox="0 0 5230 5240" preserveAspectRatio="xMidYMid meet">
<g id="layer1" fill="#a6a6a6" stroke="none">
 <path d="M2375 5235 c-5 -2 -64 -8 -130 -14 -400 -33 -911 -253 -1282 -552 -115 -93 -337 -320 -424 -434 -243 -319 -407 -667 -490 -1039 -63 -285 -63 -867 0 -1152 86 -384 260 -746 513 -1067 96 -121 289 -316 408 -411 328 -261 731 -451 1115 -524 297 -57 758 -57 1060 -1 377 71 800 270 1122 530 125 101 341 324 439 454 299 399 476 842 513 1290 14 165 14 444 1 605 -56 663 -418 1321 -970 1762 -380 303 -848 500 -1291 543 -135 13 -556 20 -584 10z m510 -86 c676 -65 1327 -431 1745 -979 103 -136 181 -263 260 -425 182 -373 261 -714 261 -1125 0 -412 -80 -756 -261 -1125 -246 -500 -629 -890 -1119 -1139 -374 -190 -736 -277 -1156 -277 -292 0 -518 36 -798 128 -1231 403 -1957 1682 -1681 2962 98 458 353 922 689 1256 410 408 954 667 1520 724 191 20 335 20 540 0z"/>
 </g>
<g id="layer2" fill="#009966" stroke="none">
 <path d="M2094 4173 c-158 -134 -226 -190 -294 -248 -26 -22 -67 -56 -91 -77 -91 -75 -396 -332 -449 -377 -30 -26 -140 -119 -245 -206 -349 -292 -422 -355 -435 -370 -10 -13 -6 -22 26 -58 44 -49 206 -242 244 -290 14 -18 62 -76 108 -129 l83 -97 59 47 c32 26 164 137 295 247 130 110 253 213 273 230 21 16 66 55 102 85 36 31 137 116 224 190 l160 133 20 -25 c12 -14 48 -57 81 -97 33 -40 78 -94 100 -121 93 -112 242 -291 430 -515 110 -130 211 -252 225 -269 14 -18 59 -72 100 -120 41 -49 86 -103 100 -121 14 -18 59 -72 100 -121 41 -48 159 -190 263 -314 280 -336 289 -347 379 -453 46 -55 94 -114 107 -133 13 -19 29 -34 35 -34 6 1 27 15 46 31 19 17 143 121 275 232 132 110 242 205 244 210 2 5 -12 25 -31 45 -30 32 -101 117 -248 296 -19 23 -125 150 -235 281 -243 290 -281 336 -320 385 -16 20 -64 77 -105 125 -41 49 -111 132 -155 185 -197 238 -577 694 -655 784 -44 51 -440 526 -510 611 -19 24 -59 73 -88 109 -30 36 -59 66 -66 66 -6 0 -75 -53 -152 -117z"/>
 </g>

</svg>