<!DOCTYPE svg PUBLIC "-//W3C//DTD SVG 20010904//EN" "http://www.w3.org/TR/2001/REC-SVG-20010904/DTD/svg10.dtd">
<svg version="1.0" xmlns="http://www.w3.org/2000/svg" width="531px" height="530px" viewBox="0 0 5310 5300" preserveAspectRatio="xMidYMid meet">
<g id="layer1" fill="#b7b7b7" stroke="none">
 <path d="M2297 5285 c-305 -31 -642 -140 -938 -306 -367 -205 -692 -506 -929 -859 -237 -354 -386 -769 -419 -1165 -14 -166 -14 -444 0 -610 29 -351 154 -729 346 -1048 275 -457 649 -803 1118 -1033 206 -101 321 -143 522 -195 182 -46 293 -59 588 -66 456 -11 757 43 1130 202 309 132 582 320 835 574 306 308 518 656 649 1065 80 250 111 478 111 811 0 323 -32 552 -110 799 -80 249 -172 441 -315 656 -114 173 -197 273 -349 425 -434 433 -1003 707 -1571 754 -166 14 -503 12 -668 -4z m628 -146 c631 -61 1273 -407 1675 -903 218 -269 398 -622 481 -944 110 -425 109 -860 -1 -1286 -106 -409 -339 -813 -645 -1122 -434 -437 -1029 -703 -1640 -732 -341 -17 -661 27 -965 133 -916 320 -1556 1123 -1670 2095 -14 122 -14 417 0 540 56 481 244 933 546 1310 287 357 705 645 1154 794 354 117 676 152 1065 115z"/>
 <path d="M1104 4176 c-3 -7 -4 -121 -2 -252 l3 -240 34 -69 c139 -284 650 -519 1281 -590 170 -19 280 -19 450 0 406 46 773 161 1020 320 109 70 219 184 261 270 l34 70 0 250 0 250 -1538 3 c-1288 2 -1538 0 -1543 -12z"/>
 <path d="M2508 2650 c-249 -45 -479 -229 -583 -464 -46 -103 -60 -182 -59 -321 1 -113 5 -140 28 -210 90 -266 302 -471 551 -535 108 -28 292 -28 400 0 249 64 461 269 551 535 23 70 27 97 28 210 1 97 -4 148 -17 199 -72 270 -275 482 -542 566 -78 24 -274 36 -357 20z"/>
 </g>

</svg>